<svg xmlns="http://www.w3.org/2000/svg" width="15" height="14" viewBox="0 0 15 14"><path fill="#FFF" d="M.341 0A.345.345 0 0 0 0 .35C0 .544.153.7.341.7H2.11l1.795 8.717c-.018.2.162.393.357.383h8.525c.18.003.346-.165.346-.35 0-.185-.166-.353-.346-.35H4.54l-.287-1.4h9.217a.355.355 0 0 0 .33-.273l1.194-5.25c.045-.203-.127-.426-.33-.427H3.026L2.722.273A.354.354 0 0 0 2.387 0H.34zm2.83 2.45h11.065L13.197 7H4.108L3.17 2.45zm2.967 8.4c-.843 0-1.535.71-1.535 1.575S5.295 14 6.138 14s1.534-.71 1.534-1.575-.691-1.575-1.534-1.575zm4.774 0c-.843 0-1.535.71-1.535 1.575S10.07 14 10.912 14s1.534-.71 1.534-1.575-.691-1.575-1.534-1.575zm-4.774.7c.475 0 .852.388.852.875a.859.859 0 0 1-.852.875.859.859 0 0 1-.853-.875.86.86 0 0 1 .853-.875zm4.774 0c.475 0 .852.388.852.875a.859.859 0 0 1-.852.875.859.859 0 0 1-.853-.875.86.86 0 0 1 .853-.875z"/></svg>