<?xml version="1.0" encoding="UTF-8"?>
<svg width="42px" height="11px" viewBox="0 0 42 11" version="1.1" xmlns="http://www.w3.org/2000/svg" xmlns:xlink="http://www.w3.org/1999/xlink">
    <!-- Generator: Sketch 51.3 (57544) - http://www.bohemiancoding.com/sketch -->
    <title>Shape</title>
    <desc>Created with Sketch.</desc>
    <defs></defs>
    <g id="Page-3" stroke="none" stroke-width="1" fill="none" fill-rule="evenodd">
        <g id="Tiendas-en-línea-Móvil" transform="translate(-343.000000, -664.000000)" fill="#121212" fill-rule="nonzero">
            <path d="M384.832289,668.949784 L380.301929,664.234828 C380.001083,663.921724 379.546869,663.921724 379.246053,664.234828 C378.945207,664.547933 378.945207,665.020654 379.246053,665.333727 L382.493415,668.713408 L343.75506,668.713408 C343.300846,668.713408 343,669.026512 343,669.499234 C343,669.971955 343.300846,670.28506 343.75506,670.28506 L382.490395,670.28506 L379.243033,673.66474 C378.942187,673.977845 378.942187,674.450566 379.243033,674.763639 C379.393456,674.920192 379.620563,675 379.770986,675 C379.921409,675 380.148516,674.920192 380.298939,674.763639 L384.829299,670.048683 C385.056406,669.735579 385.056406,669.262857 384.832249,668.949784 L384.832289,668.949784 Z" id="Shape"></path>
        </g>
    </g>
</svg>