<svg xmlns="http://www.w3.org/2000/svg" width="12" height="15" viewBox="0 0 12 15">
    <g fill="#FFF" fill-rule="nonzero" stroke="#FFF" stroke-width=".3">
        <path d="M9.956 1a.279.279 0 0 1 .236.153c.015.03.026.062.031.095l.402 2.594v.004l.372 2.638a.313.313 0 0 1-.035.19l-3.94 7.178a.285.285 0 0 1-.172.138.27.27 0 0 1-.213-.03L1.14 10.633a.294.294 0 0 1-.131-.18.31.31 0 0 1 .028-.223l3.94-7.177a.29.29 0 0 1 .143-.128L7.5 1.952l.002-.001 2.344-.932A.28.28 0 0 1 9.956 1zm-.234.7l-2.018.803-.003.001-2.284.933-3.752 6.832 5.009 3.033 3.75-6.833-.356-2.535v-.002l-.346-2.231z"/>
        <path d="M8.486 4.001a.52.52 0 0 1 .254.071l.002.001c.226.136.335.443.197.689a.487.487 0 0 1-.677.166l-.002-.001c-.228-.136-.337-.44-.199-.687l.001-.002A.474.474 0 0 1 8.486 4v.001z"/>
    </g>
</svg>
