<svg xmlns="http://www.w3.org/2000/svg" width="14" height="24" viewBox="0 0 14 24">
    <path fill="#000" fill-rule="nonzero" d="M0 21.714c0 .606.236 1.188.656 1.616.42.429.99.67 1.584.67h9.52c.594 0 1.164-.241 1.584-.67A2.31 2.31 0 0 0 14 21.714V2.286A2.31 2.31 0 0 0 13.344.67C12.924.24 12.354 0 11.76 0H2.24C1.003 0 0 1.023 0 2.286v19.428zM1.12 2.286c0-.632.5-1.143 1.12-1.143h9.52c.297 0 .582.12.792.335.21.214.328.504.328.808v19.428c0 .304-.118.594-.328.808-.21.215-.495.335-.792.335H2.24c-.62 0-1.12-.511-1.12-1.143V2.286zM5.88 20.57c0-.462.272-.879.691-1.055.42-.178.9-.08 1.22.247.321.327.418.818.244 1.246A1.119 1.119 0 0 1 7 21.714c-.619 0-1.12-.51-1.12-1.143z"/>
</svg>
