<svg xmlns="http://www.w3.org/2000/svg" width="13" height="12" viewBox="0 0 13 12">
    <g fill="#FFF" fill-rule="nonzero">
        <path d="M10.732.14H2.268C1.112.14.152 1.138.152 2.339v7.324c0 1.201.96 2.197 2.116 2.197h8.464c1.157 0 2.116-.996 2.116-2.197V2.338c0-1.201-.96-2.197-2.116-2.197zm-8.464.88h8.464c.705 0 1.27.585 1.27 1.318v.879H.998v-.88c0-.732.564-1.317 1.27-1.317zM.998 9.662V4.096h7.477v6.884H2.268c-.705 0-1.27-.585-1.27-1.318zm9.734 1.319h-1.41V4.096h2.68v5.566c0 .733-.565 1.319-1.27 1.319z"/>
        <path d="M8.616 2.25c0 .781-1.129.781-1.129 0 0-.782 1.129-.782 1.129 0M10.026 2.25c0 .781-1.128.781-1.128 0 0-.782 1.128-.782 1.128 0M11.437 2.25c0 .781-1.128.781-1.128 0 0-.782 1.128-.782 1.128 0"/>
    </g>
</svg>
