<svg width="105" height="48" viewBox="0 0 105 48" xmlns="http://www.w3.org/2000/svg" xmlns:xlink="http://www.w3.org/1999/xlink"><title>Group 2</title><defs><path id="a" d="M.012.02h8.61v12.21H.013z"/><path id="c" d="M.002.011h12.693v22.117H.002z"/></defs><g fill="none" fill-rule="evenodd"><path d="M21.456 15.27c-.302.157-.732.328-1.29.515-.85.28-1.486.65-1.904 1.11-.418.459-.627 1.156-.627 2.09 0 .748.232 1.34.697 1.776a2.302 2.302 0 0 0 1.626.654c.54 0 1.002-.18 1.381-.538.38-.357.57-.864.57-1.518v-4.415c0 .062-.152.171-.453.327m3.507 5.933c.116.343.247.592.395.748.146.155.22.218.22.186 0-.015-.185-.046-.557-.093-.372-.046-.952-.07-1.742-.07-.543 0-.987.024-1.335.07-.35.047-.523.078-.523.093a.741.741 0 0 0 .163-.174c.076-.101.15-.257.22-.468.07-.21.104-.47.104-.782-.061.202-.263.416-.603.642-.34.226-.778.413-1.312.56a6.296 6.296 0 0 1-1.684.222 3.991 3.991 0 0 1-1.707-.373 3.259 3.259 0 0 1-1.3-1.074c-.334-.468-.5-1.013-.5-1.636 0-.778.251-1.41.754-1.892a4.77 4.77 0 0 1 1.685-1.063c.619-.226 1.33-.432 2.136-.619.341-.062.526-.101.558-.116a8.407 8.407 0 0 0 1.416-.502c.372-.18.557-.41.557-.69v-.514c0-2.164-.858-3.247-2.578-3.247-.758 0-1.408.168-1.95.503-.543.335-.813.829-.813 1.483 0 .405.186.607.557.607.109 0 .233-.019.372-.059.14-.038.24-.058.302-.058.619 0 .928.313.928.935 0 .312-.12.588-.36.829-.24.242-.599.362-1.08.362-.293 0-.596-.113-.905-.338a1.77 1.77 0 0 1-.65-.9 2.598 2.598 0 0 1-.116-.818c0-.544.174-1.047.522-1.506.348-.459.832-.821 1.452-1.087.619-.264 1.316-.396 2.09-.396 1.61 0 2.864.39 3.762 1.168.898.779 1.348 1.985 1.348 3.62v5.093c0 .56.058 1.012.174 1.354m14.699-.251c.147.43.313.745.498.947.186.202.28.28.28.233 0-.016-.237-.054-.71-.116a13.425 13.425 0 0 0-1.728-.094c-.681 0-1.257.031-1.729.094-.472.062-.708.1-.708.116 0 .047.093-.031.28-.233.184-.202.35-.518.497-.947.148-.428.22-.992.22-1.693v-5.07c0-.577-.026-1.09-.08-1.542-.055-.452-.252-.907-.592-1.367-.341-.46-.89-.69-1.648-.69-.526 0-.998.18-1.416.538-.418.359-.74.822-.963 1.39a4.602 4.602 0 0 0-.337 1.694v5.047c0 .7.074 1.265.221 1.693.147.43.313.745.499.947.186.202.278.28.278.233 0-.016-.236-.054-.707-.116a13.432 13.432 0 0 0-1.73-.094c-.68 0-1.257.031-1.728.094-.473.062-.709.1-.709.116 0 .047.093-.031.279-.233.185-.202.351-.518.499-.947.147-.428.22-.992.22-1.693v-5.537c0-.997-.1-1.706-.3-2.127-.203-.42-.434-.67-.698-.747.898 0 1.703-.11 2.415-.328.711-.218 1.198-.521 1.461-.91v2.453c.155-.468.488-.908.998-1.32a3.889 3.889 0 0 1 1.695-.807 5.057 5.057 0 0 1 1.16-.116c1.207 0 2.186.37 2.936 1.11.751.74 1.126 1.717 1.126 2.931v5.398c0 .7.073 1.265.22 1.693m11.637.368c-.651.67-1.667 1.004-3.046 1.004-1.271 0-2.399-.252-3.384-.76a5.585 5.585 0 0 1-2.3-2.149c-.551-.926-.826-1.99-.826-3.19 0-1.292.299-2.433.895-3.423a6.102 6.102 0 0 1 2.383-2.279 6.75 6.75 0 0 1 3.232-.794c.28 0 .488.008.628.023.914.079 1.67.402 2.266.97.596.569.896 1.235.896 1.998 0 .327-.04.607-.117.842-.124.373-.345.67-.662.887-.319.219-.625.327-.919.327-.48 0-.841-.12-1.082-.362a1.146 1.146 0 0 1-.36-.83c0-.623.31-.934.93-.934.062 0 .171.016.326.047s.294.047.418.047c.45 0 .675-.242.675-.725 0-.498-.248-.93-.744-1.297-.497-.366-1.077-.548-1.744-.548-.79 0-1.503.225-2.139.677-.635.451-1.135 1.133-1.499 2.044-.364.912-.547 2.021-.547 3.33 0 1.044.163 1.986.489 2.828.325.841.779 1.507 1.36 1.998.581.49 1.244.736 1.988.736 1.038 0 1.874-.269 2.51-.806a4.218 4.218 0 0 0 1.326-1.998l.326.42c-.203.608-.628 1.247-1.28 1.917m25.673-.178c.489-.451.88-1.11 1.174-1.975.295-.866.441-1.89.441-3.075 0-1.264-.146-2.33-.441-3.205-.294-.872-.685-1.52-1.174-1.94-.488-.421-1.02-.631-1.592-.631-.59 0-1.127.21-1.616.63-.487.422-.879 1.065-1.173 1.93-.295.865-.442 1.938-.442 3.216 0 1.184.147 2.21.442 3.075.294.865.689 1.524 1.185 1.975.496.453 1.03.679 1.604.679.573 0 1.104-.226 1.592-.679m1.314-10.546c.914.5 1.655 1.225 2.22 2.175.565.951.848 2.057.848 3.32 0 1.264-.283 2.362-.848 3.298-.565.934-1.306 1.648-2.22 2.14a6.05 6.05 0 0 1-2.906.736 5.98 5.98 0 0 1-2.894-.737c-.906-.49-1.639-1.205-2.196-2.139-.559-.936-.837-2.034-.837-3.297 0-1.278.278-2.39.837-3.332.557-.944 1.29-1.665 2.196-2.164a5.913 5.913 0 0 1 2.894-.748 5.99 5.99 0 0 1 2.906.748" fill="#FEFEFE"/><path d="M33.334 25.188c-.758 1.807-1.926 3.134-3.505 3.983-1.578.849-3.39 1.273-5.432 1.273-2.089 0-4.2-.393-6.337-1.18-2.136-.787-3.9-1.787-5.293-3.002-1.223-1.074-2.274-2.133-3.156-3.176-.882-1.044-1.722-2.395-2.52-4.054-.796-1.659-1.473-3.702-2.03-6.131v-.468h1.346c.82 0 1.582-.202 2.286-.607.705-.405 1.266-1.005 1.684-1.8.417-.793.626-1.735.626-2.826 0-.98-.193-1.884-.58-2.71a4.87 4.87 0 0 0-1.636-1.974 4.073 4.073 0 0 0-2.38-.736c-.742 0-1.207.016-1.392.047-.465.062-.767.269-.906.62-.139.35-.21.821-.21 1.413v.817l-.023 10.63c0 2.554.009 3.87.024 3.947.031.701.12 1.266.267 1.693.147.43.309.74.487.935.178.196.267.27.267.223 0-.016-.24-.051-.72-.106a16.378 16.378 0 0 0-1.786-.082c-.682 0-1.254.028-1.718.082-.464.055-.697.09-.697.106 0 .046.09-.027.267-.223.178-.194.34-.506.488-.935.146-.427.22-.992.22-1.693V4.257c0-.685-.074-1.242-.22-1.67-.148-.429-.31-.744-.488-.947C.09 1.44 0 1.36 0 1.407c0 .015.178.05.534.105.356.054.874.082 1.556.082.309.015.912-.024 1.81-.117.82-.11 1.532-.164 2.136-.164 2.322 0 4.17.5 5.547 1.495 1.377.998 2.067 2.4 2.067 4.206 0 1.012-.248 1.95-.743 2.815a5.891 5.891 0 0 1-2.044 2.102 6.252 6.252 0 0 1-2.877.923h-.697c.619 1.837 1.219 3.402 1.8 4.695a20.857 20.857 0 0 0 2.275 3.843c.935 1.269 2.13 2.487 3.585 3.656 1.44 1.152 3.138 2.094 5.096 2.826 1.957.732 3.865 1.098 5.722 1.098 1.625 0 3.084-.315 4.376-.945 1.292-.63 2.324-1.61 3.099-2.933l.092.094zm15.911 4.002c-.07-.483-.348-1.001-.834-1.554-.486-.554-1.262-.83-2.326-.83h-4.283c-.65 0-1.104.238-1.366.713-.263.475-.394 1.032-.394 1.671v7.106c.046.654.362.982.95.982h2.384c.68 0 1.242-.14 1.69-.42.448-.281.78-.605.996-.97.215-.367.347-.714.393-1.041-.031.311-.054.701-.07 1.169-.015.467-.022.92-.022 1.355 0 .967.023 1.893.069 2.782-.046-.311-.178-.658-.394-1.04-.216-.382-.544-.713-.983-.993-.44-.281-.993-.421-1.656-.421h-2.408c-.587 0-.903.335-.95 1.005v5.446c0 .702.077 1.266.232 1.695.155.429.325.745.51.947.185.202.277.28.277.233 0-.015-.235-.054-.705-.116a13.447 13.447 0 0 0-1.725-.094c-.68 0-1.258.032-1.737.094-.478.062-.717.1-.717.116 0 .047.092-.03.278-.233.184-.202.35-.518.497-.947.146-.429.22-.993.22-1.695V29.283c0-.7-.074-1.266-.22-1.695-.147-.428-.313-.744-.497-.946-.186-.202-.278-.28-.278-.234l13.914-.023-.741 4.184c0-.436-.034-.896-.104-1.379m3.023 14.957V29.243c0-.997-.1-1.707-.3-2.128-.2-.422-.432-.67-.694-.75.848 0 1.634-.14 2.358-.42.725-.281 1.225-.632 1.503-1.053v19.255c0 .703.073 1.268.22 1.697.146.43.311.745.497.948.185.202.277.28.277.233 0-.015-.235-.054-.705-.116a13.389 13.389 0 0 0-1.722-.094c-.679 0-1.252.031-1.723.094-.47.062-.705.1-.705.116 0 .047.093-.03.278-.233.184-.203.35-.519.497-.948.146-.43.22-.994.22-1.697m13.215 1.888c.488-.452.88-1.11 1.174-1.976.295-.864.442-1.89.442-3.074 0-1.262-.147-2.33-.442-3.203-.295-.873-.686-1.52-1.174-1.941-.488-.42-1.019-.632-1.592-.632-.59 0-1.128.211-1.616.632-.488.421-.88 1.064-1.173 1.93-.296.864-.442 1.936-.442 3.214 0 1.185.146 2.21.442 3.074.293.866.689 1.524 1.185 1.976.496.453 1.03.678 1.604.678.573 0 1.104-.225 1.592-.678m1.314-10.545c.914.5 1.653 1.224 2.22 2.175.565.95.848 2.058.848 3.32s-.283 2.361-.849 3.297c-.566.934-1.305 1.648-2.22 2.139a6.044 6.044 0 0 1-2.905.737 5.98 5.98 0 0 1-2.895-.737c-.905-.491-1.637-1.205-2.195-2.139-.56-.936-.837-2.035-.837-3.297 0-1.278.278-2.39.837-3.331.558-.944 1.29-1.664 2.195-2.164a5.924 5.924 0 0 1 2.895-.748c1.023 0 1.992.25 2.906.748m13.23 3.042a1.065 1.065 0 0 1-.312-.782c0-.25.06-.467.185-.654.231-.374.347-.709.347-1.005a.84.84 0 0 0-.36-.724c-.238-.17-.551-.257-.937-.257-.695 0-1.305.296-1.831.888-.525.592-.934 1.417-1.228 2.477-.293 1.059-.44 2.265-.44 3.621v2.056c0 .701.073 1.265.22 1.693.147.43.313.745.499.947.185.202.278.28.278.233 0-.015-.236-.054-.707-.116a13.479 13.479 0 0 0-1.727-.094c-.68 0-1.255.032-1.725.094-.472.062-.707.1-.707.116 0 .047.092-.03.278-.233.185-.202.351-.518.498-.947.147-.428.22-.992.22-1.693v-5.304c0-.997-.1-1.705-.3-2.126-.202-.42-.433-.669-.696-.748.85 0 1.637-.14 2.363-.42.726-.28 1.228-.63 1.505-1.051v3.317c.125-.452.364-.926.72-1.425.355-.498.795-.92 1.32-1.262a2.996 2.996 0 0 1 1.668-.513c.571 0 1.092.132 1.564.397.47.265.842.612 1.112 1.039.27.429.405.861.405 1.297 0 .42-.134.775-.405 1.063-.27.288-.59.432-.961.432-.356 0-.637-.105-.846-.316m7.138-1.976c-.55.88-.848 1.96-.895 3.236h5.79c0-1.464-.24-2.59-.72-3.377-.482-.786-1.171-1.18-2.07-1.18-.853 0-1.555.44-2.105 1.321m5.441 9.466c-.767.678-1.794 1.017-3.08 1.017-1.117 0-2.14-.211-3.07-.632a5.09 5.09 0 0 1-2.243-1.974c-.566-.896-.849-2.014-.849-3.355 0-1.324.287-2.457.861-3.4.573-.943 1.313-1.648 2.22-2.115a6.083 6.083 0 0 1 2.825-.702c1.425 0 2.589.456 3.487 1.367.9.912 1.35 2.28 1.35 4.102h-7.859a7.948 7.948 0 0 0-.024.748c0 1.512.275 2.802.826 3.869.55 1.067 1.421 1.6 2.616 1.6 1.131 0 2.04-.288 2.731-.864a4.61 4.61 0 0 0 1.454-2.174l.348.21c-.294.858-.825 1.625-1.593 2.303" fill="#FEFEFE"/><g transform="translate(96.332 34.801)"><mask id="b" fill="#fff"><use xlink:href="#a"/></mask><path d="M2.708 3.67c.27.358.602.666.996.923.394.258.921.558 1.585.9.726.374 1.308.706 1.748.995.44.29.814.651 1.122 1.087.309.438.464.944.464 1.522 0 .56-.193 1.083-.58 1.566-.385.484-.933.866-1.643 1.146-.71.28-1.536.421-2.476.421-.293 0-.578-.03-.857-.093a9.138 9.138 0 0 1-.786-.21 5.96 5.96 0 0 0-.672-.199 3.006 3.006 0 0 0-.694-.082c-.185 0-.374.05-.568.152-.192.102-.304.238-.335.41L.568 8.44c.247.92.6 1.716 1.064 2.386.463.67 1.18 1.006 2.153 1.006.663 0 1.226-.234 1.689-.702.464-.468.695-1.02.695-1.66 0-.593-.212-1.065-.637-1.416-.425-.35-1.068-.737-1.932-1.157a17.062 17.062 0 0 1-1.748-.971A3.922 3.922 0 0 1 .73 4.793C.42 4.324.266 3.756.266 3.085c0-.562.17-1.076.51-1.544.339-.468.801-.838 1.39-1.111A4.543 4.543 0 0 1 4.108.02c.447 0 .829.04 1.146.118.316.077.705.202 1.168.374.233.077.425.117.58.117.231 0 .428-.05.59-.152.162-.101.258-.214.29-.34l-.649 3.416c0-.125-.093-.448-.277-.971a4.13 4.13 0 0 0-.927-1.463C5.598.667 5.042.441 4.363.441c-.586 0-1.076.164-1.47.492-.393.327-.589.834-.589 1.52 0 .453.134.857.404 1.217" fill="#FEFEFE" mask="url(#b)"/></g><path d="M14.084 45.02V34.617c0-.697-.07-1.193-.212-1.487-.142-.294-.305-.467-.49-.523a4.63 4.63 0 0 0 1.667-.293c.512-.196.866-.441 1.063-.735V45.02c0 .49.052.883.155 1.183.104.3.221.52.353.661.13.143.195.197.195.164 0-.01-.166-.037-.498-.082a9.747 9.747 0 0 0-1.219-.065c-.48 0-.886.022-1.218.065-.333.045-.499.072-.499.082 0 .033.065-.021.197-.164.13-.14.248-.36.35-.661.104-.3.156-.694.156-1.183m8.796-2.8a6.75 6.75 0 0 1-.9.36c-.595.196-1.038.456-1.33.777-.29.322-.437.81-.437 1.466 0 .524.162.938.486 1.244a1.6 1.6 0 0 0 1.134.459c.379 0 .7-.125.965-.376.265-.252.397-.607.397-1.065V41.99c0 .042-.106.119-.316.228m2.447 4.16c.08.24.173.415.276.523.103.11.154.153.154.131 0-.01-.13-.032-.39-.065-.259-.033-.664-.05-1.215-.05-.378 0-.688.017-.932.05-.243.033-.364.055-.364.065a.503.503 0 0 0 .113-.123c.054-.07.105-.179.154-.327.05-.148.073-.33.073-.548-.044.142-.184.292-.421.45a3.22 3.22 0 0 1-.916.393 4.37 4.37 0 0 1-1.175.155 2.78 2.78 0 0 1-1.192-.262 2.279 2.279 0 0 1-.907-.753 1.933 1.933 0 0 1-.348-1.146c0-.546.175-.988.527-1.326.35-.339.743-.587 1.175-.746.431-.158.928-.302 1.49-.434.239-.043.368-.07.39-.081.4-.109.729-.227.988-.352.26-.126.39-.287.39-.483v-.36c0-1.518-.6-2.276-1.8-2.276-.53 0-.983.117-1.361.351-.379.235-.568.582-.568 1.04 0 .284.13.426.39.426a.948.948 0 0 0 .258-.041.884.884 0 0 1 .212-.04c.432 0 .648.218.648.655a.806.806 0 0 1-.25.58c-.17.17-.42.255-.754.255-.207 0-.417-.08-.632-.238a1.24 1.24 0 0 1-.455-.63 1.833 1.833 0 0 1-.08-.573c0-.382.12-.735.364-1.057.243-.321.58-.576 1.012-.761a3.67 3.67 0 0 1 1.46-.279c1.123 0 1.998.273 2.625.82.626.545.94 1.391.94 2.537v3.57c0 .393.04.71.121.95m3.801-5.324c.19.25.423.465.698.646.277.18.647.39 1.112.629.51.262.917.494 1.226.695.309.202.57.456.787.76.217.305.325.66.325 1.063 0 .392-.136.759-.406 1.096-.27.338-.655.605-1.153.801-.498.197-1.077.295-1.737.295-.205 0-.405-.022-.6-.065a6.961 6.961 0 0 1-.553-.148 4.376 4.376 0 0 0-.47-.139 2.09 2.09 0 0 0-.487-.057.845.845 0 0 0-.398.107c-.136.07-.214.165-.235.285l.39-2.633c.172.644.421 1.2.746 1.668.325.47.828.703 1.51.703.465 0 .86-.163 1.185-.49.324-.327.487-.714.487-1.161 0-.414-.149-.744-.446-.99-.298-.245-.75-.514-1.356-.809a11.82 11.82 0 0 1-1.225-.68 2.709 2.709 0 0 1-.787-.791c-.218-.328-.326-.725-.326-1.195 0-.392.119-.751.357-1.079a2.45 2.45 0 0 1 .974-.776 3.196 3.196 0 0 1 1.364-.287c.314 0 .582.028.804.082.222.054.495.142.82.262.162.055.297.081.406.081a.77.77 0 0 0 .414-.106c.113-.07.18-.149.203-.237l-.455 2.388c0-.088-.065-.313-.195-.679a2.858 2.858 0 0 0-.649-1.022c-.303-.316-.693-.474-1.168-.474-.413 0-.756.114-1.032.344-.276.228-.415.583-.415 1.062 0 .317.096.6.285.85" fill="#FEFEFE"/><g transform="translate(54.59)"><mask id="d" fill="#fff"><use xlink:href="#c"/></mask><path d="M12.49 21.884c-.174-.199-.333-.507-.477-.922a23.92 23.92 0 0 1-.16-2.875v-3.998c0-1.217-.386-2.195-1.157-2.936a3.855 3.855 0 0 0-.983-.687c-.58-.292-1.247-.439-2.003-.439-.448 0-.834.04-1.158.117a3.864 3.864 0 0 0-1.678.795c-.501.405-.837.842-1.007 1.309V.01c-.277.42-.779.771-1.504 1.052a6.5 6.5 0 0 1-2.36.42c.261.08.493.328.693.75.2.42.301 1.13.301 2.127v.658H.986c-.005.195-.012.39-.012.59V19.24c0 .701-.073 1.267-.22 1.695-.147.43-.308.745-.486.948a2.32 2.32 0 0 1-.206.214c.012-.002.032-.005.05-.01l-.027.026c.095-.02.307-.053.646-.098.47-.063 1.045-.094 1.724-.094.68 0 1.254.031 1.725.094.335.044.545.077.642.097.024.016.041.021.041.004 0-.004-.023-.01-.056-.018a2.49 2.49 0 0 1-.2-.2c-.184-.202-.354-.518-.508-.947-.154-.429-.232-.994-.232-1.696v-5.051c0-.561.116-1.103.347-1.625.232-.522.552-.948.961-1.275.41-.327.883-.49 1.424-.49.377 0 .701.056.976.168.266.115.486.282.656.506.346.46.547.92.601 1.38.054.46.081.97.081 1.531v4.84c0 .702-.077 1.268-.231 1.696-.154.43-.324.745-.51.948a2.273 2.273 0 0 1-.213.213c.097-.02.307-.052.642-.096.456-.06 1.013-.091 1.665-.093l.575.006a11.74 11.74 0 0 1 1.854.184 2.23 2.23 0 0 1-.205-.214" fill="#FEFEFE" mask="url(#d)"/></g><path d="M54.71 22.146c-.073.027-.12.049-.12.063 0 .072.042.047.12-.063m30.272-1.938h.297c.338 0 .625-.124.625-.444 0-.227-.164-.455-.625-.455-.133 0-.225.011-.297.021v.878zm0 1.435h-.41v-2.591c.215-.032.42-.062.728-.062.389 0 .645.083.798.196.155.113.237.29.237.537 0 .34-.226.547-.503.63v.02c.225.042.38.248.431.63.061.403.123.557.164.64h-.43c-.062-.083-.124-.32-.174-.66-.062-.332-.226-.455-.554-.455h-.287v1.115zm.431-3.313c-1.015 0-1.844.877-1.844 1.96 0 1.104.83 1.972 1.853 1.972 1.025.01 1.845-.868 1.845-1.961 0-1.094-.82-1.971-1.845-1.971h-.009zm.01-.362c1.26 0 2.264 1.032 2.264 2.323 0 1.31-1.004 2.333-2.274 2.333-1.26 0-2.285-1.022-2.285-2.333 0-1.29 1.024-2.323 2.285-2.323h.01z" fill="#FEFEFE"/></g></svg>