<svg width="74" height="18" viewBox="0 0 74 18" xmlns="http://www.w3.org/2000/svg" xmlns:xlink="http://www.w3.org/1999/xlink"><title>logo</title><defs><path id="a" d="M17.94 17.888H.095V.042H17.94z"/><path id="c" d="M17.88.042v17.846H.035V.042z"/></defs><g fill="none" fill-rule="evenodd"><g transform="translate(15)"><mask id="b" fill="#fff"><use xlink:href="#a"/></mask><path d="M9.018.042H2.252A2.157 2.157 0 0 0 .095 2.2v6.713a2.15 2.15 0 0 0 4.3 0V4.357h4.623a4.614 4.614 0 0 1 4.609 4.608 4.614 4.614 0 0 1-4.61 4.609H.096v4.314h8.923a8.864 8.864 0 0 0 6.31-2.614 8.864 8.864 0 0 0 2.612-6.31 8.864 8.864 0 0 0-2.613-6.308A8.863 8.863 0 0 0 9.017.042" fill="#FEFEFE" fill-rule="nonzero" mask="url(#b)"/></g><path d="M43.947 4.356h6.766a2.157 2.157 0 0 0 0-4.314h-6.766a8.864 8.864 0 0 0-6.31 2.613 8.865 8.865 0 0 0-2.612 6.31c0 2.383.928 4.624 2.613 6.31a8.863 8.863 0 0 0 6.31 2.613h8.922v-4.315h-8.923a4.613 4.613 0 0 1-4.075-2.458h.925v.007h4.314V6.808h-4.314v.007h-.925a4.613 4.613 0 0 1 4.075-2.459" fill="#FEFEFE" fill-rule="nonzero"/><g transform="translate(56)"><mask id="d" fill="#fff"><use xlink:href="#c"/></mask><path d="M17.88 8.883a8.864 8.864 0 0 0-2.613-6.227A8.865 8.865 0 0 0 8.957.042a8.865 8.865 0 0 0-6.309 2.614A8.866 8.866 0 0 0 .035 8.965v8.923h4.314V8.965a4.614 4.614 0 0 1 4.608-4.608c1.745 0 3.267.974 4.049 2.408h-2.844a2.15 2.15 0 0 0 0 4.3h3.404v6.824h4.314V8.882" fill="#FEFEFE" fill-rule="nonzero" mask="url(#d)"/></g><path d="M10 6c-1.105 0-2 .892-2 1.991V17h4V7.991C12 6.891 11.104 6 10 6m0-6a2 2 0 1 0 0 4 2 2 0 0 0 0-4M2 6C.895 6 0 6.892 0 7.991V17h4V7.991C4 6.891 3.105 6 2 6m0-6a2 2 0 1 0 0 4 2 2 0 0 0 0-4" fill="#FEFEFE" fill-rule="nonzero"/></g></svg>