<svg width="81" height="18" viewBox="0 0 81 18" xmlns="http://www.w3.org/2000/svg" xmlns:xlink="http://www.w3.org/1999/xlink"><title>Group 27@2x</title><defs><path id="a" d="M0 .367h17.682V18H0z"/><path id="c" d="M.086.307h.415v13.376H.086z"/></defs><g fill="none" fill-rule="evenodd"><mask id="b" fill="#fff"><use xlink:href="#a"/></mask><path d="M6.097 4.682l.609.45c.186-.128.357-.296.562-.379.722-.29 1.496-.828 2.17-.727.473.07 1.185 1.066 1.129 1.575-.09.798-.563 1.92-1.19 2.204-.905.41-2.095.265-3.16.226-1.783-.065-3.265.92-3.565 2.486-.305 1.593.575 3.143 2.067 3.642 1.566.524 3.098-.205 3.893-1.865.21-.439.269-1.036.603-1.313.756-.626 1.586-1.392 2.487-1.56 1.194-.224 2.195.584 2.24 1.861.042 1.18-.682 1.906-2.002 1.818-.247-.017-.507.15-.76.233l.014.6c.777 0 1.82.312 2.27-.071.744-.637 1.538-1.718 1.544-2.617.014-2.34-1.914-2.906-3.89-3.202.848-1.676 1.115-3.345-.307-4.485-.74-.593-2.113-.675-3.136-.531C7.083 3.11 6.62 4.1 6.097 4.682M8.822 18C3.891 17.994-.055 14.034.001 9.144.054 4.424 4.105.39 8.818.367c4.707-.023 8.964 4.277 8.862 8.953-.104 4.769-4.1 8.686-8.858 8.68" fill="#FEFEFE" mask="url(#b)"/><path d="M62.444 2L72 15.632l-.49.368-8.69-12.33a22.91 22.91 0 0 1-.378.054v12.1L62 15.808V2.023L62.444 2m2.022 0l8.671 13.082.404-.057V2.451l.459.001v14.305l-.352.243L64 2.366 64.466 2M35.47 13.989c.238.457.4 1.002.73 1.355 1.319 1.41 3.17 1.438 4.397.138 1.097-1.16 1.012-2.93-.37-4.429-1.197-1.299-2.563-2.406-3.79-3.674-.948-.98-1.355-2.393-.612-3.525.572-.873 1.698-1.552 2.682-1.789 1.273-.307 2.315.485 2.682 2.105-.29-.277-.577-.562-.875-.831-1.155-1.042-2.763-.994-3.634.172-.984 1.316-.648 2.55.381 3.605 1.314 1.347 2.745 2.563 4 3.97 1.039 1.161 1.237 2.64.487 4.11-.748 1.465-2.043 1.912-3.454 1.783-1.453-.132-2.588-.884-3.094-2.439l.47-.551M29.034 9.55l-3.05-6.487L22.94 9.55h6.093zM26.23 2.032L30 10h-8l3.725-8 .505.032zM48.98 9.49h6.027l-3.014-6.432-3.012 6.433m3.265-7.445L56 10h-8l3.745-8 .5.046M58.502 16c-.496-1.02-1.075-2.011-1.465-3.066-.4-1.081-1.067-1.45-2.257-1.375a37.5 37.5 0 0 1-4.609 0c-1.13-.067-1.721.329-2.108 1.318-.416 1.064-1.002 2.07-1.514 3.1L46 15.743c.714-1.458 1.383-2.94 2.184-4.354.148-.26.831-.335 1.27-.343 2.01-.033 4.028-.102 6.026.042.654.046 1.493.566 1.836 1.105.708 1.113 1.14 2.385 1.684 3.592l-.498.215m-27.024 0c-.51-1.05-1.098-2.074-1.508-3.158-.389-1.028-1.043-1.42-2.138-1.262a3.27 3.27 0 0 1-.886 0c-3.51-.473-6.42.015-7.2 4.019-.028.149-.275.26-.746.207.684-1.449 1.31-2.927 2.097-4.323.17-.301.913-.418 1.397-.43 2.01-.048 4.028-.1 6.03.023.607.037 1.406.505 1.713 1.003.718 1.162 1.191 2.461 1.763 3.705l-.522.216" fill="#FEFEFE"/><path d="M39.522 7c-.784-.884-1.58-1.39-1.519-1.817.068-.463.93-1.181 1.45-1.183.546-.002 1.453.668 1.541 1.126.082.426-.708.96-1.472 1.874" fill="#FEFEFE"/><g transform="translate(80 2)"><mask id="d" fill="#fff"><use xlink:href="#c"/></mask><path d="M.171 13.62V.307h.33v13.375c-.11-.02-.22-.042-.33-.064" fill="#FEFEFE" mask="url(#d)"/></g><path d="M9 9.41c-1.031-.15-2.057-.57-2.904-.345-.836.223-1.976 1.023-2.086 1.708-.111.686.749 1.993 1.439 2.195.656.193 1.812-.526 2.434-1.145.58-.577.743-1.551 1.117-2.413" fill="#FEFEFE"/><path d="M9 9.41c-.374.862-.538 1.836-1.117 2.413-.622.62-1.778 1.338-2.434 1.145-.69-.202-1.55-1.51-1.44-2.195.111-.685 1.251-1.485 2.087-1.708.847-.225 1.873.195 2.904.345" fill="#FEFEFE"/></g></svg>