<svg width="138" height="15" viewBox="0 0 138 15" xmlns="http://www.w3.org/2000/svg" xmlns:xlink="http://www.w3.org/1999/xlink"><title>Group</title><defs><path id="a" d="M0 .04h9.859v14.798H0z"/><path id="c" d="M0 15h143V0H0z"/></defs><g fill="none" fill-rule="evenodd"><mask id="b" fill="#fff"><use xlink:href="#a"/></mask><path fill="#FEFEFE" mask="url(#b)" d="M1.28 1.37v5.425h7.593v1.288H1.28v6.755H0V.061l9.859-.02v1.308z"/><mask id="d" fill="#fff"><use xlink:href="#c"/></mask><path fill="#FEFEFE" mask="url(#d)" d="M18 15h1V0h-1zM40 0v15h-1.027L30.278 2.575V15H29V0h1.069L38.7 12.339V0zm27 7.51C67 3.37 70.336 0 74.37 0 77.2 0 79.754 1.652 81 4.206l-1.161.665c-1.014-2.188-3.126-3.562-5.47-3.562-3.357 0-6.08 2.768-6.08 6.18 0 3.434 2.723 6.18 6.08 6.18 2.344 0 4.456-1.351 5.47-3.54l1.161.643C79.754 13.347 77.178 15 74.37 15 70.315 15 67 11.63 67 7.51m23.306-6.203v5.529h7.773v1.307h-7.773v5.528H99V15H89V0h10v1.307zm18.034 5.581h4.632c1.603 0 2.876-1.244 2.876-2.768 0-1.545-1.273-2.79-2.876-2.79h-4.633v5.558zM116.418 15l-3.996-6.781h-4.084V15H107V0h5.972c2.327 0 4.237 1.867 4.237 4.12 0 1.932-1.405 3.562-3.27 3.992L118 15h-1.581zM54.454 0H53.12l-.016.04.926 2.2 3.145 7.31h-7.797L47 15h1.49l1.75-4.099h7.52L59.53 15H61zm82.216 7.511a6.154 6.154 0 0 0-6.18-6.18 6.168 6.168 0 0 0-6.181 6.18c0 3.433 2.832 6.18 6.18 6.18 3.39 0 6.18-2.79 6.18-6.18m-13.669 0C123 3.369 126.348 0 130.49 0c4.162 0 7.51 3.37 7.51 7.511 0 4.163-3.434 7.489-7.51 7.489-4.1 0-7.49-3.369-7.49-7.489"/></g></svg>