<svg width="80" height="43" viewBox="0 0 80 43" xmlns="http://www.w3.org/2000/svg" xmlns:xlink="http://www.w3.org/1999/xlink"><title>DW</title><defs><path id="a" d="M0 .127h15.824v19.4H0z"/><path id="c" d="M.198.127h9.078v19.324H.198z"/></defs><g fill="none" fill-rule="evenodd"><g transform="translate(0 .073)"><mask id="b" fill="#fff"><use xlink:href="#a"/></mask><path d="M12.502 9.793c-.02-1.79-.642-3.295-1.884-4.524S7.856 3.427 6.053 3.427H3.319v12.75h2.759c1.806-.016 3.329-.638 4.577-1.861 1.248-1.23 1.863-2.739 1.847-4.523m3.32-.026c.036 2.701-.892 4.987-2.781 6.866-1.885 1.88-4.198 2.826-6.941 2.84l-6.1.054V.127h6.053c2.707 0 5.006.936 6.887 2.81 1.893 1.868 2.85 4.145 2.883 6.83" fill="#FFF" mask="url(#b)"/></g><path d="M26.209 6.738c.016-.908-.29-1.674-.92-2.3-.637-.629-1.41-.939-2.326-.939h-2.118v6.45h2.09c.92 0 1.692-.305 2.317-.923.622-.62.939-1.38.957-2.288zM29.53 19.52h-3.32v-3.025c0-.928-.314-1.699-.94-2.32-.627-.617-1.402-.926-2.324-.926h-2.1v6.271h-3.323V.2h5.44c1.851 0 3.41.633 4.675 1.892C28.9 3.356 29.53 4.902 29.53 6.74c0 1.95-.737 3.578-2.21 4.881 1.473 1.3 2.21 2.925 2.21 4.879v3.02z" fill="#FFF"/><g transform="translate(31.033 .073)"><mask id="d" fill="#fff"><use xlink:href="#c"/></mask><path fill="#FFF" mask="url(#d)" d="M9.276 19.451H.198V.127h9.078V2.99H3.52v3.788h5.756v3.444H3.52v6.372h5.756z"/></g><path d="M51.83 8.996V6.72c0-.884-.316-1.644-.944-2.273a3.132 3.132 0 0 0-2.294-.946c-.896 0-1.666.318-2.302.946a3.07 3.07 0 0 0-.958 2.273v2.277h6.498zm3.37 10.528h-3.37v-7.668h-6.498v7.668h-3.324V6.74c0-1.836.632-3.384 1.909-4.648C45.187.833 46.749.2 48.606.2c1.834 0 3.396.64 4.676 1.905 1.28 1.27 1.919 2.813 1.919 4.635v12.784zm23.436 0h-4.165l-1.866-9.89-5.32 10.329L62.139 9.51l-1.964 10.013H56.04L61.088.237l6.208 12.619L73.74.274zm-53.632 4.007l-6.939 19.34-5.632-11.396L6.69 42.873.074 23.53h3.738l3.422 11.404 5.316-10.598 5.167 10.454 3.642-11.26zm10.83 8.795V30.05a3.1 3.1 0 0 0-.94-2.274 3.14 3.14 0 0 0-2.294-.948 3.17 3.17 0 0 0-2.307.948 3.078 3.078 0 0 0-.955 2.274v2.276h6.496zm3.373 10.528h-3.373v-7.67h-6.496v7.67h-3.324V30.073c0-1.843.633-3.39 1.907-4.65 1.27-1.26 2.838-1.888 4.69-1.888 1.837 0 3.398.629 4.674 1.9 1.282 1.269 1.922 2.814 1.922 4.638v12.781zm14.447-16.466H48.63v16.463h-3.32V26.388h-4.998v-2.856h13.342zM64.41 42.851h-9.086V23.532h9.086v2.856h-5.762v3.787h5.762v3.443h-5.762v6.376h5.762zm10.378-12.786c.023-.911-.282-1.675-.92-2.301-.627-.623-1.405-.939-2.325-.939h-2.118v6.45h2.096c.917 0 1.69-.307 2.31-.925.626-.614.942-1.377.957-2.285zm3.325 12.786h-3.325v-3.028c0-.924-.307-1.701-.939-2.321-.622-.617-1.396-.927-2.32-.927h-2.104v6.276h-3.32v-19.32h5.438c1.857 0 3.412.629 4.672 1.89 1.267 1.26 1.898 2.806 1.898 4.65 0 1.948-.735 3.576-2.212 4.879 1.477 1.298 2.212 2.928 2.212 4.874v3.027zm.481-41.814h-.434v.547h.422c.191 0 .406-.054.406-.29 0-.223-.215-.257-.394-.257zm.417 1.397c-.048-.076-.044-.206-.048-.292-.006-.304-.095-.377-.409-.377h-.394v.67h-.203V.852h.687c.28 0 .545.11.545.43 0 .195-.1.338-.296.383v.009c.22.06.255.19.268.394.001.105-.004.271.05.365h-.2zm-.46-2a1.19 1.19 0 0 0-1.191 1.197c0 .654.524 1.197 1.192 1.197.666 0 1.191-.543 1.191-1.197S79.218.434 78.552.434zm.003 2.58A1.387 1.387 0 0 1 77.16 1.63c0-.768.626-1.382 1.394-1.382.77 0 1.39.623 1.39 1.382a1.39 1.39 0 0 1-1.39 1.383z" fill="#FFF"/></g></svg>