<svg width="121" height="14" viewBox="0 0 121 14" xmlns="http://www.w3.org/2000/svg" xmlns:xlink="http://www.w3.org/1999/xlink"><title>Aromaria</title><defs><path id="a" d="M0 0h14v14H0z"/><path id="c" d="M67 0h14v14H67z"/><path id="e" d="M107 0h14v14h-14z"/></defs><g fill="none" fill-rule="evenodd"><path d="M19.436 7.557c1.114.135 1.876.135 2.098.135 1.022 0 2.154-1.016 2.154-3.26 0-1.515-.965-2.857-2.878-2.857-.668 0-.594 0-1.374.058v5.924zm-2.564 5.906c.465-.058.762-.096.8-.863.037-.94.037-3.22.037-5.138 0-1.995 0-4.18-.038-5.12-.037-.747-.446-.863-1.151-.92L16 1.384V1s.483.02 1.077.02c.576.018 1.245.038 1.616.038s.836-.02 1.319-.039c.483 0 .984-.019 1.41-.019 3.176 0 4.18 1.534 4.18 3.068 0 2.301-2.266 3.528-2.62 3.72 0 0 1.171 1.476 1.932 2.377 2.136 2.531 3.046 3.375 3.659 3.375H29v.383s-.594.077-1.467.077c-1.282 0-1.523-.058-1.988-.48-.965-.882-1.318-1.399-2.117-2.454-.78-1.035-1.82-2.511-1.875-2.588-.186-.25-.464-.23-.966-.268a160.81 160.81 0 0 1-1.151-.078c0 1.918.018 3.51.037 4.45.018.594.278.805.799.862l.872.096v.383l-1.002-.038c-.54 0-1.19-.02-1.56-.02-.372 0-.985.02-1.487.02l-.947.038v-.383l.724-.077zM37.452.585c-2.88 0-4.397 2.113-4.397 5.811 0 3.378 1.632 6.019 4.666 6.019 3.322 0 4.225-2.773 4.225-5.887 0-1.81-.73-5.943-4.494-5.943M37.644 13C33.938 13 31 10.321 31 6.415 31 2.944 33.727 0 37.452 0 41.907 0 44 2.793 44 6.264 44 9.774 41.58 13 37.644 13M63.116 1.463c-.489.039-.79.29-.808.887-.038.946-.038 3.24-.038 5.17 0 1.928.019 4.185.038 5.13.018.598.282.81.808.867l.884.097V14l-.996-.038c-.546 0-1.167-.02-1.542-.02-.32 0-.941.02-1.505.02L58.941 14v-.386l.734-.077c.47-.058.771-.115.809-.887.037-.945.037-3.221.037-5.15 0-1.91 0-3.934-.018-4.88l-2.52 5.17c-1.186 2.41-2.69 5.496-2.99 6.21h-.151c-.188-.386-1.58-3.337-2.858-5.94-.998-2.026-2.54-5.324-2.54-5.324v5.246c0 1.698 0 2.777.038 4.456.019.964.696 1.118 1.504 1.157l.358.019V14l-.81-.038c-.469 0-1.014-.02-1.39-.02-.376 0-.865.02-1.28.02L47.15 14v-.386l.432-.019c.565-.02 1.054-.232 1.092-1.119.075-1.987.037-3.086.037-5.072v-5.13c0-.695-.677-.83-1.335-.869 0 0-.245-.019-.376-.019V1c.413 0 .883.02 1.316.02.433.02.828.038 1.053.038.339 0 .508.02 1.26-.058 0 0 1.524 3.298 2.52 5.4 1.392 2.932 2.37 4.88 2.37 4.88s1.486-3.105 2.426-5.034C58.941 4.202 60.521 1 60.521 1c.546.058.827.058 1.485.058.189 0 .49-.019.847-.038.357 0 .771-.02 1.147-.02v.386l-.884.077zm23.32 6.094c1.114.135 1.875.135 2.098.135 1.022 0 2.155-1.016 2.155-3.26 0-1.515-.966-2.857-2.88-2.857-.668 0-.593 0-1.373.058v5.924zm-2.563 5.906c.464-.058.762-.096.799-.863.037-.94.037-3.22.037-5.138 0-1.995 0-4.18-.037-5.12-.037-.747-.446-.863-1.152-.92L83 1.384V1s.483.02 1.078.02c.575.018 1.244.038 1.615.038s.835-.02 1.318-.039c.483 0 .984-.019 1.412-.019 3.176 0 4.178 1.534 4.178 3.068 0 2.301-2.265 3.528-2.618 3.72 0 0 1.17 1.476 1.932 2.377 2.135 2.531 3.045 3.375 3.658 3.375H96v.383s-.595.077-1.467.077c-1.282 0-1.523-.058-1.987-.48-.966-.882-1.32-1.399-2.118-2.454-.78-1.035-1.82-2.511-1.875-2.588-.186-.25-.465-.23-.966-.268a160.81 160.81 0 0 1-1.151-.078c0 1.918.018 3.51.037 4.45.018.594.278.805.798.862l.873.096v.383l-1.003-.038c-.538 0-1.188-.02-1.56-.02-.371 0-.983.02-1.485.02l-.947.038v-.383l.724-.077zM106 14s-2.157-.057-3.056-.057c-.45 0-1.191.019-1.798.019L100 14v-.385l.876-.077c.562-.058.922-.116.967-.888.045-.945.045-3.221.045-5.15 0-1.91 0-4.204-.045-5.15-.045-.77-.405-.829-.967-.887L100 1.386V1s.517.02 1.146.02c.63.02 1.37.038 1.82.038.45 0 1.213-.019 1.865-.038.63 0 1.169-.02 1.169-.02v.386l-1.056.097c-.63.058-.944.27-.967.868-.045.945-.045 3.24-.045 5.168 0 1.93.023 4.186.045 5.131.023.598.338.81.967.868l1.056.097V14z" fill="#FFF" fill-rule="nonzero"/><mask id="b" fill="#fff"><use xlink:href="#a"/></mask><path d="M6.298 3.032L4.392 7.814h3.892L6.298 3.032zM14 14s-1.504-.06-2.467-.06c-.521 0-1.204.02-1.745.02l-.963.04v-.407l.421-.04c.702-.061 1.064-.163 1.064-.55 0-.325-.502-1.445-.803-2.157-.441-1.078-.982-2.421-.982-2.421s-.702-.02-2.308-.02c-1.303 0-2.085.02-2.085.02s-.702 1.668-.823 1.974c-.36.935-.762 1.912-.762 2.4 0 .448.38.693 1.063.754l.461.04V14s-.34-.02-.802-.04c-.461 0-1.023-.02-1.444-.02-.341 0-.802.02-1.164.02C.281 13.98 0 14 0 14v-.407l.421-.06c.501-.082.883-.326 1.243-1.14.382-.855 1.204-2.87 1.966-4.721C4.854 4.68 6.68.224 6.76 0h.46c.281.753 2.146 5.311 2.808 6.94 2.487 6.144 2.628 6.47 3.51 6.592l.462.061V14z" fill="#FFF" fill-rule="nonzero" mask="url(#b)"/><mask id="d" fill="#fff"><use xlink:href="#c"/></mask><path d="M73.298 3.032l-1.905 4.782h3.89l-1.985-4.782zM81 14s-1.504-.06-2.467-.06c-.521 0-1.203.02-1.745.02l-.962.04v-.407l.421-.04c.701-.061 1.063-.163 1.063-.55 0-.325-.501-1.445-.803-2.157-.44-1.078-.982-2.421-.982-2.421s-.702-.02-2.307-.02c-1.304 0-2.086.02-2.086.02s-.702 1.668-.822 1.974c-.361.935-.763 1.912-.763 2.4 0 .448.382.693 1.064.754l.461.04V14s-.341-.02-.802-.04c-.462 0-1.024-.02-1.445-.02-.34 0-.802.02-1.163.02-.381.02-.662.04-.662.04v-.407l.421-.06c.502-.082.883-.326 1.244-1.14.38-.855 1.203-2.87 1.966-4.721C71.854 4.68 73.679.224 73.759 0h.461c.282.753 2.147 5.311 2.809 6.94 2.487 6.144 2.627 6.47 3.51 6.592l.461.061V14z" fill="#FFF" fill-rule="nonzero" mask="url(#d)"/><mask id="f" fill="#fff"><use xlink:href="#e"/></mask><path d="M113.298 3.032l-1.906 4.782h3.892l-1.986-4.782zM121 14s-1.504-.06-2.467-.06c-.521 0-1.204.02-1.745.02l-.963.04v-.407l.422-.04c.701-.061 1.063-.163 1.063-.55 0-.325-.502-1.445-.803-2.157-.441-1.078-.982-2.421-.982-2.421s-.702-.02-2.307-.02c-1.304 0-2.086.02-2.086.02s-.702 1.668-.822 1.974c-.362.935-.763 1.912-.763 2.4 0 .448.382.693 1.063.754l.461.04V14s-.34-.02-.802-.04c-.461 0-1.023-.02-1.444-.02-.341 0-.802.02-1.163.02-.381.02-.662.04-.662.04v-.407l.421-.06c.501-.082.883-.326 1.243-1.14.382-.855 1.204-2.87 1.967-4.721C111.854 4.68 113.679.224 113.759 0h.461c.281.753 2.147 5.311 2.809 6.94 2.487 6.144 2.627 6.47 3.51 6.592l.461.061V14z" fill="#FFF" fill-rule="nonzero" mask="url(#f)"/></g></svg>