<svg width="97" height="51" viewBox="0 0 97 51" xmlns="http://www.w3.org/2000/svg" xmlns:xlink="http://www.w3.org/1999/xlink"><title>Alianza</title><defs><path id="a" d="M9.919 14H0V.115h9.919V14z"/><path id="c" d="M0 51h97V0H0z"/></defs><g fill="none" fill-rule="evenodd"><path d="M6.67 17.678V12.97c0-.421-.379-1.827-.67-2.827-.291 1-.67 2.406-.67 2.827v4.707h1.34zM7 12.97V18H5v-5.03c0-.675.807-3.337.842-3.45L6 9l.158.52c.035.113.842 2.775.842 3.45z" fill="#FEFEFE"/><g transform="translate(0 37)"><mask id="b" fill="#fff"><use xlink:href="#a"/></mask><path d="M3.87 3.941c0-.621.475-.932 1.196-.932.951 0 2.492.641 3.705 1.456L9.9 1.65C8.707.737 7.002.115 5.314.115 2.54.115.723 1.727.723 4.271.722 9.087 6.771 7.69 6.771 10c0 .72-.559 1.108-1.443 1.108-1.198 0-2.984-.854-4.165-2.059L0 11.825C1.378 13.165 3.377 14 5.295 14c2.558 0 4.624-1.418 4.624-4.194 0-4.894-6.05-3.613-6.05-5.865" fill="#FEFEFE" mask="url(#b)"/></g><path fill="#FEFEFE" d="M26.858 46.402L24.305 37h-3.437l-2.533 9.402L15.782 37H12l4.415 13h3.61l2.495-8.772L24.938 50h3.628L33 37h-3.609zm10.393-1.557l5.933-.02v-2.689h-5.933v-2.428h6.573V37H34v13h10v-2.708h-6.749z"/><mask id="d" fill="#fff"><use xlink:href="#c"/></mask><path fill="#FEFEFE" mask="url(#d)" d="M46 47h6v-3h-6zm15.5-2.415L57.887 37H54v13h3.167v-8.234l3.168 6.936h2.332l3.165-6.936.021 8.234H69V37h-3.886zm13.751.26l5.933-.02v-2.689h-5.933v-2.428h6.573V37H72v13h10v-2.708h-6.749zM96.615 37H92.46l-2.538 3.69L87.405 37h-4.096l4.48 6.38L83 50h4.115l2.808-4.024L92.788 50H97l-4.827-6.788zM11.586 14.597h2.689v3.357h-2.689v-3.357zm1.082-.418l.327-.344.328.344v.095h-.655v-.095zm.351-1.04l-.015.014-.048-.044c0-.02.018-.04.04-.04.02 0 .038.018.023.07zm61.847 8.078h1.78V33H77V20.857h-2.49l.001 7.102-5.404-6.788a.282.282 0 0 0-.32-.092.29.29 0 0 0-.193.276v11.07H67.44l-4.336-11.568h-1.492L57.78 32.426h-.957V25.76h-.018v-.13l-.055-.024-.002-.021a.385.385 0 0 0-.133-.302l-.061-.135-.063-.081-.012-.078-.087-.036-.007-.175-.145-.007h-.005l-.227-.263-.023-.02a.757.757 0 0 1-.03-.054l.004-.003c.024-.031.07-.088.07-.175v-.015c-.001-.332.025-.409.026-.413.068-.095.16-.317.15-.453l.158.014.056.002.057-.037c.25-.147.379-.346.383-.593.006-.369-.228-.541-.399-.668l-.053-.04c-.123-.094-.183-.156-.179-.181.025-.133-.056-.27-.128-.39a1.038 1.038 0 0 1-.052-.09 2.886 2.886 0 0 1-.053-.373c-.018-.152.042-.226.052-.238a.358.358 0 0 0 .126-.258c0-.056-.006-.194-.01-.284.139-.115.154-.186.158-.209a.75.75 0 0 0 .006-.027.305.305 0 0 0 .16-.207l.006-.044c.003-.021.007-.055.013-.079a.402.402 0 0 0 .261-.228.49.49 0 0 0 .037-.195.43.43 0 0 0 .11-.198 4.7 4.7 0 0 0 .015-.067c.296-.143.313-.25.32-.293a.286.286 0 0 0-.015-.146c.152-.2.134-.288.128-.322a.169.169 0 0 0-.095-.124c-.11-.052-.23.005-.658.253a5.01 5.01 0 0 1-.302.167c-.197.102-.367.19-.443.397l-.164.43a.292.292 0 0 0-.29-.075c-.136.039-.184.156-.208.212l-.005.012c-.106.076-.228.263-.147.449.015.037.028.073.039.105l.017.049a4.2 4.2 0 0 1-.4-.351 4.199 4.199 0 0 0-.599-.788 7.34 7.34 0 0 0-.784-.64c-.568-.415-.616-.39-.701-.345-.072.041-.135.124-.07.413a.519.519 0 0 0 0 .33c.053.187.261.345.373.419.018.079.056.2.134.286.072.078.198.159.275.204.03.116.097.307.225.381.067.04.144.073.203.097.016.1.06.236.176.294a.534.534 0 0 0 .118.042c-.023.103-.02.221.065.31a.47.47 0 0 0 .173.114c.012.094.051.203.163.245a.287.287 0 0 0 .042.011.27.27 0 0 0 .134.188c.057.03.115.035.169.023a.215.215 0 0 0 .179.068.438.438 0 0 0 .042-.005 3.768 3.768 0 0 1-.095.177.277.277 0 0 0-.202.287c.007.135.07.209.108.25a.463.463 0 0 1-.028.108c-.061.033-.197.116-.237.23l-.026.02c-.067.048-.179.13-.167.268.007.094.07.168.129.239a.649.649 0 0 1 .07.09c.032.175.138.3.288.341.04.012.028.093.028.096-.034.2.11.483.316.53a.091.091 0 0 1-.007.05.422.422 0 0 1-.073.065c-.075.059-.167.131-.196.256a.5.5 0 0 0 0 .2.53.53 0 0 0-.157.242.369.369 0 0 0-.01.18l-.075.089-.083.165a.364.364 0 0 0-.066.125.356.356 0 0 0-.007.042l-.063.136v.026l-.034.013v.14h-.004v6.666h-1.397V30.85h-5.427v-9.993h-2.682l-.01 11.526h-2.51l-5.334-13.737-.044-.114h-2.06l-4.943 13.85h-4.05V23.68h.153v-.489h-.154v-.143a.614.614 0 0 0-.404-.581v-.755l-.295-.29v-.965h-.423v.965l-.296.29v.755a.614.614 0 0 0-.404.58v.144h-.154v.489h.154v2.713h-8.396v-8.438h-.377V15.58h-.317v2.373h-.47v-3.357h.629v-.323h-.628v-.09h-.302v-.512h-.317v.602h-.334v-.226l-.354-.372v-.359a.36.36 0 0 0-.123-.525v-.527l.86-.483h.3v-.322h-.68v.167l-.48.27v-.432h.18v-.323h-.678v.323h.18v.432l-.444-.25v-.187h-.68v.322h.264l.86.483v.516a.362.362 0 0 0-.141.536v.36l-.354.371v.226h-.452v-.602h-.317v.512h-.312v.09h-.365v.323h.365v3.357h-.473V15.58h-.318v2.373h-.305v4.814h-.714v-6.013h-.552V8.548l-.42-5.884h-.318l-.291 4.12-.06-.576a1.096 1.096 0 0 0-.488-.788l-.122-1.225a.824.824 0 0 0-.288-.544l-.089-.883a.622.622 0 0 0-.198-.395l-.058-.81c-.018-.24-.145-.439-.325-.512L6.22.423C6.208.111 6.043 0 5.893 0h-.175c-.15 0-.315.111-.329.423l-.028.623c-.173.068-.307.27-.325.517l-.058.81a.622.622 0 0 0-.198.394l-.089.884a.824.824 0 0 0-.288.544L4.28 5.42c-.271.18-.455.474-.487.787l-.047.446-.282-3.99h-.318L2.74 8.386l-.014 8.369h-.575v6.013H1v9.91h.318v-9.587h1.151v-6.014h.576v-8.47l.26-3.681.258 3.634.039.15h.307v-.534L4.11 6.24a.772.772 0 0 1 .397-.582l.073-.04.14-1.392a.495.495 0 0 1 .212-.355l.061-.042.103-1.03a.297.297 0 0 1 .126-.211l.063-.044.069-.96c.01-.149.094-.24.16-.24h.152l.04-.907c.005-.078.02-.11.017-.115l.155-.006s.021.026.026.12l.033.753.032.155h.152c.042 0 .125.091.136.24l.068.96.064.044c.071.05.118.128.126.211l.103 1.03.061.042a.495.495 0 0 1 .213.355l.139 1.391.073.041c.22.122.373.345.397.583l.2 1.918v.55h.36l.267-3.784.257 3.634.004 8.517h.553v6.014h.987v.004h.362v-4.819h4.948v8.439h9.03v-3.668c0-.148.116-.277.262-.292l.143-.014v-.894l.19-.185.189.185v.894l.142.014a.295.295 0 0 1 .262.292v9.631h.034v.065h4.583l4.943-13.851h1.57l5.333 13.737.044.114h2.93v-.036h.177l.009-11.49h1.973v9.993h5.428v1.576h2.105V25.76h-.012v-.11l.059-.128v-.034c0-.002.003-.008.015-.022l.085-.168.196-.232-.064-.097c-.003-.004-.007-.01.001-.038.018-.065.094-.125.12-.14l.118-.075-.06-.128a.201.201 0 0 1-.016-.117.37.37 0 0 1 .085-.08.555.555 0 0 0 .151-.157.395.395 0 0 0 .017-.343.275.275 0 0 0-.203-.16c-.037-.014-.096-.125-.087-.18.034-.21-.067-.392-.246-.443-.014-.004-.056-.016-.072-.104a.548.548 0 0 0-.137-.231 2.103 2.103 0 0 1-.034-.042l.018-.013c.052-.037.115-.083.136-.16a.443.443 0 0 1 .112-.078c.145-.076.19-.363.164-.463-.015-.056-.05-.092-.072-.116-.016-.017-.024-.025-.027-.038l.081-.003.042-.072c.013-.023.129-.222.166-.312.064-.156-.065-.328-.106-.377l-.114-.135-.089.102-.14.01-.08-.12-.148-.038-.05-.15v-.011l-.151-.008.003-.163a.178.178 0 0 1-.1-.043c0-.032-.047-.108-.018-.16l-.011-.094-.115-.081c-.035.001-.067-.059-.12-.082a.348.348 0 0 1-.026-.132v-.111l-.104-.035c-.001-.001-.142-.05-.24-.106-.03-.024-.077-.144-.097-.247l-.014-.072-.064-.034a1.28 1.28 0 0 1-.255-.176.42.42 0 0 1-.069-.19l-.009-.078-.067-.039c-.108-.062-.27-.192-.294-.274-.023-.082-.012-.123-.008-.134l.043-.053-.018-.074c.28.186.775.553 1.033.81.339.336.592.795.594.8l.012-.007c.147.157.495.431.552.464.052.028.192.102.318-.015.082-.074.09-.195.09-.23a.248.248 0 0 0-.057-.175.594.594 0 0 1-.027-.072 2.109 2.109 0 0 0-.047-.124c-.003-.014.022-.058.04-.07a.276.276 0 0 0 .114-.147l.012-.03h.001c.013.15.14.229.166.243l.152.085.063-.165.271-.71c.034-.092.107-.172.285-.265.051-.026.115-.067.173-.1.047-.026.104-.053.149-.092.047-.041.232-.221.262-.238l.132-.017c-.014.302-.17.458-.237.487l-.103.05-.024.071c0 .002-.058.007-.076.091a.269.269 0 0 1-.07.083l.007.09-.064.086s-.022.066-.04.11c-.007.014-.01.07-.074.083-.173.032-.263.14-.277.245l-.002.014a.228.228 0 0 1-.05.025l-.023.112-.08.033s-.001.017-.008.048a.753.753 0 0 1-.11.096l-.067.049.004.084s.013.271.014.347a.08.08 0 0 1-.024.03c-.02.018-.191.18-.153.502.005.055.032.33.07.443a.949.949 0 0 0 .077.148.868.868 0 0 1 .09.173c-.036.211.119.35.295.485l.057.042c.172.127.277.215.274.413-.003.164-.107.255-.214.32l-.448-.04v.17c0 .004 0 .12.008.196 0 .04-.048.183-.089.24-.053.07-.088.197-.088.591l-.002.003a.311.311 0 0 0-.077.178c-.004.05.005.12.108.28l.058.071h.013l.463.534.08.174.025.022c.032.028.04.04.045.047a.144.144 0 0 1 .007.059l.002.209.023.01v6.966h1.566l3.83-11.569h.994l4.335 11.569h1.755v-11.24l5.917 7.431v-7.76zM78 33h8.252l4.059-11.638h2.086l4.092 11.276h-2.633V33H97l-4.355-12H90.06L86 32.638h-7.377L85.353 21h-7.22v2.6h.357v-2.238h6.24z"/></g></svg>