<svg width="85" height="27" viewBox="0 0 85 27" xmlns="http://www.w3.org/2000/svg"><title>Page 1</title><g fill="#FFF" fill-rule="evenodd"><path d="M36.249 9.186a6.345 6.345 0 0 0 .587.032c.343 0 .643-.07.9-.209.258-.14.47-.33.638-.572a2.58 2.58 0 0 0 .372-.845 4.22 4.22 0 0 0 .122-1.031c0-.344-.046-.625-.137-.846a1.338 1.338 0 0 0-.35-.515 1.145 1.145 0 0 0-.472-.25 2.07 2.07 0 0 0-.501-.064h-.172a.871.871 0 0 0-.186.016c-.048.193-.103.443-.165.75-.062.305-.128.648-.2 1.03a175.6 175.6 0 0 0-.222 1.216c-.076.43-.148.859-.214 1.288zm-.13.725c-.104.505-.202 1.01-.293 1.514l-.257 1.433c-.081.451-.153.864-.215 1.24l-.15.902a4.046 4.046 0 0 0-.537-.032h-1.202c-.177 0-.332.01-.465.032.095-.354.21-.835.343-1.441.134-.607.273-1.27.415-1.99.144-.719.289-1.462.437-2.23a135.706 135.706 0 0 0 .73-4.067c.09-.558.155-.982.193-1.272.162.022.344.04.544.056.2.016.41.025.63.025.305 0 .612-.013.923-.04.31-.027.665-.041 1.066-.041.39 0 .753.052 1.087.153.335.102.623.26.866.475.244.215.432.489.566.822.133.333.2.735.2 1.208 0 .45-.072.853-.215 1.207a2.881 2.881 0 0 1-.572.91 2.883 2.883 0 0 1-.837.613 3.52 3.52 0 0 1-1.01.314l.237.7c.1.296.212.615.336.959.124.343.255.702.394 1.079.138.375.272.73.4 1.062l.35.902c.106.269.187.467.244.596a5.09 5.09 0 0 0-.58-.032H38.51c-.181 0-.349.01-.501.032a85.621 85.621 0 0 0-.759-2.544 65.961 65.961 0 0 0-.859-2.545h-.271zM44.153 4c.449.043.96.068 1.533.072.573.006 1.13.009 1.667.009A41.362 41.362 0 0 0 50 4c-.13.28-.21.5-.24.66a2.17 2.17 0 0 0-.015.58 28.992 28.992 0 0 0-1.21-.105c-.25-.016-.546-.026-.89-.032a86.76 86.76 0 0 0-1.309-.008c-.17.645-.321 1.289-.456 1.933a77.386 77.386 0 0 0-.321 1.61h1.899c.209 0 .398-.005.568-.016.17-.01.334-.021.493-.032l.479-.032c-.14.322-.217.57-.232.74a3.521 3.521 0 0 0-.007.516 17.593 17.593 0 0 0-1.69-.12 65.466 65.466 0 0 0-1.72-.025c-.14.709-.271 1.42-.396 2.134a34.66 34.66 0 0 0-.306 2.15h1.196c.25 0 .468-.002.658-.008l.538-.016a8.69 8.69 0 0 0 .509-.032l.568-.056c-.13.322-.207.563-.232.724a1.425 1.425 0 0 0-.008.435 45.726 45.726 0 0 0-1.667-.032h-2.93c-.454 0-.88.01-1.279.032.1-.311.217-.754.352-1.328a97.823 97.823 0 0 0 .867-4.123c.144-.768.279-1.504.403-2.207.125-.703.234-1.35.33-1.94.094-.591.161-1.058.201-1.402m9.096 5.186a6.345 6.345 0 0 0 .587.032c.343 0 .643-.07.9-.209.258-.14.47-.33.638-.572a2.58 2.58 0 0 0 .372-.845 4.22 4.22 0 0 0 .122-1.031c0-.344-.046-.625-.137-.846a1.338 1.338 0 0 0-.35-.515 1.145 1.145 0 0 0-.472-.25 2.07 2.07 0 0 0-.501-.064h-.172a.871.871 0 0 0-.186.016c-.048.193-.103.443-.165.75-.062.305-.128.648-.2 1.03a175.6 175.6 0 0 0-.222 1.216c-.076.43-.148.859-.214 1.288zm-.13.725c-.104.505-.202 1.01-.293 1.514l-.257 1.433c-.081.451-.153.864-.215 1.24l-.15.902a4.046 4.046 0 0 0-.537-.032h-1.202c-.177 0-.332.01-.465.032.095-.354.21-.835.343-1.441.134-.607.273-1.27.415-1.99.144-.719.289-1.462.437-2.23a135.706 135.706 0 0 0 .73-4.067c.09-.558.155-.982.193-1.272.162.022.344.04.544.056.2.016.41.025.63.025.305 0 .612-.013.923-.04.31-.027.665-.041 1.066-.041.39 0 .753.052 1.087.153.335.102.623.26.866.475.244.215.432.489.566.822.133.333.2.735.2 1.208 0 .45-.072.853-.215 1.207a2.881 2.881 0 0 1-.572.91 2.883 2.883 0 0 1-.837.613 3.52 3.52 0 0 1-1.01.314l.237.7c.1.296.212.615.336.959.124.343.255.702.394 1.079.138.375.272.73.4 1.062l.35.902c.106.269.187.467.244.596a5.09 5.09 0 0 0-.58-.032H55.51c-.181 0-.349.01-.501.032a85.621 85.621 0 0 0-.759-2.544 65.961 65.961 0 0 0-.859-2.545h-.271zM33.083 23.055c-.084.517-.167 1.031-.248 1.545.4 0 .792-.007 1.178-.021.386-.013.77-.048 1.152-.102a1.869 1.869 0 0 0-.052.277c-.006.068-.006.15 0 .246a9.588 9.588 0 0 0-.457-.01h-2.16c-.21 0-.374.003-.496.01.11-.472.226-1.021.348-1.647.122-.627.24-1.261.357-1.905A109.175 109.175 0 0 0 33.27 18a34.006 34.006 0 0 0 1.53.041h.313A9.128 9.128 0 0 0 36 18c-.035.116-.058.21-.07.282a1.415 1.415 0 0 0-.008.282 3.676 3.676 0 0 0-.444-.067 9.16 9.16 0 0 0-.539-.035 30.73 30.73 0 0 0-1-.02 84.187 84.187 0 0 0-.296 1.472l-.225 1.195h1.034a7.05 7.05 0 0 0 .544-.02 11.302 11.302 0 0 0 .465-.04 3.5 3.5 0 0 0-.065.261.97.97 0 0 0-.013.261 6.037 6.037 0 0 0-.613-.05 18.25 18.25 0 0 0-.613-.01h-.809a83.652 83.652 0 0 0-.265 1.544m4.293-2.204c.057-.097.134-.196.228-.294.095-.098.203-.189.323-.273a1.65 1.65 0 0 1 .404-.205c.15-.053.304-.079.465-.079.155 0 .304.026.447.08a1.115 1.115 0 0 1 .654.63c.069.157.103.34.103.551a2.244 2.244 0 0 1-.03.41c-.014.09-.035.206-.06.346l-.108.567-.094.531c-.04.227-.08.465-.12.714-.041.249-.078.483-.113.704-.034.22-.054.376-.06.467a1 1 0 0 0-.15-.01h-.375a1.36 1.36 0 0 0-.18.01 2.72 2.72 0 0 0 .094-.346 28.139 28.139 0 0 0 .28-1.323c.048-.26.093-.51.133-.752.04-.242.074-.464.1-.667.025-.203.038-.364.038-.483 0-.161-.025-.3-.073-.415a.812.812 0 0 0-.465-.462.871.871 0 0 0-.314-.058 1.232 1.232 0 0 0-.632.205c-.123.08-.24.194-.353.341a1.64 1.64 0 0 0-.262.578 6.09 6.09 0 0 0-.112.478 41.08 41.08 0 0 0-.357 2.058 194.893 194.893 0 0 1-.125.846.955.955 0 0 0-.146-.01h-.357c-.06 0-.113.003-.159.01.04-.14.087-.345.142-.614.054-.27.11-.566.168-.888a191.041 191.041 0 0 0 .344-1.996 48.589 48.589 0 0 0 .215-1.449c.086.028.19.042.31.042a1.241 1.241 0 0 0 .326-.042l-.163.777.034.021zm5.982-.554a1.248 1.248 0 0 0-.849.354 2.068 2.068 0 0 0-.4.542c-.121.23-.216.522-.283.877a20.581 20.581 0 0 0 1.247.04h.294c.153 0 .315 0 .486-.005.172-.003.318-.015.44-.035a2.465 2.465 0 0 0 .055-.553c0-.226-.029-.417-.086-.574a1.05 1.05 0 0 0-.23-.38.837.837 0 0 0-.316-.204 1.071 1.071 0 0 0-.358-.062zm.963 4.283c-.226.15-.466.258-.72.323a3.132 3.132 0 0 1-.776.097c-.195 0-.4-.03-.614-.087a1.445 1.445 0 0 1-.592-.328 1.793 1.793 0 0 1-.445-.646c-.116-.27-.174-.61-.174-1.02 0-.402.056-.781.17-1.136.113-.355.274-.665.481-.928.208-.262.457-.47.748-.625.29-.153.61-.23.959-.23.22 0 .428.03.624.087.195.058.37.154.522.287.153.133.274.307.363.523.089.214.133.476.133.784 0 .19-.013.354-.037.491s-.046.25-.064.338a21.434 21.434 0 0 1-.349-.02 11.295 11.295 0 0 0-.307-.016l-.316-.01a13.82 13.82 0 0 0-.376-.005h-.964c-.147 0-.293.004-.44.01a7.75 7.75 0 0 1-.385.01 3.686 3.686 0 0 0-.046.594c0 .336.046.605.137.81.092.205.203.366.335.482.132.116.275.194.431.235a1.692 1.692 0 0 0 .908 0 2.4 2.4 0 0 0 .386-.143c.113-.055.21-.115.293-.18l.207-.158h.028l-.12.461zm3.327-3.743a.673.673 0 0 0-.21-.03c-.222 0-.44.102-.652.308-.213.205-.374.517-.481.935a1.688 1.688 0 0 0-.062.241 42.262 42.262 0 0 0-.338 1.726 27.373 27.373 0 0 0-.162.983 1.184 1.184 0 0 0-.162-.01h-.396A1.53 1.53 0 0 0 45 25c.038-.119.085-.302.143-.549a63.524 63.524 0 0 0 .376-1.804c.067-.342.127-.673.18-.994.055-.32.104-.618.149-.894.044-.275.076-.503.095-.685a1.731 1.731 0 0 0 .372.042c.139 0 .257-.014.352-.042a9.75 9.75 0 0 0-.124.46c-.025.104-.05.215-.072.33-.022.114-.04.228-.052.34h.047a37.9 37.9 0 0 0 .31-.43c.105-.146.216-.277.333-.391.118-.116.25-.21.396-.283.146-.073.311-.106.495-.1a8.068 8.068 0 0 0-.071.456c-.016.129-.024.26-.024.392l-.086.052a2.562 2.562 0 0 0-.171-.063m1.814.996c0 .176.027.326.081.448a.786.786 0 0 0 .495.45 1.1 1.1 0 0 0 .308.046c.231 0 .428-.056.592-.17.163-.113.296-.252.399-.415.102-.164.176-.339.221-.525a2.14 2.14 0 0 0 .067-.495c0-.284-.073-.505-.221-.662-.148-.157-.356-.236-.625-.236-.244 0-.449.055-.616.165-.166.11-.302.246-.408.407-.106.16-.181.33-.226.51a2 2 0 0 0-.067.477zm-.914 3.892c0 .176.032.327.096.454a.816.816 0 0 0 .265.306c.112.079.238.137.38.175.14.038.288.057.442.057.288 0 .54-.046.755-.137.214-.092.394-.208.538-.35a1.399 1.399 0 0 0 .428-.987c0-.189-.043-.333-.13-.434a.723.723 0 0 0-.327-.218 1.555 1.555 0 0 0-.427-.075c-.154-.006-.296-.01-.424-.01s-.295.007-.5.02c-.205.011-.39.075-.558.188a1.144 1.144 0 0 0-.519.799c-.012.084-.02.156-.02.212zm.865-2.881a6.962 6.962 0 0 1-.173-.09.944.944 0 0 1-.23-.18 1.08 1.08 0 0 1-.202-.307 1.165 1.165 0 0 1-.087-.482 1.673 1.673 0 0 1 .539-1.223 2.11 2.11 0 0 1 .658-.406c.26-.104.563-.156.909-.156.16 0 .287.01.38.028.093.02.21.048.351.085.09.025.168.04.235.043a5.536 5.536 0 0 0 .467 0c.083-.003.17-.008.26-.015l.26-.014c.083-.003.156-.004.22-.004a.468.468 0 0 1-.01.094.536.536 0 0 0 0 .208c.007.032.01.063.01.094l-.543-.028-.37-.018c.05.069.108.162.173.278.064.117.096.282.096.496 0 .132-.018.271-.053.416a1.64 1.64 0 0 1-.168.42 2.032 2.032 0 0 1-.289.387 1.665 1.665 0 0 1-.413.317c-.225.12-.459.194-.702.222a5.43 5.43 0 0 1-1.154.024c-.026.019-.06.042-.106.07a.667.667 0 0 0-.24.25.392.392 0 0 0-.048.199c0 .094.022.169.067.222a.357.357 0 0 0 .173.114c.07.021.148.036.231.042.083.006.163.01.24.01.27 0 .499.001.688.004.189.003.35.013.48.029.132.015.246.037.342.066.096.028.19.067.279.118.09.056.162.12.216.189.055.07.098.136.13.203a.692.692 0 0 1 .063.208 1.4 1.4 0 0 1 .014.193c0 .183-.044.393-.13.628a2.05 2.05 0 0 1-.418.672 2.34 2.34 0 0 1-.765.533c-.317.145-.706.217-1.168.217-.224 0-.442-.023-.654-.07a1.37 1.37 0 0 1-.557-.26 1.047 1.047 0 0 1-.303-.388 1.262 1.262 0 0 1 .053-1.133c.108-.196.256-.35.442-.463a1.14 1.14 0 0 1 .293-.142c.086-.025.156-.047.207-.066l.01-.066a.757.757 0 0 1-.145-.043.748.748 0 0 1-.173-.094.559.559 0 0 1-.149-.16.462.462 0 0 1-.062-.251c0-.145.028-.27.086-.378a.897.897 0 0 1 .216-.27c.087-.072.178-.133.275-.183.096-.051.18-.092.25-.123v-.066zm6.235.11c.147-.233.29-.467.426-.704a404.538 404.538 0 0 1 .84-1.44 6.913 6.913 0 0 0 .297-.58l.103-.23c.102.025.221.038.358.038.136 0 .246-.013.328-.038-.376.555-.759 1.126-1.147 1.714a78.65 78.65 0 0 0-1.148 1.781c-.376.6-.74 1.194-1.091 1.782A34.21 34.21 0 0 0 53.646 27a1.08 1.08 0 0 0-.328-.038c-.137 0-.243.013-.318.038a234.627 234.627 0 0 0 1.68-2.5 221.176 221.176 0 0 0-1.24-4.5 2.448 2.448 0 0 0 .43.038c.165 0 .298-.013.4-.038.083.44.199.97.349 1.59.15.619.335 1.305.553 2.058h.051c.137-.23.279-.46.425-.694m9.81-4.113a2.168 2.168 0 0 0-.368-.238 2.519 2.519 0 0 0-.51-.195 2.58 2.58 0 0 0-.675-.08c-.497 0-.94.104-1.331.31-.39.205-.72.48-.99.826a3.764 3.764 0 0 0-.616 1.195 4.678 4.678 0 0 0-.214 1.413c0 .399.05.76.147 1.086.098.325.246.602.443.831.199.23.448.407.746.533.299.126.65.189 1.052.189.237 0 .47-.02.701-.06.23-.04.459-.106.683-.199a17.055 17.055 0 0 0 .187-.9 32.915 32.915 0 0 0 .195-1.211c.089.027.21.04.364.04.083 0 .148-.003.195-.01a.994.994 0 0 0 .142-.03 47.03 47.03 0 0 0-.235 1.081c-.044.216-.084.431-.12.647-.035.216-.062.41-.08.582-.301.113-.63.2-.985.26-.355.059-.73.089-1.127.089-.62 0-1.123-.085-1.504-.254-.382-.17-.691-.4-.928-.692a2.545 2.545 0 0 1-.488-.986A4.34 4.34 0 0 1 60 21.993c0-.53.087-1.039.262-1.524a3.64 3.64 0 0 1 .777-1.274 3.733 3.733 0 0 1 1.269-.87c.502-.217 1.082-.325 1.74-.325.49 0 .888.045 1.193.134.305.09.557.175.759.255l-.302.667a3.61 3.61 0 0 0-.24-.215m4.19 1.996a.673.673 0 0 0-.21-.03c-.222 0-.44.102-.652.308-.213.205-.374.517-.481.935a1.688 1.688 0 0 0-.062.241 42.262 42.262 0 0 0-.338 1.726 27.373 27.373 0 0 0-.162.983 1.184 1.184 0 0 0-.162-.01h-.396A1.53 1.53 0 0 0 67 25c.038-.119.085-.302.143-.549a63.524 63.524 0 0 0 .376-1.804c.067-.342.127-.673.18-.994.055-.32.104-.618.149-.894.044-.275.076-.503.095-.685a1.731 1.731 0 0 0 .372.042c.139 0 .257-.014.352-.042a9.75 9.75 0 0 0-.124.46c-.025.104-.05.215-.072.33-.022.114-.04.228-.052.34h.047a37.9 37.9 0 0 0 .31-.43c.105-.146.216-.277.333-.391.118-.116.25-.21.396-.283.146-.073.311-.106.495-.1a8.068 8.068 0 0 0-.071.456c-.016.129-.024.26-.024.392l-.086.052a2.562 2.562 0 0 0-.171-.063m1.155 2.387c0 .429.1.783.3 1.062.2.28.53.418.99.418.387 0 .712-.103.976-.311.265-.208.482-.461.651-.76.17-.3.291-.616.366-.95.074-.333.111-.625.111-.877 0-.21-.028-.406-.086-.587a1.303 1.303 0 0 0-.26-.469 1.194 1.194 0 0 0-.426-.311 1.424 1.424 0 0 0-.58-.112c-.365 0-.679.098-.94.295-.26.197-.472.441-.635.73a3.401 3.401 0 0 0-.355.939 4.33 4.33 0 0 0-.112.933M70 22.98c0-.368.066-.728.198-1.082.132-.354.32-.672.564-.954.244-.283.542-.51.895-.684.352-.174.745-.26 1.179-.26.4 0 .738.056 1.016.168.277.113.502.26.671.444.169.184.291.395.366.633.074.238.111.486.111.745 0 .374-.067.743-.203 1.107a3.11 3.11 0 0 1-.579.974 2.74 2.74 0 0 1-.904.679c-.353.166-.75.25-1.19.25-.42 0-.767-.061-1.042-.184a1.687 1.687 0 0 1-.986-1.148A2.67 2.67 0 0 1 70 22.98m7.627 1.19a2.261 2.261 0 0 1-.241.306c-.093.1-.2.19-.318.27a1.48 1.48 0 0 1-.394.187 1.633 1.633 0 0 1-.912.005.986.986 0 0 1-.381-.213 1.151 1.151 0 0 1-.381-.887c0-.131.024-.331.072-.601a123.627 123.627 0 0 1 .263-1.427c.03-.169.062-.358.093-.565l.093-.638c.031-.218.055-.42.072-.607.09.027.215.041.373.041.147 0 .269-.014.364-.041-.056.263-.123.567-.199.913a45.707 45.707 0 0 0-.39 1.976 4.342 4.342 0 0 0-.072.648c0 .332.072.581.216.748.144.166.347.249.606.249.164 0 .314-.033.45-.1.135-.065.257-.153.364-.264.107-.11.198-.238.271-.384.074-.145.133-.297.178-.456a7.8 7.8 0 0 0 .11-.508 35.056 35.056 0 0 0 .234-1.38l.101-.67a47.45 47.45 0 0 0 .115-.772A1.455 1.455 0 0 0 79 20c-.028.11-.066.282-.114.513-.048.233-.102.495-.16.79a38.7 38.7 0 0 0-.18.943 78.623 78.623 0 0 0-.313 1.919 12.32 12.32 0 0 0-.089.721c-.05-.007-.1-.01-.148-.01h-.336a1 1 0 0 0-.152.01l.152-.674-.034-.042zm3.823-1.115c0 .26.037.47.109.634.072.164.162.293.27.388.108.095.225.16.352.194.126.035.24.052.342.052.324 0 .599-.098.824-.293.225-.196.407-.43.545-.705.138-.275.239-.56.302-.856.063-.296.095-.545.095-.747a1.69 1.69 0 0 0-.1-.62 1.178 1.178 0 0 0-.256-.407.929.929 0 0 0-.352-.222 1.18 1.18 0 0 0-.383-.066c-.24 0-.45.055-.63.165-.18.11-.335.251-.464.421-.13.17-.236.36-.32.568a4.852 4.852 0 0 0-.302 1.14c-.02.16-.031.279-.031.354zm-.18.654l-.315 1.688c-.108.576-.207 1.111-.297 1.603a.961.961 0 0 0-.306-.038c-.132 0-.25.012-.352.038.079-.353.16-.746.243-1.178.084-.431.172-.873.262-1.324.09-.45.18-.91.27-1.376.09-.467.177-.911.261-1.334.054-.284.104-.567.149-.851.045-.284.094-.568.149-.851a1.729 1.729 0 0 0 .518.028c.063-.007.118-.016.166-.028a8.444 8.444 0 0 0-.171.823 2.86 2.86 0 0 1 .23-.29 1.961 1.961 0 0 1 .788-.524c.169-.064.36-.095.577-.095.126 0 .28.02.459.057.18.038.352.118.514.24.162.124.3.3.414.526.114.227.171.53.171.908 0 .354-.055.705-.167 1.055-.11.35-.269.663-.472.941a2.38 2.38 0 0 1-.744.667c-.291.167-.62.25-.986.25a1.99 1.99 0 0 1-.428-.046 1.474 1.474 0 0 1-.392-.148.962.962 0 0 1-.315-.283 1.226 1.226 0 0 1-.198-.458h-.028zM25.752 25a.254.254 0 0 1-.189-.083C6.695 3.827 1.999 1.902.881 2.633c-.643.42-1.108 2.447 3.013 11.305 2.379 5.112 5.163 10.047 5.19 10.096a.23.23 0 0 1-.1.32.254.254 0 0 1-.336-.095C7.495 22.219-2.523 4.28.6 2.242 1.434 1.7 3.969.048 25.94 24.61a.23.23 0 0 1-.028.333.254.254 0 0 1-.161.057"/><path d="M8.96 24a.246.246 0 0 1-.218-.128C7.674 21.886-1.597 4.402 1.71 2.227c1.138-.75 3.457.351 7.093 3.364 4.065 3.367 9.83 9.184 17.138 17.288a.231.231 0 0 1-.024.334.252.252 0 0 1-.346-.023C8.69 4.468 3.43 1.67 1.985 2.62-.51 4.26 6.33 18.36 9.177 23.654a.233.233 0 0 1-.104.32.254.254 0 0 1-.113.026"/><path d="M9.09 24a.243.243 0 0 1-.217-.133c-.024-.048-2.405-4.818-4.339-9.809C1.861 7.158 1.31 3.298 2.848 2.26 5.31.6 12.864 6.889 25.939 21.493a.241.241 0 0 1-.36.32C9.749 4.134 4.627 1.638 3.119 2.658c-2.65 1.79 3.567 15.761 6.186 20.994A.24.24 0 0 1 9.09 24"/><path d="M9.472 24a.25.25 0 0 1-.224-.14C8.873 23.088.108 4.88 3.989 2.309 6.65.543 14.155 6.354 26.935 20.067a.242.242 0 0 1-.015.344.252.252 0 0 1-.351-.015C11.11 3.81 5.909 1.623 4.267 2.713c-2.93 1.94 2.926 15.772 5.43 20.938a.243.243 0 0 1-.118.325.255.255 0 0 1-.107.024"/><path d="M9.616 22a.244.244 0 0 1-.223-.139C9.052 21.132 1.09 3.979 5.152 1.345c2.739-1.775 9.864 3.294 21.781 15.5a.231.231 0 0 1-.01.335.25.25 0 0 1-.345-.01C12.176 2.419 7.124.636 5.424 1.738c-3.089 2.002 2.14 15.065 4.414 19.93a.233.233 0 0 1-.122.312.257.257 0 0 1-.1.021"/><path d="M9.792 22a.24.24 0 0 1-.22-.146C9.263 21.136 2.1 4.222 6.335 1.404c2.806-1.865 9.542 2.717 20.596 14.007a.24.24 0 1 1-.344.334C13.24 2.114 8.353.639 6.603 1.803c-3.907 2.6 3.336 19.692 3.41 19.864a.239.239 0 0 1-.221.334"/><path d="M10.196 22a.246.246 0 0 1-.23-.153C9.68 21.14 3.01 4.48 7.62 1.472c2.988-1.95 9.63 2.13 20.307 12.473a.24.24 0 0 1 .003.343.249.249 0 0 1-.349.002C14.701 1.815 9.765.654 7.892 1.876c-1.744 1.137-1.87 4.899-.364 10.877 1.154 4.586 2.88 8.872 2.897 8.915a.241.241 0 0 1-.138.315.256.256 0 0 1-.091.017"/><path d="M10.426 21a.241.241 0 0 1-.227-.153C9.947 20.183 4.09 4.56 8.872 1.504 11.852-.4 18.264 3.096 27.924 11.9a.229.229 0 0 1 .01.33.247.247 0 0 1-.341.01C21.078 6.304 12.587-.31 9.139 1.895c-4.465 2.853 1.453 18.631 1.514 18.79a.232.232 0 0 1-.144.3.248.248 0 0 1-.083.015"/><path d="M10.841 21a.248.248 0 0 1-.235-.161c-.228-.652-5.523-16-.338-19.25 3.142-1.971 9.417 1.014 18.65 8.87a.229.229 0 0 1 .019.334.256.256 0 0 1-.35.019C19.543 3.116 13.47.146 10.54 1.984c-4.87 3.052.481 18.549.536 18.705a.235.235 0 0 1-.157.3.269.269 0 0 1-.079.011"/><path d="M11.156 21a.242.242 0 0 1-.232-.17c-.193-.64-4.649-15.693.695-19.145 3.135-2.023 8.953.44 17.294 7.328a.237.237 0 0 1 .03.336.246.246 0 0 1-.34.03C20.444 2.642 14.82.187 11.885 2.083c-5.045 3.258-.543 18.457-.497 18.61a.238.238 0 0 1-.232.306"/><path d="M11.615 20a.246.246 0 0 1-.24-.18c-.01-.038-1.008-3.858-1.295-8.07-.39-5.718.65-9.402 3.088-10.95 3.257-2.067 8.888-.124 16.736 5.777a.234.234 0 0 1 .044.336.253.253 0 0 1-.347.043C21.938 1.194 16.5-.741 13.44 1.201c-5.477 3.476-1.625 18.35-1.585 18.5a.239.239 0 0 1-.179.291.246.246 0 0 1-.061.008"/><path d="M12.066 20a.24.24 0 0 1-.234-.19 46.352 46.352 0 0 1-.83-7.92c-.064-5.628 1.164-9.314 3.652-10.953 3.181-2.096 8.31-.672 15.245 4.233a.24.24 0 0 1-.277.393C22.865.783 17.917-.639 14.918 1.338 9.296 5.043 12.27 19.564 12.3 19.711a.24.24 0 0 1-.235.289"/></g></svg>