<svg width="52" height="26" viewBox="0 0 52 26" xmlns="http://www.w3.org/2000/svg" xmlns:xlink="http://www.w3.org/1999/xlink"><title>Page 1</title><defs><path id="a" d="M.95 2.429H0V.198h.95z"/><path id="c" d="M.11 1.943h1.471V.008H.111v1.935z"/><path id="e" d="M0 25h52V0H0z"/></defs><g fill="none" fill-rule="evenodd"><path d="M11.374 1.62c-.478-.614-1.288-.922-2.429-.922H6.24v7.656h2.347c1.196 0 2.07-.307 2.623-.921.552-.616.828-1.575.828-2.879 0-1.36-.221-2.337-.663-2.934zM15.515 19c-.773 0-1.445-.13-2.014-.391-1.069-.503-1.74-1.416-2.016-2.738l-.083-1.202a24.767 24.767 0 0 0-.249-2.375c-.11-.689-.303-1.276-.58-1.76-.589-.987-1.555-1.481-2.898-1.481H6.239v8.913h2.733v.699H0v-.699h2.733V.698H0V0h9.718c2.043 0 3.561.335 4.555 1.006 1.03.652 1.546 1.732 1.546 3.24 0 1.23-.479 2.218-1.436 2.963-.976.764-2.438 1.295-4.389 1.592 2.3.485 3.754 1.332 4.362 2.543.313.615.538 1.285.676 2.012.138.727.217 1.509.235 2.347l.028 1.37c.11.428.331.725.662.893.166.094.46.14.883.14.295 0 .681-.028 1.16-.084v.643c-.92.223-1.749.335-2.485.335zm17.535-6.342c-.075 2.033-.772 3.593-2.09 4.682-1.32 1.107-2.99 1.66-5.016 1.66-2.582 0-4.708-.889-6.38-2.667C17.854 14.554 17 12.322 17 9.636c0-2.649.864-4.917 2.592-6.805C21.319.944 23.39 0 25.805 0c.966 0 1.83.136 2.591.408.78.272 1.421.609 1.923 1.007L31.46.272h.641v5.254h-.808c-.539-1.851-1.291-3.112-2.257-3.784C28.052 1.035 27.04.68 26 .68c-1.765 0-3.019.545-3.761 1.634-.762 1.107-1.143 2.759-1.143 4.954v3.702c0 2.541.325 4.401.975 5.58.65 1.18 1.886 1.77 3.706 1.77.984 0 1.774-.254 2.369-.762.631-.508.947-1.398.947-2.668v-2.232H26.28v-.68H35v.68h-1.95zM49.632.695L43.014 19h-.856L35.368.695H33V0h9.044v.695h-2.939l4.85 13.02L48.777.695h-2.968V0H52v.695z" fill="#FEFEFE"/><g transform="translate(0 23)"><mask id="b" fill="#fff"><use xlink:href="#a"/></mask><path d="M.159 1.931a.4.4 0 0 0 .134.172c.054.037.11.056.168.056a.24.24 0 0 0 .098-.023.279.279 0 0 0 .092-.067.359.359 0 0 0 .067-.111.41.41 0 0 0 .027-.153.29.29 0 0 0-.053-.187.436.436 0 0 0-.13-.108 1.956 1.956 0 0 0-.169-.084.563.563 0 0 1-.299-.306.85.85 0 0 1-.052-.33c0-.06.01-.126.028-.196A.621.621 0 0 1 .155.402a.507.507 0 0 1 .15-.146.4.4 0 0 1 .22-.058.54.54 0 0 1 .224.048.424.424 0 0 1 .187.194L.779.654A.329.329 0 0 0 .676.519a.24.24 0 0 0-.15-.051.261.261 0 0 0-.135.031.255.255 0 0 0-.085.081.333.333 0 0 0-.045.107.476.476 0 0 0-.013.104c0 .09.017.16.052.207a.419.419 0 0 0 .13.117c.051.03.107.057.169.082a.594.594 0 0 1 .169.1c.051.043.095.1.13.174a.715.715 0 0 1 .052.301.904.904 0 0 1-.04.276.647.647 0 0 1-.105.207.464.464 0 0 1-.157.129.43.43 0 0 1-.193.045A.498.498 0 0 1 0 2.135l.159-.204z" fill="#FEFEFE" mask="url(#b)"/></g><path d="M3 24.758a.716.716 0 0 0 .526-.223.722.722 0 0 0 .146-.24.84.84 0 0 0 .051-.295.84.84 0 0 0-.05-.294.708.708 0 0 0-.672-.464.708.708 0 0 0-.527.223.723.723 0 0 0-.146.24.84.84 0 0 0-.052.295.84.84 0 0 0 .052.295.712.712 0 0 0 .672.464M3 25a1.04 1.04 0 0 1-.404-.076.942.942 0 0 1-.522-.529A1.042 1.042 0 0 1 2 24c0-.142.025-.273.074-.395a.941.941 0 0 1 .522-.528A1.04 1.04 0 0 1 3 23c.146 0 .28.025.404.077a.94.94 0 0 1 .521.528c.05.122.075.253.075.395 0 .142-.025.273-.075.395a.94.94 0 0 1-.522.528A1.04 1.04 0 0 1 3 25m2-2h.228v1.746H6V25H5z" fill="#FEFEFE"/><g transform="translate(7 23)"><mask id="d" fill="#fff"><use xlink:href="#c"/></mask><path d="M.368.008v1.156c0 .06.008.12.024.183a.537.537 0 0 0 .08.175.442.442 0 0 0 .148.13.458.458 0 0 0 .226.051.468.468 0 0 0 .225-.05.439.439 0 0 0 .148-.131.524.524 0 0 0 .08-.175.739.739 0 0 0 .024-.183V.008h.258v1.197c0 .11-.019.21-.056.3a.683.683 0 0 1-.39.385.771.771 0 0 1-.29.053.771.771 0 0 1-.289-.053.687.687 0 0 1-.39-.386.767.767 0 0 1-.056-.3V.009h.258z" fill="#FEFEFE" mask="url(#d)"/></g><path d="M11.7 23.46a.628.628 0 0 0-.241-.162.925.925 0 0 0-.644.004.74.74 0 0 0-.492.714.714.714 0 0 0 .484.683c.103.04.22.06.351.06a.796.796 0 0 0 .339-.068.7.7 0 0 0 .247-.188l.256.164a.875.875 0 0 1-.256.195 1.258 1.258 0 0 1-.592.138c-.177 0-.337-.029-.48-.086a1.176 1.176 0 0 1-.363-.226.982.982 0 0 1-.23-.316.866.866 0 0 1-.079-.356.967.967 0 0 1 .325-.73c.102-.09.224-.16.368-.21a1.426 1.426 0 0 1 .91-.003.81.81 0 0 1 .35.223l-.254.164z" fill="#FEFEFE"/><mask id="f" fill="#fff"><use xlink:href="#e"/></mask><path fill="#FEFEFE" mask="url(#f)" d="M12 25h.529v-2H12zm3-.242a.713.713 0 0 0 .526-.223.722.722 0 0 0 .146-.24.835.835 0 0 0 .052-.295.834.834 0 0 0-.052-.294.704.704 0 0 0-.672-.464.709.709 0 0 0-.526.223.723.723 0 0 0-.146.24.84.84 0 0 0-.052.295.84.84 0 0 0 .052.295.714.714 0 0 0 .672.464M15 25a1.04 1.04 0 0 1-.404-.076.942.942 0 0 1-.521-.529A1.038 1.038 0 0 1 14 24c0-.142.025-.273.075-.395a.941.941 0 0 1 .522-.528A1.04 1.04 0 0 1 15 23c.146 0 .281.025.404.077a.94.94 0 0 1 .522.528c.05.122.074.253.074.395 0 .142-.025.273-.074.395a.94.94 0 0 1-.522.528A1.041 1.041 0 0 1 15 25m2-2h.41l1.27 1.644h.007V23H19v2h-.398l-1.283-1.644h-.006V25H17zm2 0h.962v.254h-.76v.596h.708v.254h-.708v.642H20V25h-1zm3.167 1.554c.037.07.084.121.141.154a.35.35 0 0 0 .177.05.291.291 0 0 0 .2-.08.315.315 0 0 0 .099-.237c0-.073-.019-.13-.055-.168a.45.45 0 0 0-.137-.097 2.165 2.165 0 0 0-.178-.075.657.657 0 0 1-.178-.101.507.507 0 0 1-.136-.173.661.661 0 0 1-.056-.295c0-.055.01-.114.03-.177a.518.518 0 0 1 .247-.303.478.478 0 0 1 .232-.052.65.65 0 0 1 .235.043c.075.029.14.087.197.175l-.165.19a.306.306 0 0 0-.108-.12.282.282 0 0 0-.16-.046.314.314 0 0 0-.14.028.256.256 0 0 0-.138.168.36.36 0 0 0-.013.094c0 .08.018.143.054.186a.426.426 0 0 0 .137.105c.055.027.114.05.178.072a.664.664 0 0 1 .178.09c.055.039.1.09.137.156a.558.558 0 0 1 .055.27.696.696 0 0 1-.042.247.554.554 0 0 1-.11.186.48.48 0 0 1-.166.116.518.518 0 0 1-.203.04.604.604 0 0 1-.273-.064.479.479 0 0 1-.206-.2l.167-.182zM25 23h.962v.254h-.76v.596h.707v.254h-.707v.642H26V25h-1zm2.167 1.554c.037.07.084.121.141.154a.34.34 0 0 0 .177.05.294.294 0 0 0 .271-.18.317.317 0 0 0 .028-.137c0-.073-.019-.13-.055-.168a.45.45 0 0 0-.137-.097 2.191 2.191 0 0 0-.178-.075.658.658 0 0 1-.178-.101.507.507 0 0 1-.136-.173.659.659 0 0 1-.056-.295c0-.055.01-.114.029-.177a.503.503 0 0 1 .248-.302.477.477 0 0 1 .232-.053.65.65 0 0 1 .235.043c.075.029.14.087.197.175l-.165.19a.305.305 0 0 0-.108-.12.282.282 0 0 0-.16-.046.314.314 0 0 0-.14.028.255.255 0 0 0-.138.168.36.36 0 0 0-.013.094c0 .08.018.143.055.186a.425.425 0 0 0 .136.105c.055.027.114.05.178.072a.661.661 0 0 1 .178.09c.055.039.1.09.137.156a.556.556 0 0 1 .055.27.696.696 0 0 1-.042.247.551.551 0 0 1-.11.186.477.477 0 0 1-.166.116.519.519 0 0 1-.203.04.604.604 0 0 1-.273-.064.48.48 0 0 1-.206-.2l.167-.182zm2.659-1.3H29V23h2v.254h-.826V25h-.348zm2.365.627h.25a.485.485 0 0 0 .11-.013.238.238 0 0 0 .098-.046.23.23 0 0 0 .069-.098.441.441 0 0 0 .026-.165.446.446 0 0 0-.026-.165.236.236 0 0 0-.069-.098.25.25 0 0 0-.097-.046.472.472 0 0 0-.11-.013h-.251v.644zM32 23h.495a.43.43 0 0 1 .223.052c.058.035.104.08.138.133a.526.526 0 0 1 .07.18c.014.068.02.132.02.194a.708.708 0 0 1-.023.185.593.593 0 0 1-.07.161.449.449 0 0 1-.109.122.305.305 0 0 1-.144.06L33 25h-.238l-.358-.881h-.213V25H32v-2zm3.379 1.269l-.376-.919h-.006l-.382.919h.764zM34.889 23h.248L36 25h-.32l-.201-.494h-.96l-.2.494H34l.889-2zm1.937.254H36V23h2v.254h-.826V25h-.348zM39.533 23h.27l-.315.484h-.174l.219-.484zm-.533.619h.962v.302h-.76v.71h.707v.303h-.707v.763H40V26h-1v-2.381zm4 .268v.939a1.05 1.05 0 0 1-.183.074 2.029 2.029 0 0 1-.434.09c-.075.007-.146.01-.212.01-.185 0-.35-.027-.496-.08a1.113 1.113 0 0 1-.368-.218A.932.932 0 0 1 41 24c0-.142.028-.273.085-.395a.98.98 0 0 1 .235-.317c.1-.09.22-.16.36-.211a1.33 1.33 0 0 1 .46-.077c.203 0 .367.022.495.066a.93.93 0 0 1 .322.182l-.21.196a.8.8 0 0 0-.288-.158c-.1-.03-.207-.044-.319-.044a.906.906 0 0 0-.34.06.817.817 0 0 0-.26.163.706.706 0 0 0-.166.24.747.747 0 0 0 .006.595.74.74 0 0 0 .18.24.836.836 0 0 0 .268.16.954.954 0 0 0 .337.058c.105 0 .205-.008.298-.025a.928.928 0 0 0 .24-.074v-.53h-.485v-.242H43zM44 25h.529v-2H44zm2.7-1.54a.628.628 0 0 0-.241-.162.925.925 0 0 0-.644.004.744.744 0 0 0-.492.714.718.718 0 0 0 .484.683c.103.04.22.06.351.06a.796.796 0 0 0 .339-.068.7.7 0 0 0 .247-.188l.256.164a.875.875 0 0 1-.256.195 1.258 1.258 0 0 1-.592.138c-.177 0-.337-.029-.48-.086a1.176 1.176 0 0 1-.363-.226.982.982 0 0 1-.23-.316.866.866 0 0 1-.079-.356.964.964 0 0 1 .325-.73c.102-.09.224-.16.368-.21a1.426 1.426 0 0 1 .91-.003.81.81 0 0 1 .35.223l-.254.164zm1.68.809l-.377-.919h-.006l-.382.919h.764zM47.888 23h.248L49 25h-.32l-.201-.494h-.96l-.2.494H47l.889-2zm2.279 1.554c.037.07.084.121.141.154a.35.35 0 0 0 .177.05.294.294 0 0 0 .271-.18.317.317 0 0 0 .028-.137c0-.073-.019-.13-.055-.168a.45.45 0 0 0-.137-.097 2.186 2.186 0 0 0-.178-.075.656.656 0 0 1-.178-.101.51.51 0 0 1-.136-.173.661.661 0 0 1-.056-.295c0-.055.01-.114.03-.177a.521.521 0 0 1 .247-.303.478.478 0 0 1 .232-.052.65.65 0 0 1 .235.043c.075.029.14.087.197.175l-.165.19a.305.305 0 0 0-.108-.12.282.282 0 0 0-.16-.046.314.314 0 0 0-.14.028.255.255 0 0 0-.138.168.36.36 0 0 0-.013.094c0 .08.018.143.054.186a.426.426 0 0 0 .137.105c.055.027.114.05.178.072a.664.664 0 0 1 .178.09c.055.039.1.09.137.156a.558.558 0 0 1 .055.27.696.696 0 0 1-.042.247.551.551 0 0 1-.11.186.48.48 0 0 1-.166.116.518.518 0 0 1-.203.04.604.604 0 0 1-.273-.064.48.48 0 0 1-.206-.2l.167-.182zM0 21.81h52V21H0z"/></g></svg>