<svg width="114" height="28" viewBox="0 0 114 28" xmlns="http://www.w3.org/2000/svg" xmlns:xlink="http://www.w3.org/1999/xlink"><title>Neulift</title><defs><path id="a" d="M.031.115h7.593v16.144H.03z"/><path id="c" d="M0 .102h13.696v22.017H0z"/></defs><g fill="none" fill-rule="evenodd"><path d="M50.9 4.752V22.01c-.442.076-1.322.126-1.659.126-.336 0-1.113-.025-1.657-.1l-5.517-10.619a90.075 90.075 0 0 1-1.632-3.522l-.104.025c.104 1.749.233 4.308.233 6.209v7.906a8.074 8.074 0 0 1-2.564 0V4.752c.44-.076 1.295-.127 1.632-.127.362 0 1.114.026 1.658.102l5.465 10.618c.647 1.318 1.217 2.636 1.71 3.674l.103-.025c-.13-2.027-.207-4.637-.207-6.386v-6.31c0-1.191.362-1.673 1.476-1.673h.907l.155.127zm5.911 9.758h5.122v-.33c0-1.767-.71-3.232-2.536-3.232-1.622 0-2.459 1.338-2.586 3.561zm0 1.893c.102 2.096.787 3.612 2.942 3.612 1.267 0 2.459-.404 3.524-.96.43.404.735 1.137.836 1.667-1.217.859-2.991 1.414-4.766 1.414-4.006 0-5.223-3.132-5.223-6.541 0-3.763 1.775-6.592 5.299-6.592 3.27 0 5.02 2.4 5.02 5.405 0 .808-.05 1.288-.178 1.995h-7.454zm11.307-4.023c0-.86-.106-1.646-.45-2.211.397-.32 1.058-.54 1.719-.54 1.058 0 1.454.54 1.454 1.597v6.266c0 1.647.344 2.36 1.64 2.36 1.031 0 2.353-.566 3.306-1.5V9.776c.37-.05.872-.099 1.374-.099.477 0 .979.05 1.375.099v8.699c0 .958.16 1.843.741 2.334-.158.467-.582 1.033-1.031 1.279-1.164-.197-1.878-.86-2.222-1.77-1.163 1.032-2.723 1.818-4.416 1.818-2.46 0-3.49-1.769-3.49-4.03v-5.725zm18.036 7.769c.12.343.218.81.218 1.276 0 .172-.025.368-.073.54-.555.098-1.4.171-2.052.171-1.57 0-2.39-.834-2.39-2.527V4.148l.17-.148h.94c1.039 0 1.353.491 1.353 1.62v13.424c0 .736.29 1.105.94 1.105h.894zM90.498 4.93c.285-.178.831-.305 1.306-.305.428 0 1.045.127 1.306.304.143.304.214.784.214 1.139 0 .354-.071.81-.214 1.113-.237.203-.878.33-1.306.33-.475 0-1.044-.127-1.306-.33-.142-.304-.213-.759-.213-1.113 0-.38.071-.835.213-1.139zm2.968 17.105c-.332.076-.783.101-1.21.101-.452 0-.903-.025-1.235-.1v-9.262c0-.911-.261-1.316-1.045-1.316h-.261a4.223 4.223 0 0 1-.119-.937c0-.303.048-.607.119-.961a12.649 12.649 0 0 1 1.495-.101h.333c1.187 0 1.923.86 1.923 2.252v10.324zm5.476-10.248l-2.15.048a4.107 4.107 0 0 1-.101-.951c0-.318.025-.61.1-.928l2.026.025c-.075-.757-.15-1.49-.15-2.173 0-2.173 1.4-3.808 3.852-3.808 1.125 0 2.426.269 3.201.561 0 .587-.225 1.319-.6 1.71-.65-.196-1.45-.367-2.151-.367-1.15 0-1.85.732-1.85 2.05 0 .635.074 1.343.174 2.05l3.527-.048c.075.317.1.61.1.928a4.1 4.1 0 0 1-.1.951l-3.352-.048v10.252c-.4.073-.85.097-1.275.097-.4 0-.876-.024-1.25-.097V11.787z" fill="#FFF"/><g transform="translate(106.365 5.876)"><mask id="b" fill="#fff"><use xlink:href="#a"/></mask><path d="M7.624 4.827c0 .347-.025.644-.124.967l-3.042-.05v7.415c0 .67.272 1.091 1.015 1.091h1.706c.123.347.198.844.198 1.29 0 .173 0 .372-.05.546-.816.098-1.78.173-2.77.173-1.681 0-2.597-.843-2.597-2.554V5.769l-1.83.025a4.12 4.12 0 0 1-.099-.967c0-.322.025-.595.1-.943l1.83.05V1.752c0-1.14.296-1.637 1.36-1.637h.964l.173.174v3.67L7.5 3.884c.1.348.124.62.124.943" fill="#FFF" mask="url(#b)"/></g><path d="M28.787 13.826c-.3-1.073-.865-2.016-1.533-2.892-.562-.771-1.236-1.495-1.844-2.237-.447-.545-.961-.982-1.454-1.484a31.76 31.76 0 0 0-1.099-1.077A573.63 573.63 0 0 0 19.58 3.13c-.501-.457-1.014-.901-1.522-1.35a4.454 4.454 0 0 0-.037.025c.032.06.06.122.096.18.731 1.217 1.268 2.523 1.741 3.854.545 1.532 1.01 3.09 1.305 4.691.243 1.31.457 2.628.627 3.95.16 1.231.162 2.474.084 3.715-.084 1.34-.323 2.646-.864 3.883-.456 1.044-1.114 1.926-2.101 2.527a7.422 7.422 0 0 1-2.718.994c-.983.158-1.945.101-2.881-.209-1.908-.631-3.03-1.953-3.348-3.936-.054-.335-.045-.68-.066-1.038.555.143 1.048.28 1.547.396.753.176 1.518.262 2.28.093.835-.185 1.004-.566.956-1.196a9.12 9.12 0 0 1-.014-1.183c.02-.35.18-.633.53-.778.108-.044.212-.107.306-.177.26-.195.282-.451.087-.705-.078-.1-.123-.227-.192-.358.154-.056.282-.097.405-.148.257-.104.422-.261.458-.57.027-.234-.104-.346-.205-.512-.368-.604-.138-1.216.513-1.477.366-.147.727-.311 1.078-.49.37-.187.41-.347.168-.689a9.93 9.93 0 0 0-.698-.865c-.658-.736-.956-1.617-1.077-2.575-.023-.181.039-.243.222-.223.41.046.762-.094 1.063-.367.057-.05.09-.127.179-.255-.51.098-.957.313-1.363-.014.967-2.883.99-5.662-.655-8.322 0 .411.007.802 0 1.193-.03 1.545-.29 3.045-.888 4.479-.605 1.451-1.485 2.71-2.688 3.727-1.592 1.346-2.675 2.993-3.038 5.066-.213 1.221-.19 2.438.188 3.632.009.03.001.063.001.162-1.164-1.561-1.562-3.178-.83-4.987a.524.524 0 0 0-.127.16c-.288.63-.621 1.243-.85 1.894a11.2 11.2 0 0 0-.5 5.67c.194 1.143.593 2.212 1.278 3.153.934 1.284 2.142 2.263 3.515 3.047 1.43.817 2.945 1.011 4.531.583 1.329-.358 2.516-1.019 3.634-1.798 2.163-1.508 4.147-3.23 6.044-5.055 1.044-1.005 2.002-2.086 2.684-3.377.628-1.187.71-2.439.35-3.723" fill="#FFF"/><g transform="translate(0 .651)"><mask id="d" fill="#fff"><use xlink:href="#c"/></mask><path d="M5.375 13.718c.484-1.128 1.2-2.097 2.016-2.992 1.312-1.44 2.714-2.792 3.903-4.347 1.155-1.51 2.041-3.151 2.304-5.084.052-.388.066-.781.098-1.172a34.521 34.521 0 0 0-.07-.021c-.395.31-.793.618-1.185.933l-1.856 1.484-.02-.013c-.319.274-.644.54-.967.81-.31.25-.62.498-.93.75-.891.729-1.78 1.463-2.651 2.218-.945.79-2.022 1.718-3.001 2.746l-.536.506c-.258.246-.46.515-.606.81C.252 12.426-.686 14.79.607 17.16c.286.524 1.762 2.041 2.998 3.283.296.33.6.653.918.965.232.228.472.447.752.712-.014-.099-.015-.129-.022-.157a16.77 16.77 0 0 1-.586-3.354c-.056-.8.013-1.609.056-2.412.046-.87.312-1.687.652-2.478" fill="#FFF" mask="url(#d)"/></g></g></svg>