<?xml version="1.0" encoding="UTF-8"?>
<svg width="85px" height="27px" viewBox="0 0 85 27" version="1.1" xmlns="http://www.w3.org/2000/svg" xmlns:xlink="http://www.w3.org/1999/xlink">
    <!-- Generator: Sketch 50.2 (55047) - http://www.bohemiancoding.com/sketch -->
    <title>Page 1</title>
    <desc>Created with Sketch.</desc>
    <defs></defs>
    <g id="Page-1" stroke="none" stroke-width="1" fill="none" fill-rule="evenodd">
        <g id="RER-Energy-Group" transform="translate(-152.000000, -103.000000)" fill="#FFFFFF">
            <g id="Page-1" transform="translate(152.000000, 103.000000)">
                <path d="M36.2487356,9.18601979 C36.3532989,9.19671262 36.4560436,9.20497526 36.5565153,9.21032167 C36.6565324,9.21566808 36.7497301,9.21809827 36.8356538,9.21809827 C37.1788941,9.21809827 37.4793999,9.14859491 37.7367165,9.00910216 C37.9944877,8.8696094 38.2067966,8.67908271 38.3736432,8.43703606 C38.5409445,8.19547543 38.6646019,7.9135737 38.7459794,7.5918169 C38.8269023,7.26957405 38.8678184,6.92594556 38.8678184,6.56093142 C38.8678184,6.21730293 38.8223561,5.93588724 38.7314315,5.71522623 C38.6409615,5.49553729 38.5241234,5.32348003 38.3809172,5.20002651 C38.237711,5.07657299 38.0804114,4.99346059 37.908564,4.95020325 C37.7367165,4.90743195 37.5698699,4.88604631 37.4080241,4.88604631 L37.2361766,4.88604631 C37.1593453,4.88604631 37.0975166,4.89139272 37.0502358,4.90208554 C37.0020458,5.09504242 36.947491,5.34486568 36.8852077,5.65106928 C36.823379,5.95678685 36.7565494,6.30041534 36.6851736,6.68195475 C36.6137978,7.06300813 36.5396943,7.46836338 36.4633176,7.89753446 C36.386941,8.32719159 36.3151105,8.75684871 36.2487356,9.18601979 Z M36.1196227,9.91070166 C36.0146048,10.4156946 35.9173155,10.9202015 35.8263909,11.4247084 C35.7359209,11.9297013 35.6499972,12.4069901 35.5686197,12.8580329 C35.4876968,13.3090756 35.4158663,13.7222075 35.3540376,14.0984005 C35.2922089,14.4741075 35.2422004,14.7749647 35.204012,15 C35.0417117,14.9781283 34.8625902,14.9679215 34.6671023,14.9679215 L34.0592715,14.9679215 L33.4650793,14.9679215 C33.2882309,14.9679215 33.1332045,14.9781283 33,15 C33.0950162,14.6456787 33.2095812,14.1654737 33.3432403,13.5588989 C33.4768995,12.9523241 33.6155595,12.289369 33.7583111,11.5695475 C33.9015173,10.8502121 34.0469966,10.1070608 34.1947491,9.3391216 C34.3429562,8.57166843 34.4784338,7.84115412 34.6030005,7.14903676 C34.726658,6.45643337 34.833949,5.83090315 34.9248736,5.27244609 C35.0153435,4.71447508 35.0799,4.29016437 35.1180883,4 C35.2803887,4.02187169 35.4617833,4.04034111 35.6618174,4.05638035 C35.8623061,4.07241958 36.0718873,4.08068222 36.2914701,4.08068222 C36.5969768,4.08068222 36.9043019,4.06755921 37.2148093,4.04034111 C37.5244076,4.01360905 37.8799227,4 38.2809002,4 C38.6718759,4 39.0342104,4.05151997 39.3683582,4.1531018 C39.7025061,4.25516967 39.9907371,4.41361789 40.234415,4.62844645 C40.4776382,4.84327501 40.6658521,5.1169141 40.7995113,5.44984977 C40.9331704,5.78278544 41,6.18522446 41,6.65765288 C41,7.10869565 40.9281696,7.51113468 40.785418,7.86545599 C40.6422117,8.21977731 40.4512701,8.52306469 40.2130477,8.77531813 C39.9743706,9.02757158 39.6952321,9.23170732 39.3756322,9.38772534 C39.0560323,9.54325733 38.7196113,9.64775539 38.3668239,9.70170555 C38.4241064,9.87327678 38.5027562,10.1070608 38.6027732,10.4020855 C38.7027902,10.6975963 38.8150821,11.0169229 38.9391942,11.3605514 C39.0628516,11.7041799 39.1942377,12.0633616 39.3328977,12.4395546 C39.4706484,12.8152616 39.6047622,13.1695829 39.7334205,13.5020325 C39.8620788,13.8354542 39.9789169,14.1358254 40.0839348,14.4041181 C40.1889527,14.6728968 40.2703302,14.8712001 40.327158,15 C40.1362164,14.9781283 39.9430016,14.9679215 39.7475138,14.9679215 L39.1678695,14.9679215 L38.5100301,14.9679215 C38.3286356,14.9679215 38.1613343,14.9781283 38.0090356,15 C37.7703586,14.1518646 37.5175882,13.3037292 37.2502699,12.4555938 C36.9834063,11.6074585 36.6969938,10.7593231 36.3914872,9.91070166 L36.1196227,9.91070166 Z" id="Fill-1"></path>
                <path d="M44.1531885,4 C44.6015913,4.04325733 45.1126945,4.06755921 45.686023,4.07241958 C46.2588766,4.07825203 46.8151051,4.08068222 47.3532835,4.08068222 C47.8715117,4.08068222 48.3574397,4.07241958 48.8110676,4.05638035 C49.2646954,4.04034111 49.6608479,4.02187169 50,4 C49.8703242,4.27947154 49.7905237,4.49916048 49.7605985,4.66052492 C49.7306733,4.82140332 49.7254483,5.01484624 49.7453984,5.24036762 C49.5458972,5.21898197 49.356846,5.20002651 49.1772949,5.18398727 C48.9977437,5.16794804 48.7835174,5.1519088 48.5346158,5.13538353 C48.2852393,5.11934429 47.9888374,5.10865147 47.6449353,5.10330505 C47.3005581,5.09795864 46.8645054,5.09504242 46.3363021,5.09504242 C46.166726,5.7395281 46.0147251,6.38352775 45.8802993,7.02801343 C45.7458734,7.67201308 45.6385227,8.20908448 45.5587222,8.63825557 L46.7699798,8.63825557 L47.4577841,8.63825557 C47.6667854,8.63825557 47.8563116,8.63339519 48.0258877,8.62221633 C48.1954637,8.61200954 48.3598147,8.60083068 48.5194157,8.59013786 C48.6785417,8.57944503 48.8381427,8.56875221 48.9977437,8.55805938 C48.8580929,8.88030223 48.7811424,9.12720926 48.7659423,9.29878049 C48.7512172,9.47083775 48.7483672,9.64240898 48.7588172,9.81398021 C48.240114,9.74982326 47.6767605,9.70948215 47.0692317,9.69344291 C46.4607529,9.67740368 45.8878993,9.66914104 45.3497209,9.66914104 C45.2095951,10.3777837 45.0775442,11.0893425 44.9530935,11.8033316 C44.8281677,12.5173206 44.726517,13.2342259 44.6467165,13.9530753 L45.842774,13.9530753 C46.0921506,13.9530753 46.3111269,13.9506451 46.5006531,13.9448127 C46.6901793,13.9399523 46.8692554,13.9346059 47.0393065,13.9287734 C47.2084076,13.923427 47.3779836,13.9127342 47.5475597,13.897181 C47.7166607,13.8811417 47.9061869,13.8621863 48.1156632,13.8408006 C47.9859874,14.1625574 47.9085619,14.4041181 47.8838618,14.5654825 C47.8586866,14.7263609 47.8563116,14.8712001 47.8762617,15 C47.278233,14.9781283 46.7224795,14.9679215 46.2094763,14.9679215 L44.7664173,14.9679215 L43.278708,14.9679215 C42.8246052,14.9679215 42.3985275,14.9781283 42,15 C42.0997506,14.688936 42.2166014,14.2461559 42.3515022,13.6716596 C42.485928,13.0971633 42.6279539,12.458024 42.7775799,11.7547278 C42.9272058,11.0519176 43.0739817,10.3160569 43.2188576,9.54860375 C43.3627835,8.78066455 43.4976844,8.04528986 43.6221351,7.34199364 C43.7470609,6.63869742 43.8563116,5.99178155 43.9513122,5.40124602 C44.0458378,4.8107105 44.1132882,4.34411453 44.1531885,4" id="Fill-3"></path>
                <path d="M53.2487356,9.18601979 C53.3532989,9.19671262 53.4560436,9.20497526 53.5565153,9.21032167 C53.6565324,9.21566808 53.7497301,9.21809827 53.8356538,9.21809827 C54.1788941,9.21809827 54.4793999,9.14859491 54.7367165,9.00910216 C54.9944877,8.8696094 55.2067966,8.67908271 55.3736432,8.43703606 C55.5409445,8.19547543 55.6646019,7.9135737 55.7459794,7.5918169 C55.8269023,7.26957405 55.8678184,6.92594556 55.8678184,6.56093142 C55.8678184,6.21730293 55.8223561,5.93588724 55.7314315,5.71522623 C55.6409615,5.49553729 55.5241234,5.32348003 55.3809172,5.20002651 C55.237711,5.07657299 55.0804114,4.99346059 54.908564,4.95020325 C54.7367165,4.90743195 54.5698699,4.88604631 54.4080241,4.88604631 L54.2361766,4.88604631 C54.1593453,4.88604631 54.0975166,4.89139272 54.0502358,4.90208554 C54.0020458,5.09504242 53.947491,5.34486568 53.8852077,5.65106928 C53.823379,5.95678685 53.7565494,6.30041534 53.6851736,6.68195475 C53.6137978,7.06300813 53.5396943,7.46836338 53.4633176,7.89753446 C53.386941,8.32719159 53.3151105,8.75684871 53.2487356,9.18601979 Z M53.1196227,9.91070166 C53.0146048,10.4156946 52.9173155,10.9202015 52.8263909,11.4247084 C52.7359209,11.9297013 52.6499972,12.4069901 52.5686197,12.8580329 C52.4876968,13.3090756 52.4158663,13.7222075 52.3540376,14.0984005 C52.2922089,14.4741075 52.2422004,14.7749647 52.204012,15 C52.0417117,14.9781283 51.8625902,14.9679215 51.6671023,14.9679215 L51.0592715,14.9679215 L50.4650793,14.9679215 C50.2882309,14.9679215 50.1332045,14.9781283 50,15 C50.0950162,14.6456787 50.2095812,14.1654737 50.3432403,13.5588989 C50.4768995,12.9523241 50.6155595,12.289369 50.7583111,11.5695475 C50.9015173,10.8502121 51.0469966,10.1070608 51.1947491,9.3391216 C51.3429562,8.57166843 51.4784338,7.84115412 51.6030005,7.14903676 C51.726658,6.45643337 51.833949,5.83090315 51.9248736,5.27244609 C52.0153435,4.71447508 52.0799,4.29016437 52.1180883,4 C52.2803887,4.02187169 52.4617833,4.04034111 52.6618174,4.05638035 C52.8623061,4.07241958 53.0718873,4.08068222 53.2914701,4.08068222 C53.5969768,4.08068222 53.9043019,4.06755921 54.2148093,4.04034111 C54.5244076,4.01360905 54.8799227,4 55.2809002,4 C55.6718759,4 56.0342104,4.05151997 56.3683582,4.1531018 C56.7025061,4.25516967 56.9907371,4.41361789 57.234415,4.62844645 C57.4776382,4.84327501 57.6658521,5.1169141 57.7995113,5.44984977 C57.9331704,5.78278544 58,6.18522446 58,6.65765288 C58,7.10869565 57.9281696,7.51113468 57.785418,7.86545599 C57.6422117,8.21977731 57.4512701,8.52306469 57.2130477,8.77531813 C56.9743706,9.02757158 56.6952321,9.23170732 56.3756322,9.38772534 C56.0560323,9.54325733 55.7196113,9.64775539 55.3668239,9.70170555 C55.4241064,9.87327678 55.5027562,10.1070608 55.6027732,10.4020855 C55.7027902,10.6975963 55.8150821,11.0169229 55.9391942,11.3605514 C56.0628516,11.7041799 56.1942377,12.0633616 56.3328977,12.4395546 C56.4706484,12.8152616 56.6047622,13.1695829 56.7334205,13.5020325 C56.8620788,13.8354542 56.9789169,14.1358254 57.0839348,14.4041181 C57.1889527,14.6728968 57.2703302,14.8712001 57.327158,15 C57.1362164,14.9781283 56.9430016,14.9679215 56.7475138,14.9679215 L56.1678695,14.9679215 L55.5100301,14.9679215 C55.3286356,14.9679215 55.1613343,14.9781283 55.0090356,15 C54.7703586,14.1518646 54.5175882,13.3037292 54.2502699,12.4555938 C53.9834063,11.6074585 53.6969938,10.7593231 53.3914872,9.91070166 L53.1196227,9.91070166 Z" id="Fill-5"></path>
                <path d="M33.0827366,23.0549241 C32.9985678,23.571832 32.9161617,24.086269 32.8350777,24.5997176 C33.2347692,24.5997176 33.6274099,24.5927992 34.0129999,24.5789622 C34.3985898,24.5656195 34.7824171,24.5310272 35.165363,24.4766678 C35.1362785,24.5927992 35.1186515,24.68521 35.1129228,24.7539005 C35.107194,24.8220967 35.107194,24.9041299 35.1129228,25 C34.9679409,24.9930815 34.8159083,24.9896223 34.6563843,24.9896223 L34.1826595,24.9896223 L33.7305277,24.9896223 L33.339209,24.9896223 L32.4957585,24.9896223 C32.2868789,24.9896223 32.1220668,24.9930815 32,25 C32.1101686,24.5275679 32.2260659,23.9785387 32.3481326,23.3529121 C32.4697587,22.7262972 32.5883001,22.0917755 32.7046381,21.4483586 C32.8205354,20.8054359 32.9276193,20.1827744 33.0263303,19.5803742 C33.1246006,18.9784681 33.2056847,18.4516767 33.2695825,18 C33.5480886,18.0138369 33.8230693,18.0237204 34.0958466,18.0306389 C34.3681833,18.0375574 34.6030627,18.0410166 34.8000441,18.0410166 L35.1129228,18.0410166 C35.2288201,18.0410166 35.3407513,18.0395341 35.4478352,18.0355807 C35.554919,18.0321214 35.6562741,18.0271797 35.7523411,18.0202612 C35.8479674,18.0138369 35.9303735,18.0064243 36,18 C35.9651867,18.1161313 35.941831,18.2100247 35.9303735,18.2821744 C35.9189159,18.3538299 35.9158312,18.4482174 35.92156,18.5643487 C35.7999339,18.5366749 35.652308,18.514437 35.4782417,18.4971408 C35.3046161,18.4803389 35.1243803,18.4684786 34.9392971,18.4615602 C34.7537733,18.4546417 34.5722155,18.4497 34.3955051,18.4462407 C34.2187948,18.4427815 34.0667621,18.441299 33.9389666,18.441299 C33.8230693,18.99527 33.7247989,19.4864808 33.6432742,19.914437 C33.5621902,20.341899 33.4868349,20.7402047 33.417649,21.109354 L34.4523521,21.109354 C34.5272667,21.109354 34.6131982,21.1083657 34.7088245,21.1049065 C34.8044508,21.1014472 34.9000771,21.0960113 34.9957034,21.0890928 C35.0913297,21.0826685 35.1794646,21.0757501 35.2609893,21.0683375 C35.3420734,21.0619132 35.4086152,21.0549947 35.4606147,21.0480762 C35.4319709,21.1503706 35.4099372,21.2378397 35.3958356,21.3099894 C35.3812934,21.3816449 35.3768866,21.469114 35.3826154,21.5714084 C35.1794646,21.5442287 34.9754324,21.5269326 34.7696375,21.5205083 C34.5638427,21.5135898 34.3593698,21.5101306 34.1566597,21.5101306 L33.3480225,21.5101306 C33.2550402,22.0230851 33.1664647,22.5380162 33.0827366,23.0549241" id="Fill-7"></path>
                <path d="M37.3763488,20.8511176 C37.4334605,20.7535147 37.5097548,20.6549004 37.6043597,20.5572975 C37.6989646,20.4591888 37.8066485,20.3681602 37.9269755,20.2842116 C38.0473025,20.1997573 38.1820163,20.1314858 38.3311172,20.0793972 C38.480218,20.0262972 38.6349864,20 38.7958583,20 C38.9506267,20 39.0997275,20.0262972 39.2431608,20.0793972 C39.386158,20.1314858 39.5138965,20.2103773 39.6259401,20.3150602 C39.7379837,20.4202488 39.8282289,20.5517346 39.8971117,20.7095175 C39.9655586,20.8667948 40,21.0508749 40,21.2612521 C40,21.330535 39.9986921,21.3937494 39.9956403,21.4498837 C39.9925886,21.506018 39.9843052,21.5793466 39.9699183,21.6703752 C39.9555313,21.7619096 39.9354768,21.8767068 39.9097548,22.0172954 C39.8840327,22.1573784 39.8478474,22.3465156 39.8020708,22.5842015 C39.7794005,22.7106301 39.7475749,22.8871245 39.7079019,23.1152018 C39.6673569,23.3422676 39.627248,23.5804592 39.587139,23.8292708 C39.54703,24.0775766 39.5099728,24.3122282 39.4750954,24.5327197 C39.4410899,24.7532113 39.4205995,24.9089714 39.4153678,25 C39.3691553,24.99292 39.3190191,24.9898857 39.2645232,24.9898857 L39.0883924,24.9898857 L38.8904632,24.9898857 C38.8215804,24.9898857 38.7614169,24.99292 38.7099728,25 C38.7326431,24.9443714 38.7644687,24.8285628 38.8041417,24.6535855 C38.8446866,24.4786083 38.8891553,24.278851 38.9379837,24.0548195 C38.986376,23.8307879 39.0352044,23.5890563 39.0840327,23.3301305 C39.1324251,23.0712046 39.1768937,22.8208759 39.2174387,22.5791443 C39.2571117,22.3374128 39.2906812,22.1154041 39.3164033,21.9121068 C39.3421253,21.7088095 39.3552044,21.5479923 39.3552044,21.4291494 C39.3552044,21.2678264 39.3303542,21.1297664 39.2819619,21.0139577 C39.2331335,20.8986548 39.1686104,20.8020633 39.0883924,20.7251947 C39.0077384,20.6483261 38.9174932,20.5901689 38.8172207,20.5517346 C38.7169482,20.5133003 38.6118801,20.4940831 38.5033243,20.4940831 C38.4344414,20.4940831 38.3424523,20.5082431 38.2282289,20.5360574 C38.1131335,20.5643775 37.9941144,20.6184889 37.8711717,20.6988975 C37.7477929,20.7793062 37.6300817,20.8930919 37.5184741,21.0402549 C37.4064305,21.1874178 37.3192371,21.3800951 37.2560218,21.6182866 C37.2215804,21.7371296 37.1840872,21.8959239 37.1439782,22.0956812 C37.1038692,22.2954385 37.0624523,22.51239 37.0192916,22.7470416 C36.9765668,22.9816931 36.9347139,23.2214018 36.8946049,23.4666734 C36.8544959,23.711945 36.8187466,23.9410337 36.786921,24.1544452 C36.7555313,24.3683625 36.7285014,24.5519369 36.7053951,24.7061798 C36.6822888,24.8604228 36.6679019,24.9580257 36.6622343,25 C36.6164578,24.99292 36.5680654,24.9898857 36.5161853,24.9898857 L36.3439782,24.9898857 L36.1591281,24.9898857 C36.0989646,24.9898857 36.0457766,24.99292 36,25 C36.040109,24.8604228 36.0871935,24.6551027 36.1416894,24.3855568 C36.1961853,24.1160109 36.2524251,23.8201679 36.3095368,23.4980277 C36.3670845,23.1763932 36.4259401,22.8421159 36.4861035,22.4951957 C36.546267,22.1482755 36.6020708,21.8175382 36.653951,21.502478 C36.7053951,21.1874178 36.7498638,20.9021948 36.786921,20.6463032 C36.8244142,20.3909174 36.8514441,20.1926773 36.8688828,20.0531 C36.9547684,20.0809143 37.0580926,20.0950743 37.1784196,20.0950743 C37.2302997,20.0950743 37.2847956,20.0915343 37.3419074,20.0839486 C37.399455,20.07788 37.453951,20.0667543 37.5053951,20.0531 L37.3419074,20.8303833 L37.3763488,20.8511176 Z" id="Fill-9"></path>
                <path d="M43.3577822,20.2969613 C43.2354992,20.2969613 43.0992677,20.3226125 42.9495525,20.3739148 C42.7993723,20.425217 42.6529118,20.5174625 42.509241,20.6506511 C42.3655701,20.7838398 42.2325933,20.9648777 42.1098454,21.1932715 C41.9875625,21.4226519 41.8931768,21.7146803 41.8257585,22.06985 C42.0149948,22.0831689 42.2232942,22.0940213 42.4492619,22.1004341 C42.6756945,22.1073402 42.883529,22.1107932 43.0732303,22.1107932 L43.3670813,22.1107932 C43.5200511,22.1107932 43.6818552,22.1093133 43.8529583,22.105367 C44.0245263,22.101914 44.1714518,22.090075 44.2937347,22.06985 C44.3058235,22.0081886 44.3179124,21.9346882 44.3304661,21.8493489 C44.3425549,21.7640095 44.3485993,21.6530189 44.3485993,21.5163773 C44.3485993,21.2909432 44.3193072,21.1000395 44.2616529,20.9426796 C44.2030687,20.7853197 44.1268162,20.6590371 44.0319656,20.5633386 C43.937115,20.4681334 43.8320353,20.3995659 43.7157968,20.3586227 C43.5995583,20.3176796 43.4800651,20.2969613 43.3577822,20.2969613 Z M44.321167,24.5802092 C44.0947344,24.7301697 43.8548181,24.8377072 43.6009532,24.9028216 C43.3470882,24.9674428 43.0885738,25 42.8254097,25 C42.630129,25 42.4250843,24.9708958 42.2112054,24.9126875 C41.9968616,24.8549724 41.799721,24.745955 41.6193188,24.5846488 C41.4389167,24.4243291 41.2905963,24.2097474 41.1743578,23.9394238 C41.0581193,23.6695935 41,23.3297159 41,22.9197908 C41,22.5172652 41.0562594,22.1379242 41.1697082,21.7827545 C41.2826921,21.4275848 41.4435662,21.1182912 41.6514007,20.855367 C41.8592352,20.5929361 42.1084505,20.3842739 42.3990468,20.230367 C42.6896431,20.0769534 43.0090666,20 43.3577822,20 C43.5781704,20 43.7860049,20.0291042 43.9817506,20.0868193 C44.1774962,20.1450276 44.351854,20.2407261 44.5043589,20.3739148 C44.6573288,20.5071034 44.7782169,20.6812352 44.8670231,20.8968035 C44.9558294,21.1113852 45,21.3733228 45,21.6806433 C45,21.871547 44.9874462,22.0353197 44.9632686,22.1724546 C44.9386261,22.308603 44.9172382,22.4215667 44.899105,22.5098658 C44.7707776,22.503453 44.6545391,22.496547 44.5503894,22.4896409 C44.4462397,22.4832281 44.3439498,22.4778019 44.2430547,22.4743489 C44.1421597,22.4708958 44.0366151,22.4674428 43.926886,22.464483 C43.8166919,22.46103 43.6911542,22.4590568 43.5507381,22.4590568 L42.8714402,22.4590568 L42.5873532,22.4590568 C42.4404278,22.4590568 42.2935023,22.4625099 42.1470417,22.4689227 C42.0001162,22.476322 41.8717889,22.4797751 41.7615948,22.4797751 C41.749041,22.547356 41.738812,22.6297356 41.729513,22.7254341 C41.7202139,22.8211326 41.7155643,22.9375493 41.7155643,23.0736977 C41.7155643,23.4086425 41.7615948,23.6779795 41.8531907,23.8831886 C41.9447867,24.0883978 42.0563757,24.2487174 42.1879577,24.3646409 C42.3195397,24.4805643 42.4632105,24.5594909 42.6194351,24.6004341 C42.7751947,24.6413773 42.9174706,24.6620955 43.045798,24.6620955 C43.2229455,24.6620955 43.3838196,24.6413773 43.5274904,24.6004341 C43.6711612,24.5594909 43.7994886,24.5116417 43.9129373,24.4568863 C44.0259212,24.402131 44.1235615,24.3424428 44.2063234,24.2773283 C44.2890852,24.2127072 44.3578984,24.159925 44.412763,24.1189818 L44.4406602,24.1189818 L44.321167,24.5802092 Z" id="Fill-11"></path>
                <path d="M47.6476267,20.8372937 C47.5843926,20.8166488 47.5144006,20.8060747 47.4381335,20.8060747 C47.2156074,20.8060747 46.998391,20.9092989 46.7855189,21.1147403 C46.5726468,21.3201817 46.4123894,21.6323721 46.3047466,22.0503044 C46.2917136,22.0785022 46.2714401,22.158564 46.2429606,22.2914966 C46.2139984,22.4234223 46.1806919,22.5825386 46.1425583,22.7668317 C46.1049075,22.9516282 46.0648431,23.1540485 46.0238134,23.3735888 C45.9823009,23.5936327 45.9427192,23.8076341 45.9045857,24.0166003 C45.8664521,24.2255664 45.8331456,24.4194266 45.8046661,24.5971737 C45.7761866,24.7749208 45.7554304,24.9093641 45.7428801,25 C45.6917136,24.9929505 45.6381335,24.9894258 45.5806919,24.9894258 L45.3905068,24.9894258 L45.185358,24.9894258 C45.118745,24.9894258 45.056959,24.9929505 45,25 C45.0381335,24.8811662 45.0854385,24.6983838 45.1428801,24.4511492 C45.1998391,24.2039145 45.260177,23.9264679 45.3238938,23.6193128 C45.3871279,23.3126613 45.4522928,22.9883861 45.5189059,22.6469909 C45.5855189,22.305092 45.6458568,21.9742709 45.6999195,21.653017 C45.7539823,21.3322665 45.803218,21.0346786 45.8476267,20.7592461 C45.8920354,20.4838136 45.9238938,20.2557132 45.9427192,20.0739378 C45.9934031,20.0880368 46.0522928,20.098611 46.1189059,20.1051569 C46.1855189,20.1127099 46.2506838,20.1157311 46.3144006,20.1157311 C46.4539019,20.1157311 46.5716814,20.1016322 46.6667739,20.0739378 C46.6537409,20.1157311 46.6363636,20.1766586 46.6141593,20.2572238 C46.5919549,20.3372855 46.5683025,20.4294321 46.5427192,20.5336634 C46.5176187,20.6383982 46.4934835,20.7486719 46.4712792,20.8634774 C46.4490748,20.9782829 46.4316975,21.0920813 46.4191472,21.2038656 L46.4664521,21.2038656 C46.5683025,21.0638835 46.671601,20.9208801 46.7763475,20.7748556 C46.8810941,20.6283275 46.9921158,20.497409 47.1094127,20.3826035 C47.2267096,20.2672945 47.3584875,20.1736374 47.5047466,20.1001216 C47.6510056,20.0271093 47.8160901,19.9938761 48,20.0009256 C47.9681416,20.175148 47.9444891,20.3267114 47.9285599,20.4556158 C47.9126307,20.5850237 47.9049075,20.7154387 47.9049075,20.8478679 L47.8189863,20.9002353 C47.7683025,20.8790869 47.7108608,20.8584421 47.6476267,20.8372937" id="Fill-13"></path>
                <path d="M49.461501,21.8325536 C49.461501,22.0094867 49.4887914,22.1586745 49.5433723,22.2814815 C49.5974659,22.4042885 49.6681287,22.5020793 49.7548733,22.574399 C49.8416179,22.6467186 49.9361598,22.6985705 50.038499,22.7304094 C50.1413255,22.7617934 50.2436647,22.777258 50.3460039,22.777258 C50.5769981,22.777258 50.7738791,22.7208577 50.9376218,22.6071475 C51.1008772,22.4938921 51.2339181,22.3551657 51.3367446,22.1918778 C51.4390838,22.0281352 51.5126706,21.8534763 51.5579922,21.6674464 C51.6028265,21.4818713 51.6252437,21.3163093 51.6252437,21.1716699 C51.6252437,20.8883041 51.5516569,20.6672515 51.4039961,20.5103314 C51.2563353,20.3529565 51.0482456,20.2738142 50.7792398,20.2738142 C50.5350877,20.2738142 50.3304094,20.3288499 50.1632554,20.4393762 C49.9965887,20.5494477 49.8606238,20.6849903 49.7548733,20.8455491 C49.6491228,21.0061079 49.5735867,21.1762183 49.5287524,21.3554256 C49.4839181,21.5350877 49.461501,21.694282 49.461501,21.8325536 Z M48.5477583,25.7250812 C48.5477583,25.9011046 48.579922,26.0521118 48.6442495,26.1785575 C48.7080897,26.3045484 48.7962963,26.4068876 48.9088694,26.4851202 C49.0209552,26.5638077 49.1471735,26.6224821 49.288499,26.6602339 C49.4293372,26.6979857 49.5769981,26.7166342 49.7309942,26.7166342 C50.0194932,26.7166342 50.2709552,26.6711501 50.4858674,26.5801819 C50.7002924,26.4883041 50.880117,26.3718648 51.0243665,26.2304094 C51.1681287,26.088499 51.2758285,25.9311241 51.3464912,25.7582846 C51.4166667,25.5845354 51.4517544,25.4130604 51.4517544,25.24295 C51.4517544,25.054191 51.4088694,24.9095517 51.3221248,24.808577 C51.2358674,24.7076023 51.1267057,24.6352827 50.9951267,24.5911631 C50.8635478,24.5474984 50.7212476,24.5220273 50.5677388,24.5156595 C50.4137427,24.5097466 50.2724172,24.5061079 50.1442495,24.5061079 C50.0160819,24.5061079 49.8494152,24.5129305 49.6442495,24.5252112 C49.4390838,24.5374919 49.2534113,24.6007147 49.0862573,24.7139701 C48.9712476,24.7899285 48.8781676,24.8731644 48.8075049,24.9645874 C48.7373294,25.0555556 48.6827485,25.1487979 48.6442495,25.24295 C48.6057505,25.3375569 48.579922,25.4271605 48.5672515,25.5126706 C48.5545809,25.597271 48.5477583,25.668681 48.5477583,25.7250812 Z M49.4132554,22.8436647 C49.3752437,22.8250162 49.3172515,22.7945419 49.2402534,22.7536062 C49.1637427,22.7131254 49.0862573,22.6530864 49.0097466,22.574399 C48.9327485,22.4957115 48.8654971,22.3933723 48.8075049,22.2673814 C48.75,22.1413905 48.7212476,21.9808317 48.7212476,21.7852502 C48.7212476,21.5651072 48.7660819,21.3481481 48.8557505,21.1339181 C48.9454191,20.9196881 49.079922,20.7291098 49.2597466,20.5621832 C49.4390838,20.3952567 49.6588694,20.2597141 49.9181287,20.1555556 C50.1778752,20.0518519 50.4809942,20 50.8269981,20 C50.9873294,20 51.1140351,20.0095517 51.207115,20.0282001 C51.2997076,20.0473034 51.4166667,20.0755036 51.5579922,20.1132554 C51.6476608,20.1382716 51.7261209,20.1528265 51.7933723,20.1555556 C51.8606238,20.1587394 51.9459064,20.1605588 52.0482456,20.1605588 C52.1057505,20.1605588 52.1764133,20.1587394 52.2597466,20.1555556 C52.3430799,20.1528265 52.4293372,20.1482781 52.5194932,20.1414555 C52.6091618,20.1355426 52.6959064,20.1309942 52.7792398,20.1273554 C52.8625731,20.1241715 52.9361598,20.122807 53,20.122807 C53,20.1546459 52.997076,20.1860299 52.9907407,20.2169591 C52.9844055,20.2492528 52.9809942,20.2833658 52.9809942,20.3211176 C52.9809942,20.3588694 52.9844055,20.3938921 52.9907407,20.4248213 C52.997076,20.4566602 53,20.4880442 53,20.5194282 C52.7694932,20.5071475 52.5882066,20.4975958 52.4566277,20.4912281 C52.3255361,20.4848603 52.2022417,20.4784925 52.0867446,20.4725796 C52.1379142,20.5417154 52.1954191,20.6345029 52.2597466,20.7509422 C52.3240741,20.8678363 52.3557505,21.0329435 52.3557505,21.2471735 C52.3557505,21.3790773 52.3382066,21.5182586 52.3031189,21.662898 C52.2675439,21.8075374 52.2119883,21.9476283 52.1349903,22.0831709 C52.0579922,22.2187135 51.961501,22.3478882 51.8464912,22.4702404 C51.7309942,22.5935023 51.5930799,22.6985705 51.4327485,22.7872645 C51.2080897,22.9064327 50.9741715,22.9805718 50.7309942,23.0087719 C50.4868421,23.0369721 50.288499,23.051527 50.1345029,23.051527 C50.0258285,23.051527 49.9230019,23.0501624 49.8269981,23.0465237 C49.7309942,23.0433398 49.6471735,23.0387914 49.5769981,23.0328785 C49.5511696,23.051527 49.5160819,23.0747238 49.4712476,23.1033788 C49.4264133,23.1315789 49.3830409,23.1666017 49.3411306,23.2070825 C49.2997076,23.2480182 49.2626706,23.297141 49.2305068,23.3539961 C49.1983431,23.4103964 49.1827485,23.4763483 49.1827485,23.5518519 C49.1827485,23.6464587 49.2051657,23.7205978 49.25,23.774269 C49.2948343,23.8279402 49.3523392,23.865692 49.4230019,23.8875244 C49.4936647,23.9093567 49.5706628,23.9239116 49.6539961,23.9298246 C49.7368421,23.9361923 49.8172515,23.9393762 49.8942495,23.9393762 C50.1632554,23.9393762 50.3927875,23.9411956 50.5818713,23.9443795 C50.7709552,23.9471085 50.9312865,23.957115 51.0628655,23.9725796 C51.1939571,23.9880442 51.3079922,24.0103314 51.4039961,24.0389864 C51.5,24.0667316 51.5930799,24.1063028 51.6827485,24.1567901 C51.7724172,24.2131904 51.8445419,24.2764133 51.8991228,24.3455491 C51.9537037,24.4151397 51.997076,24.4824561 52.0292398,24.5488629 C52.0609162,24.6148148 52.0818713,24.6844055 52.0916179,24.7567251 C52.1013645,24.8290448 52.1057505,24.8931774 52.1057505,24.9500325 C52.1057505,25.1328785 52.0623782,25.3425601 51.9761209,25.5781676 C51.8893762,25.8146849 51.75,26.0380117 51.5579922,26.2495127 C51.3654971,26.460104 51.1106238,26.6379467 50.7933723,26.7830409 C50.4761209,26.9276803 50.0867446,27 49.6247563,27 C49.4005848,27 49.1827485,26.9768031 48.9712476,26.9294997 C48.7597466,26.8826511 48.5735867,26.7953216 48.4137427,26.6697856 C48.2850877,26.5688109 48.1842105,26.4396361 48.1106238,26.2822612 C48.037037,26.1248863 48,25.9547758 48,25.7719298 C48,25.5517869 48.0545809,25.3439246 48.1632554,25.1487979 C48.2724172,24.9532164 48.4195906,24.7990253 48.6057505,24.68577 C48.7149123,24.6161793 48.8123782,24.5693307 48.8991228,24.5443145 C48.9853801,24.5188434 49.0545809,24.4965562 49.1057505,24.4779077 L49.1154971,24.4119558 C49.0769981,24.405588 49.0287524,24.391488 48.9712476,24.3692008 C48.9132554,24.3473684 48.8557505,24.3159844 48.7982456,24.2745939 C48.7407407,24.2336582 48.6905458,24.1804418 48.6491228,24.1144899 C48.6072125,24.0480832 48.5867446,23.9643925 48.5867446,23.8638726 C48.5867446,23.7187784 48.6154971,23.5932424 48.6730019,23.4858999 C48.7305068,23.3785575 48.8026316,23.2889539 48.8893762,23.2166342 C48.9761209,23.1443145 49.0672515,23.082911 49.1637427,23.0328785 C49.2597466,22.9819363 49.3430799,22.9414555 49.4132554,22.9096166 L49.4132554,22.8436647 Z" id="Fill-15"></path>
                <path d="M55.6484943,22.9540904 C55.7954309,22.7212488 55.9371755,22.486563 56.0737279,22.250494 C56.2855659,21.8867079 56.4579439,21.5911606 56.5908619,21.364313 C56.7242991,21.1379265 56.8317757,20.9525754 56.913811,20.8091819 C56.9958463,20.6653274 57.0571132,20.5519036 57.0981308,20.4689106 C57.1391485,20.3863786 57.1765317,20.306152 57.2107996,20.229614 L57.3136033,20 C57.4158879,20.0248979 57.5353063,20.038269 57.6718588,20.038269 C57.8084112,20.038269 57.9179647,20.0248979 58,20 C57.6240914,20.5551311 57.241433,21.1263997 56.8525441,21.7142669 C56.463136,22.301212 56.0804777,22.8950731 55.7050883,23.4953893 C55.3291796,24.0957054 54.9657321,24.6891055 54.6137072,25.2765117 C54.2622015,25.8639178 53.9392523,26.4384139 53.6458982,27 C53.5706127,26.974641 53.4615784,26.961731 53.317757,26.961731 C53.1812046,26.961731 53.0752856,26.974641 53,27 C53.2871236,26.5785799 53.5737279,26.1539323 53.8608515,25.7265182 C54.1474559,25.2986431 54.4205607,24.8901331 54.6801661,24.5005269 C54.4755971,23.7153208 54.2720665,22.9605454 54.0706127,22.2357397 C53.8691589,21.5113951 53.6593977,20.7658411 53.44081,20 C53.5020768,20.012449 53.5706127,20.0225925 53.6458982,20.0281254 C53.7206646,20.0350415 53.7959502,20.038269 53.8712357,20.038269 C54.0353063,20.038269 54.1682243,20.0248979 54.2705088,20 C54.3525441,20.4403241 54.4688474,20.9700962 54.6188993,21.5893163 C54.7689512,22.2089975 54.9537902,22.8950731 55.172378,23.6484653 L55.2232606,23.6484653 C55.3598131,23.4188513 55.5015576,23.187393 55.6484943,22.9540904" id="Fill-17"></path>
                <path d="M65.4584302,18.8413231 C65.357673,18.7583893 65.2348752,18.6788111 65.0900367,18.6025887 C64.9451983,18.5263663 64.7751706,18.4616491 64.5799535,18.4084372 C64.3842867,18.3552253 64.1593823,18.3288591 63.9052403,18.3288591 C63.4082015,18.3288591 62.96469,18.4319271 62.5738061,18.6371045 C62.1833721,18.8432407 61.8532124,19.1188878 61.5842267,19.464046 C61.315241,19.8092042 61.1096784,20.2075743 60.9675388,20.6586769 C60.8253992,21.1097795 60.7543294,21.5814957 60.7543294,22.0723873 C60.7543294,22.4707574 60.8033586,22.8326942 60.9009671,23.1577181 C60.9985756,23.4832215 61.1465627,23.7603068 61.3444786,23.9889741 C61.5428443,24.2186002 61.7915886,24.3959732 62.0902616,24.5220518 C62.3889347,24.6481304 62.7397856,24.71093 63.1419147,24.71093 C63.3785141,24.71093 63.6124147,24.6912752 63.8431667,24.6514861 C64.0739186,24.611697 64.3015219,24.5450623 64.5264263,24.4520614 C64.5498163,24.3528284 64.5781543,24.2248322 64.6109903,24.0690316 C64.6433766,23.9132311 64.677562,23.740652 64.7130969,23.5512943 C64.748182,23.3624161 64.7823675,23.1649089 64.8147537,22.9587728 C64.8475898,22.753116 64.8786266,22.5469799 64.908314,22.3413231 C64.9969263,22.3676894 65.1183747,22.3815916 65.2722093,22.3815916 C65.3549741,22.3815916 65.4201964,22.3782359 65.4674263,22.3710451 C65.5146563,22.364813 65.5618862,22.3547459 65.6091161,22.3413231 C65.5798786,22.4611697 65.5438938,22.6169703 65.5029612,22.8092042 C65.461129,23.0023969 65.4183972,23.2061361 65.3743159,23.42186 C65.3297848,23.6375839 65.2897519,23.8533078 65.254217,24.0690316 C65.2186821,24.2847555 65.1921433,24.478907 65.1746008,24.6514861 C64.8727791,24.7641419 64.5444186,24.8504314 64.1890696,24.9103547 C63.8341705,24.9697987 63.4585801,25 63.0618487,25 C62.4411125,25 61.9391259,24.9151486 61.557688,24.7459252 C61.1758003,24.5767018 60.8667816,24.346117 60.6301822,24.0541707 C60.3994302,23.7684564 60.2365994,23.4400767 60.1421396,23.0680729 C60.0472299,22.6965484 60,22.3379674 60,21.9928092 C60,21.4621285 60.0872629,20.9539789 60.2617887,20.4693193 C60.4363146,19.985139 60.6954045,19.5599233 61.0386086,19.1951103 C61.3818127,18.8302972 61.804633,18.5393097 62.3075193,18.3240652 C62.8104056,18.1083413 63.3902092,18 64.0473799,18 C64.5385711,18 64.9362021,18.0450623 65.2411725,18.1342282 C65.5456931,18.2243528 65.7984856,18.3092042 66,18.3887824 L65.6981783,19.0556088 C65.6388035,18.9956855 65.5591873,18.9247363 65.4584302,18.8413231" id="Fill-19"></path>
                <path d="M69.6476267,20.8372937 C69.5843926,20.8166488 69.5144006,20.8060747 69.4381335,20.8060747 C69.2156074,20.8060747 68.998391,20.9092989 68.7855189,21.1147403 C68.5726468,21.3201817 68.4123894,21.6323721 68.3047466,22.0503044 C68.2917136,22.0785022 68.2714401,22.158564 68.2429606,22.2914966 C68.2139984,22.4234223 68.1806919,22.5825386 68.1425583,22.7668317 C68.1049075,22.9516282 68.0648431,23.1540485 68.0238134,23.3735888 C67.9823009,23.5936327 67.9427192,23.8076341 67.9045857,24.0166003 C67.8664521,24.2255664 67.8331456,24.4194266 67.8046661,24.5971737 C67.7761866,24.7749208 67.7554304,24.9093641 67.7428801,25 C67.6917136,24.9929505 67.6381335,24.9894258 67.5806919,24.9894258 L67.3905068,24.9894258 L67.185358,24.9894258 C67.118745,24.9894258 67.056959,24.9929505 67,25 C67.0381335,24.8811662 67.0854385,24.6983838 67.1428801,24.4511492 C67.1998391,24.2039145 67.260177,23.9264679 67.3238938,23.6193128 C67.3871279,23.3126613 67.4522928,22.9883861 67.5189059,22.6469909 C67.5855189,22.305092 67.6458568,21.9742709 67.6999195,21.653017 C67.7539823,21.3322665 67.803218,21.0346786 67.8476267,20.7592461 C67.8920354,20.4838136 67.9238938,20.2557132 67.9427192,20.0739378 C67.9934031,20.0880368 68.0522928,20.098611 68.1189059,20.1051569 C68.1855189,20.1127099 68.2506838,20.1157311 68.3144006,20.1157311 C68.4539019,20.1157311 68.5716814,20.1016322 68.6667739,20.0739378 C68.6537409,20.1157311 68.6363636,20.1766586 68.6141593,20.2572238 C68.5919549,20.3372855 68.5683025,20.4294321 68.5427192,20.5336634 C68.5176187,20.6383982 68.4934835,20.7486719 68.4712792,20.8634774 C68.4490748,20.9782829 68.4316975,21.0920813 68.4191472,21.2038656 L68.4664521,21.2038656 C68.5683025,21.0638835 68.671601,20.9208801 68.7763475,20.7748556 C68.8810941,20.6283275 68.9921158,20.497409 69.1094127,20.3826035 C69.2267096,20.2672945 69.3584875,20.1736374 69.5047466,20.1001216 C69.6510056,20.0271093 69.8160901,19.9938761 70,20.0009256 C69.9681416,20.175148 69.9444891,20.3267114 69.9285599,20.4556158 C69.9126307,20.5850237 69.9049075,20.7154387 69.9049075,20.8478679 L69.8189863,20.9002353 C69.7683025,20.8790869 69.7108608,20.8584421 69.6476267,20.8372937" id="Fill-21"></path>
                <path d="M70.8030287,23.2244276 C70.8030287,23.6528446 70.9029566,24.0070748 71.1028124,24.2856441 C71.3026682,24.565196 71.6328423,24.704235 72.0938498,24.704235 C72.4796539,24.704235 72.8051921,24.6005699 73.0694344,24.3927484 C73.3336767,24.1854181 73.5505305,23.9319053 73.7199959,23.6327012 C73.8894612,23.3334971 74.011023,23.0170974 74.0857113,22.683502 C74.1603997,22.350398 74.1974864,22.0580721 74.1974864,21.8060332 C74.1974864,21.5952638 74.1686412,21.3997249 74.1109509,21.2194163 C74.0537756,21.0391078 73.9672401,20.8823818 73.8518595,20.7502211 C73.7364788,20.6170777 73.5943134,20.5134126 73.4253631,20.4387344 C73.2558978,20.3640562 73.0627382,20.3267171 72.8458844,20.3267171 C72.4796539,20.3267171 72.1664778,20.4254692 71.9058411,20.6224821 C71.6446894,20.8194949 71.4329865,21.0631817 71.2702174,21.3515771 C71.1079633,21.6409551 70.988977,21.9539157 70.9148037,22.2909502 C70.8401154,22.6274934 70.8030287,22.9389801 70.8030287,23.2244276 M70,22.9797583 C70,22.6122629 70.0659318,22.2521372 70.1983105,21.897907 C70.3301741,21.5441682 70.5181828,21.2262946 70.7623365,20.9437948 C71.0064902,20.6612951 71.3042135,20.4333301 71.6565365,20.2603911 C72.0088596,20.0864695 72.4018749,20 72.8355826,20 C73.2352941,20 73.5742248,20.0560086 73.8518595,20.1680259 C74.1294942,20.2805345 74.3535593,20.4289083 74.5230246,20.6121647 C74.6919749,20.7959124 74.8140517,21.0066817 74.8887401,21.2449641 C74.9629134,21.4832465 75,21.731355 75,21.9897809 C75,22.3641545 74.933038,22.7331237 74.7970537,23.0966886 C74.6615844,23.4607448 74.4684248,23.785988 74.21809,24.0714356 C73.9672401,24.3573745 73.6659112,24.5838656 73.3135881,24.7499263 C72.96075,24.9164783 72.5646441,25 72.1242402,25 C71.703925,25 71.3567529,24.938587 71.0822087,24.8162523 C70.8081797,24.6939177 70.5908108,24.5322787 70.4321624,24.3318267 C70.2724838,24.1313747 70.1607088,23.9102879 70.0963222,23.6680751 C70.0319357,23.4268448 70,23.1974059 70,22.9797583" id="Fill-23"></path>
                <path d="M77.6271478,24.1704125 C77.5597079,24.2737988 77.4789519,24.3761862 77.3857388,24.4760763 C77.2925258,24.5764659 77.1864261,24.666367 77.0678694,24.7457796 C76.9493127,24.8256917 76.8178694,24.8881231 76.6735395,24.9325742 C76.5296392,24.9775247 76.3668385,25 76.1864261,25 C76.0446735,25 75.9037801,24.9795225 75.762457,24.9380681 C75.621134,24.8966137 75.4939863,24.8256917 75.3810137,24.7253022 C75.2680412,24.6249126 75.1761168,24.5005494 75.1056701,24.3517131 C75.0347938,24.2028768 75,24.0320647 75,23.8382779 C75,23.7069224 75.0236254,23.5066427 75.0717354,23.2369394 C75.1198454,22.967236 75.1834192,22.6211168 75.262457,22.1995805 C75.2792096,22.1096794 75.3032646,21.9798222 75.334622,21.810009 C75.3651203,21.6411947 75.3969072,21.4524024 75.4278351,21.2451304 C75.4587629,21.0378584 75.4896907,20.8250924 75.5210481,20.6068325 C75.5519759,20.389072 75.5760309,20.1867945 75.5932131,20 C75.6834192,20.0274698 75.8079897,20.0414544 75.9660653,20.0414544 C76.1129725,20.0414544 76.2345361,20.0274698 76.3303265,20 C76.274055,20.2632105 76.2074742,20.5668764 76.1314433,20.9129957 C76.0549828,21.259115 75.9828179,21.602737 75.915378,21.9453601 C75.847079,22.2869843 75.7895189,22.6021376 75.7409794,22.8893217 C75.693299,23.1765058 75.669244,23.3922685 75.669244,23.5371092 C75.669244,23.8692438 75.7409794,24.1184697 75.8853093,24.2847867 C76.0292096,24.4506043 76.2315292,24.5335131 76.4914089,24.5335131 C76.6550687,24.5335131 76.8049828,24.5005494 76.9407216,24.4346219 C77.0764605,24.3686944 77.1975945,24.2812906 77.3049828,24.1704125 C77.4123711,24.0595345 77.5030069,23.9316752 77.5764605,23.786335 C77.6499141,23.6409949 77.7087629,23.4891619 77.7542955,23.3298372 C77.7882302,23.1989811 77.8251718,23.0291679 77.8646907,22.8218959 C77.9042096,22.6141245 77.943299,22.3928678 77.9832474,22.1581261 C78.0227663,21.9228848 78.0609966,21.6841474 78.0979381,21.4419139 C78.1344502,21.2001798 78.1683849,20.9769254 78.1993127,20.7726501 C78.2302405,20.5688742 78.2560137,20.3960643 78.2757732,20.2542204 C78.2955326,20.1123764 78.3079897,20.0274698 78.3140034,20 C78.4265464,20.0274698 78.5395189,20.0414544 78.652921,20.0414544 C78.794244,20.0414544 78.9097938,20.0274698 79,20 C78.972079,20.110878 78.9338488,20.2821896 78.8861684,20.5134352 C78.8376289,20.7456798 78.7839347,21.0078913 78.7250859,21.3020677 C78.665378,21.5962441 78.6060997,21.910898 78.5468213,22.2455299 C78.487543,22.5811607 78.4308419,22.9132954 78.3771478,23.2419339 C78.3234536,23.5705724 78.2757732,23.8782339 78.2332474,24.1649186 C78.1907216,24.4521027 78.1610825,24.6923384 78.1443299,24.8861253 C78.0932131,24.879133 78.0438144,24.8756368 77.9957045,24.8756368 L77.8389175,24.8756368 L77.6610825,24.8756368 C77.6043814,24.8756368 77.5536942,24.879133 77.5085911,24.8861253 L77.6610825,24.2118669 L77.6271478,24.1704125 Z" id="Fill-25"></path>
                <path d="M81.4505525,23.0554977 C81.4505525,23.3141835 81.4866222,23.5255042 81.5587618,23.68946 C81.6309013,23.8534157 81.721304,23.9823032 81.8290567,24.0770332 C81.9368094,24.1717632 82.0541503,24.2364346 82.1806228,24.2710475 C82.3066387,24.3056604 82.4207835,24.3229668 82.5230573,24.3229668 C82.8472286,24.3229668 83.1216327,24.2250488 83.3471829,24.0301236 C83.5722765,23.8342876 83.7539951,23.5992843 83.8923386,23.3251139 C84.0302256,23.050488 84.130673,22.7653871 84.1941375,22.4689005 C84.2566889,22.1728692 84.2886494,21.9237476 84.2886494,21.7215355 C84.2886494,21.4756018 84.2557757,21.2692908 84.1895717,21.102147 C84.1233677,20.9354587 84.0375308,20.7992843 83.9329742,20.6954457 C83.8275043,20.591607 83.7101635,20.5173715 83.5814081,20.4731945 C83.4521961,20.4290176 83.3243539,20.4071568 83.1983381,20.4071568 C82.9581773,20.4071568 82.7481509,20.4622642 82.567802,20.5724789 C82.3879098,20.6826936 82.2331294,20.8234223 82.1039175,20.9932986 C81.9742489,21.1636304 81.8678659,21.3530904 81.7838554,21.5612232 C81.6998448,21.7693559 81.6336408,21.9706571 81.5856999,22.1664932 C81.5373025,22.3618738 81.5030591,22.539948 81.4820564,22.7007157 C81.4610538,22.8614834 81.4505525,22.9798959 81.4505525,23.0554977 Z M81.2702036,23.7085882 C81.1683864,24.2569291 81.0633732,24.8198439 80.9551639,25.396877 C80.8474112,25.9734548 80.7478769,26.5081327 80.6579308,27 C80.5857913,26.9744958 80.4835175,26.9621991 80.3515661,26.9621991 C80.2196146,26.9621991 80.1027303,26.9744958 80,27 C80.0785316,26.6470397 80.1593462,26.2540013 80.2433568,25.8222511 C80.3273674,25.390501 80.414574,24.9487313 80.5049767,24.4983084 C80.5949228,24.0474301 80.684869,23.5883539 80.7752717,23.1219909 C80.8652178,22.6551724 80.9519679,22.2106701 81.036435,21.7880286 C81.0903114,21.5042941 81.139622,21.2205595 81.1848233,20.936825 C81.2300247,20.6530904 81.2793352,20.3693559 81.3336682,20.0856213 C81.381609,20.097918 81.4373117,20.1074821 81.499863,20.1134027 C81.5633275,20.1202342 81.6249658,20.1234223 81.6852342,20.1234223 C81.7327185,20.1234223 81.7884211,20.1202342 81.8518857,20.1134027 C81.9148936,20.1074821 81.9701397,20.097918 82.0180805,20.0856213 C81.9820108,20.236825 81.9523331,20.3661679 81.9281344,20.4731945 C81.9039357,20.5802212 81.8774541,20.7255042 81.8468633,20.9081327 C81.9071318,20.8202342 81.9838371,20.7236825 82.0769793,20.6193884 C82.1696649,20.5155498 82.28244,20.4180872 82.4143914,20.3265452 C82.5463428,20.2354587 82.6965574,20.1580351 82.8654917,20.09473 C83.0335129,20.0314249 83.2257328,20 83.4416948,20 C83.5681673,20 83.7211214,20.0191282 83.9010136,20.0569291 C84.0813624,20.09473 84.2525797,20.1753416 84.4146653,20.297853 C84.5772076,20.4212752 84.7146379,20.5961614 84.8287828,20.8234223 C84.9429276,21.0502277 85,21.3530904 85,21.7310995 C85,22.0845153 84.9447539,22.4361093 84.8333486,22.7858816 C84.7223998,23.1361093 84.5644233,23.449447 84.360789,23.7272609 C84.156698,24.0046194 83.9087755,24.2268705 83.6174779,24.3940143 C83.3257237,24.5611581 82.9974432,24.6445023 82.63081,24.6445023 C82.4869875,24.6445023 82.3440782,24.6290176 82.2029952,24.5975927 C82.0619122,24.5657124 81.9313305,24.5169811 81.8112501,24.450488 C81.6907132,24.3844502 81.5856999,24.2901757 81.4957538,24.1667534 C81.4053511,24.044242 81.3396037,23.8912167 81.2975984,23.7085882 L81.2702036,23.7085882 Z" id="Fill-27"></path>
                <path d="M25.7517994,25 C25.6815081,25 25.6122,24.9714152 25.5630452,24.9170571 C6.69549695,3.8261303 1.99925486,1.90204246 0.880984952,2.63306463 C0.237549648,3.05293377 -0.226962469,5.08011448 3.89416938,13.9376664 C6.27276635,19.0501356 9.05688977,23.9850038 9.08441641,24.0342072 C9.14979219,24.1494838 9.10456985,24.2928766 8.98414078,24.3547324 C8.86322017,24.4161195 8.71182363,24.3739451 8.64792249,24.2586685 C7.49475272,22.2197727 -2.52297951,4.28114474 0.60080304,2.24224893 C1.43446712,1.69913695 3.96888455,0.0482452118 25.9405535,24.6096529 C26.0295235,24.7094655 26.0172349,24.8584816 25.9130268,24.9432989 C25.8658383,24.9817244 25.8088188,25 25.7517994,25" id="Fill-29"></path>
                <path d="M8.95997315,24 C8.87118759,24 8.78579819,23.9535869 8.74213316,23.8724811 C7.67428058,21.8860925 -1.59677574,4.40240424 1.70866707,2.22708142 C2.84686887,1.47790774 5.16596716,2.57822728 8.80229387,5.59086185 C12.867023,8.95839284 18.6327478,14.7750373 25.939848,22.8790524 C26.0286336,22.9779733 26.0179599,23.1275268 25.9155897,23.2133208 C25.8132194,23.2986459 25.6589363,23.2883319 25.5701508,23.1903486 C8.68973513,4.46803898 3.42858411,1.67012377 1.9847271,2.61854576 C-0.510486815,4.26082072 6.33085314,18.3601005 9.17732797,23.65448 C9.23942934,23.7702784 9.19285331,23.9127996 9.07253189,23.9732773 C9.03662953,23.9910924 8.99781617,24 8.95997315,24" id="Fill-31"></path>
                <path d="M9.08925819,24 C9.00036924,24 8.91530347,23.9509506 8.87277059,23.8671382 C8.84935361,23.8190412 6.46799009,19.0488725 4.53441657,14.0582198 C1.86105764,7.15797569 1.30908596,3.29879157 2.8479161,2.2597072 C5.311478,0.599172269 12.8636931,6.88891856 25.9389702,21.4932447 C26.0273813,21.5922958 26.0187791,21.7446821 25.9193764,21.8327805 C25.8194958,21.921355 25.6675244,21.9127833 25.5786355,21.813256 C9.74971261,4.13405921 4.6266508,1.63825664 3.11888401,2.65781652 C0.468942061,4.44740363 6.68591137,18.4193264 9.30526788,23.6523687 C9.36452718,23.7714205 9.31625952,23.9152351 9.19678514,23.974761 C9.16189861,23.9919045 9.1255784,24 9.08925819,24" id="Fill-33"></path>
                <path d="M9.47247234,24 C9.37955034,24 9.29056154,23.9487684 9.24778792,23.8608048 C8.87314999,23.0870147 0.108490823,4.87902294 3.98909075,2.30777785 C6.64990499,0.543188416 14.1549548,6.35362232 26.9349262,20.0667683 C27.0273565,20.1658483 27.0204734,20.3205096 26.919685,20.4113732 C26.8184049,20.5022367 26.660585,20.4959536 26.5686463,20.3963903 C11.1111445,3.81040961 5.90849555,1.62291802 4.26687346,2.71279728 C1.33761787,4.65331402 7.19317914,18.4853559 9.69666512,23.6510453 C9.75517157,23.7723578 9.70256493,23.9183195 9.57916057,23.9763175 C9.54425336,23.9922669 9.50836285,24 9.47247234,24" id="Fill-35"></path>
                <path d="M9.61579489,22 C9.5228609,22 9.43379916,21.9485196 9.39314053,21.8610029 C9.05189854,21.1323209 1.08958534,3.97857655 5.15157515,1.344651 C7.8907077,-0.430487522 15.0156469,4.63892996 26.9334631,16.8458738 C27.025913,16.9408786 27.0215568,17.0906398 26.9232984,17.1800286 C26.8255241,17.2694173 26.6701501,17.2656733 26.5777002,17.1706685 C12.1758359,2.41825179 7.12448631,0.635157197 5.42408471,1.73730621 C2.33548164,3.7394266 7.56350261,16.8023495 9.83796521,21.6663133 C9.89411282,21.7851862 9.8394173,21.9251194 9.71647337,21.9789398 C9.68355925,21.9929799 9.64919304,22 9.61579489,22" id="Fill-37"></path>
                <path d="M9.79182017,22 C9.69859804,22 9.60965651,21.9454429 9.57113104,21.8543562 C9.2638785,21.1360996 2.10004301,4.22196339 6.33594255,1.40396858 C9.14164336,-0.46141115 15.8778937,4.12091408 26.9318507,15.4113953 C27.0241216,15.5062773 27.0226947,15.657614 26.9275701,15.750124 C26.8329211,15.8426339 26.6811973,15.8416851 26.5879752,15.7458543 C13.2400878,2.11273697 8.35306022,0.638271 6.60276712,1.8024729 C2.69552316,4.40176474 9.93926334,21.494279 10.0125093,21.6664898 C10.0648278,21.7884132 10.0082287,21.9293129 9.88599355,21.9810236 C9.85507805,21.9938327 9.8232113,22 9.79182017,22" id="Fill-39"></path>
                <path d="M10.1956401,22 C10.0974479,22 10.0046295,21.9423443 9.96652505,21.8472124 C9.68025334,21.1394885 3.00855913,4.4803511 7.61919469,1.47168388 C10.6069725,-0.477559634 17.2493556,3.60206243 27.9264113,13.9450166 C28.0236264,14.0391876 28.0246034,14.1924557 27.9288538,14.2880681 C27.8331043,14.3836805 27.6777554,14.3851219 27.5800518,14.2904704 C14.7012443,1.81473537 9.764767,0.654414171 7.8917879,1.87575433 C6.14826614,3.0134937 6.02271694,6.77504842 7.52784177,12.7534653 C8.68221048,17.3385357 10.4076571,21.6252379 10.4247552,21.6679992 C10.4750726,21.791959 10.4135193,21.9332155 10.286993,21.9827033 C10.2567049,21.9942344 10.2259283,22 10.1956401,22" id="Fill-41"></path>
                <path d="M10.4256215,21 C10.3269992,21 10.2346008,20.9416199 10.1986946,20.8466364 C9.94687287,20.1831419 4.09082025,4.55997869 8.87208231,1.50429016 C11.8518135,-0.400476414 18.2636932,3.0963062 27.923882,11.8987278 C28.021068,11.9872247 28.0258555,12.1354916 27.9344145,12.2295484 C27.8429735,12.3236052 27.689774,12.3282386 27.592588,12.2392784 C21.0777774,6.30350499 12.5871713,-0.310589595 9.13874527,1.89488082 C4.67393602,4.74809235 10.592226,20.5264725 10.6525483,20.6853961 C10.6985081,20.8067897 10.6343558,20.9411566 10.5089237,20.9856366 C10.481635,20.9953667 10.4533889,21 10.4256215,21" id="Fill-43"></path>
                <path d="M10.8414433,21 C10.7378192,21 10.6405795,20.9372826 10.6062018,20.8385262 C10.378327,20.1870145 5.08318318,4.8385784 10.2683184,1.58850856 C13.4104377,-0.382407931 19.6853452,2.60275126 28.9172236,10.4592709 C29.0193744,10.5463263 29.0282144,10.6956311 28.936868,10.7929834 C28.8460127,10.8908038 28.6883665,10.8987605 28.5867068,10.811705 C19.5434145,3.11619116 13.4708442,0.145541202 10.5408843,1.98353433 C5.67104139,5.03609128 11.0221717,20.5328961 11.0766848,20.6887534 C11.1199025,20.812784 11.0496738,20.9466434 10.9200209,20.988299 C10.8939921,20.9962557 10.8674722,21 10.8414433,21" id="Fill-45"></path>
                <path d="M11.1559225,21 C11.0514605,21 10.9551447,20.9329899 10.9239978,20.8296433 C10.7313661,20.1902158 6.27544033,5.1374782 11.6192928,1.68504143 C14.7541101,-0.338475365 20.5718748,2.12579812 28.9134981,9.01273937 C29.0155642,9.09720987 29.0294605,9.24774668 28.9436867,9.34873376 C28.8574337,9.44877704 28.7045742,9.4624622 28.6025081,9.3784636 C20.444412,2.64253107 14.8207165,0.187695629 11.8847603,2.08379882 C6.83991828,5.34228377 11.3418456,20.5408391 11.3878472,20.6942074 C11.4257027,20.8202052 11.3528668,20.9528098 11.2249249,20.9900901 C11.2019241,20.9966967 11.1784441,21 11.1559225,21" id="Fill-47"></path>
                <path d="M11.6147165,20 C11.5044139,20 11.4034258,19.9283325 11.3749922,19.8196447 C11.3651875,19.7816751 10.3665814,15.961939 10.0797947,11.7501673 C9.69005886,6.03242864 10.7293544,2.34843364 13.1677769,0.800225488 C16.4253801,-1.26721618 22.0557145,0.675875232 29.9043565,6.5772916 C30.0122079,6.6584515 30.0318173,6.80890582 29.9479873,6.91332206 C29.8646476,7.01773831 29.7087532,7.03672308 29.6009018,6.9560378 C21.9375681,1.19415951 16.4998956,-0.741337996 13.4398567,1.2012788 C7.96345567,4.67739054 11.8152221,19.5514848 11.854931,19.7009898 C11.8887571,19.8296117 11.808849,19.9596574 11.6759957,19.9924061 C11.6554059,19.9976269 11.6353063,20 11.6147165,20" id="Fill-49"></path>
                <path d="M12.0660794,20 C11.9549649,20 11.8552468,19.9224406 11.8315044,19.8091945 C11.8239068,19.7720802 11.0503792,16.0420938 11.0024196,11.8905271 C10.9378402,6.2615261 12.1662723,2.57626719 14.6540016,0.937052614 C17.835484,-1.15895326 22.9638438,0.265188756 29.8985257,5.17046107 C30.0067911,5.24706877 30.0324329,5.39695342 29.9559823,5.50544135 C29.8795318,5.61392928 29.7299546,5.63962379 29.6221641,5.56301608 C22.8646005,0.783361377 17.9171579,-0.63887734 14.9175423,1.33817247 C9.29581543,5.04294017 12.2702641,19.564145 12.3011292,19.7106988 C12.3281955,19.840123 12.2450971,19.967644 12.1154636,19.9947659 C12.0988439,19.9985725 12.0822242,20 12.0660794,20" id="Fill-51"></path>
            </g>
        </g>
    </g>
</svg>