<?xml version="1.0" encoding="UTF-8"?>
<svg width="81px" height="18px" viewBox="0 0 81 18" version="1.1" xmlns="http://www.w3.org/2000/svg" xmlns:xlink="http://www.w3.org/1999/xlink">
    <!-- Generator: Sketch 55 (78076) - https://sketchapp.com -->
    <title>Group 27@2x</title>
    <desc>Created with Sketch.</desc>
    <defs>
        <polygon id="path-1" points="0 0.367140785 17.6819885 0.367140785 17.6819885 17.9998964 0 17.9998964"></polygon>
        <polygon id="path-3" points="0.086 0.307195 0.501 0.307195 0.501 13.683495 0.086 13.683495"></polygon>
    </defs>
    <g id="Page-2" stroke="none" stroke-width="1" fill="none" fill-rule="evenodd">
        <g id="Asani" transform="translate(-154.000000, -97.000000)">
            <g id="Group-27" transform="translate(154.000000, 97.000000)">
                <g id="Group-3">
                    <mask id="mask-2" fill="white">
                        <use xlink:href="#path-1"></use>
                    </mask>
                    <g id="Clip-2"></g>
                    <path d="M6.09700408,4.68246122 C6.29977959,4.83233878 6.5025551,4.98184898 6.70569796,5.13172653 C6.8923102,5.00352245 7.06349388,4.83601224 7.26847347,4.75335918 C7.98994286,4.46352245 8.7643102,3.92535918 9.43802449,4.0256449 C9.9108,4.09580816 10.6234531,5.09205306 10.5665143,5.60119592 C10.4776163,6.39907347 10.0041061,7.52021633 9.3763102,7.80454286 C8.47226939,8.21413469 7.28169796,8.06976735 6.21786122,8.03119592 C4.43439184,7.96617551 2.95177959,8.95103265 2.65202449,10.5166653 C2.34712653,12.109849 3.2265551,13.6596857 4.71908571,14.1592776 C6.28545306,14.6834816 7.8172898,13.954298 8.61222857,12.2942571 C8.82198367,11.8552776 8.88075918,11.2576041 9.21467755,10.9809918 C9.97141224,10.3546653 10.8008816,9.58911429 11.702351,9.42013469 C12.8958612,9.19678776 13.897249,10.004951 13.9424327,11.2822163 C13.9843102,12.462502 13.2595347,13.1880122 11.9403918,13.099849 C11.6928,13.082951 11.4334531,13.2504612 11.1796163,13.3331143 C11.1843918,13.532951 11.1888,13.7327878 11.1939429,13.9326245 C11.9705143,13.9326245 13.0148816,14.2452367 13.4637796,13.8617265 C14.2080245,13.2254816 15.0018612,12.1440122 15.0077388,11.2451143 C15.0224327,8.90584898 13.0938612,8.33866531 11.1175347,8.04258367 C11.9661061,6.36711429 12.2331673,4.6978898 10.8111673,3.55801224 C10.0709633,2.96474694 8.69818776,2.88319592 7.67549388,3.02682857 C7.08333061,3.11021633 6.61900408,4.10058367 6.09700408,4.68246122 M8.82235102,17.9998898 C3.89071837,17.9940122 -0.0545877551,14.0343796 0.000514285714,9.14425714 C0.0537795918,4.42348163 4.10488163,0.390379592 8.81757551,0.367236735 C13.5254939,0.343726531 17.7823102,4.64425714 17.6801878,9.32021633 C17.5762286,14.0887469 13.5794939,18.0057673 8.82235102,17.9998898" id="Fill-1" fill="#FEFEFE" mask="url(#mask-2)"></path>
                </g>
                <path d="M62.4437962,2 C65.6291975,6.54398523 68.8145987,11.0879705 72,15.6323049 C71.8364413,15.7548699 71.6728826,15.877435 71.5093239,16 C68.6135361,11.8900556 65.7170539,7.78046043 62.8209188,3.67051605 C62.694864,3.68867383 62.568462,3.70683162 62.4420599,3.72429102 L62.4420599,15.8243584 C62.2944751,15.8187714 62.1472376,15.8135335 62,15.8079465 L62,2.02304642 C62.1475848,2.01571347 62.2958642,2.00768214 62.4437962,2" id="Fill-4" fill="#FEFEFE"></path>
                <path d="M64.466332,2 C67.3567596,6.36088366 70.2468409,10.7213962 73.1372685,15.0822799 C73.2719405,15.0629839 73.40592,15.0440591 73.540592,15.0251342 L73.540592,2.45122826 L74,2.45234149 L74,16.7565742 L73.6479141,17 C70.4320582,12.1218366 67.2162022,7.24441531 64,2.36625189 C64.1557902,2.24416792 64.3112342,2.12208396 64.466332,2" id="Fill-6" fill="#FEFEFE"></path>
                <path d="M35.4692059,13.9889449 C35.7081971,14.4458939 35.8698875,14.990589 36.200357,15.344176 C37.5185218,16.7533189 39.3693535,16.7823198 40.5973903,15.4824877 C41.6941169,14.3220827 41.6090522,12.5515448 40.2274265,11.0531685 C39.0301075,9.75445186 37.6636719,8.64721502 36.4369853,7.37861459 C35.4887843,6.39816344 35.0816891,4.98604608 35.8249923,3.85352647 C36.397491,2.98089892 37.5229101,2.30235384 38.5072298,2.06514192 C39.7798243,1.75803057 40.822204,2.54960451 41.1894674,4.16956116 C40.8981546,3.89256605 40.6119053,3.60813483 40.3141789,3.33894763 C39.1587172,2.29677676 37.5509274,2.34548329 36.6796897,3.51109359 C35.6963826,4.82654151 36.032253,6.06093583 37.0611304,7.11574809 C38.3752446,8.46279949 39.8058163,9.67860353 41.0618704,11.0851438 C42.0995243,12.2474079 42.2983461,13.7260784 41.5482918,15.195082 C40.7999252,16.6611112 39.5053895,17.1076496 38.093721,16.9790049 C36.641208,16.8470139 35.5063373,16.0948514 35,14.5399607 C35.156627,14.3562888 35.3129165,14.1726168 35.4692059,13.9889449" id="Fill-8" fill="#FEFEFE"></path>
                <path d="M29.0341517,9.54986676 C28.008861,7.36944651 27.0876869,5.41024857 25.9837548,3.06277576 C24.8672697,5.44309991 23.9420343,7.41627714 22.9414805,9.54986676 L29.0341517,9.54986676 Z M26.2300166,2.03180289 C27.448034,4.60608973 28.6656821,7.18002708 30,10 L22,10 C23.2733986,7.26460181 24.4991693,4.6323009 25.7245708,2 C25.8932989,2.01083395 26.0616577,2.02131842 26.2300166,2.03180289 L26.2300166,2.03180289 Z" id="Fill-10" fill="#FEFEFE"></path>
                <path d="M48.9805219,9.4906995 L55.0069827,9.4906995 C53.9922822,7.32425116 53.0790151,5.37542573 51.9933848,3.05772422 C50.8798236,5.43585713 49.9558986,7.40843594 48.9805219,9.4906995 M52.2458655,2.0457602 C53.4582874,4.61461881 54.6703418,7.18382674 56,10 L48,10 C49.2789416,7.26905947 50.5123117,4.63452974 51.7453142,2 C51.9125322,2.01536984 52.0790151,2.03039036 52.2458655,2.0457602" id="Fill-12" fill="#FEFEFE"></path>
                <path d="M58.5018229,16 C58.0057838,14.9803901 57.4270716,13.9888583 57.0372249,12.9340661 C56.6374003,11.8525489 55.9696006,11.4834731 54.7801047,11.558912 C53.249582,11.6556633 51.7023108,11.650589 50.1710754,11.5592503 C49.0407335,11.4919304 48.4495491,11.8877312 48.0629095,12.8772332 C47.6470491,13.9414975 47.0608536,14.9462227 46.5491352,15.9766579 C46.3659713,15.8985126 46.1828075,15.8207056 46,15.7425603 C46.7141252,14.2845249 47.3829939,12.8031474 48.1844248,11.3894281 C48.3315973,11.1292821 49.0150763,11.0535049 49.4533867,11.0460625 C51.4635564,11.0129099 53.4815657,10.9435602 55.4803322,11.0876723 C56.1335216,11.1343565 56.9730819,11.6536336 57.3158905,12.1928699 C58.0236013,13.3061865 58.455141,14.5781617 59,15.7848467 C58.8342973,15.8565645 58.6682383,15.9282822 58.5018229,16" id="Fill-14" fill="#FEFEFE"></path>
                <path d="M31.4782752,16 C30.9679542,14.9497698 30.380301,13.9261019 29.9701198,12.8418176 C29.5809644,11.8140631 28.9270265,11.4227809 27.8315469,11.5797705 C27.5421749,11.6209761 27.2356973,11.6196139 26.9456125,11.5804516 C23.4360865,11.1074394 20.5259738,11.5947544 19.7465939,15.598842 C19.717728,15.7479992 19.4711204,15.8586753 19,15.8058913 C19.6838729,14.3572275 20.3103704,12.8789366 21.0968777,11.4833973 C21.2668659,11.1816774 22.0098961,11.0648717 22.4938458,11.0532933 C24.5041257,11.0052769 26.5215329,10.9528335 28.5243291,11.0761096 C29.1305134,11.1132286 29.9298501,11.5807921 30.2373969,12.0790045 C30.9551249,13.2405917 31.4280271,14.5404389 32,15.7840966 C31.8260917,15.8559509 31.6521834,15.9278052 31.4782752,16" id="Fill-16" fill="#FEFEFE"></path>
                <path d="M39.5219598,7 C38.7375873,6.11602572 37.9416067,5.6093778 38.0033781,5.18318185 C38.0709535,4.72008438 38.9336804,4.00166827 39.4531406,4.00000604 C39.9991335,3.99767892 40.9062197,4.66789034 40.9941093,5.12600112 C41.0761947,5.55219707 40.2860182,6.08544067 39.5219598,7" id="Fill-18" fill="#FEFEFE"></path>
                <g id="Group-22" transform="translate(80.000000, 2.000000)">
                    <mask id="mask-4" fill="white">
                        <use xlink:href="#path-3"></use>
                    </mask>
                    <g id="Clip-21"></g>
                    <path d="M0.171,13.619445 L0.171,0.307545 C0.281,0.307545 0.391,0.307545 0.501,0.307195 L0.501,13.683495 C0.391,13.662145 0.281,13.640795 0.171,13.619445" id="Fill-20" fill="#FEFEFE" mask="url(#mask-4)"></path>
                </g>
                <path d="M9,9.41026497 C7.96873191,9.26012158 6.94253053,8.8397963 6.09600207,9.06501139 C5.26038651,9.28755895 4.12037927,10.0878156 4.00969139,10.7733688 C3.89900351,11.458922 4.75878333,12.7656268 5.44863386,12.9679774 C6.10496623,13.1611822 7.26134281,12.4424755 7.88337753,11.8228482 C8.46215043,11.2462824 8.62623352,10.2718746 9,9.41026497" id="Fill-23" fill="#FEFEFE"></path>
                <path d="M9,9.41026497 C8.62623352,10.2718746 8.46215043,11.2462824 7.88337753,11.8228482 C7.26134281,12.4424755 6.10496623,13.1611822 5.44863386,12.9679774 C4.75878333,12.7656268 3.89900351,11.458922 4.00969139,10.7733688 C4.12037927,10.0878156 5.26038651,9.28755895 6.09600207,9.06501139 C6.94253053,8.8397963 7.96873191,9.26012158 9,9.41026497" id="Fill-25" fill="#FEFEFE"></path>
            </g>
        </g>
    </g>
</svg>