<?xml version="1.0" encoding="UTF-8"?>
<svg width="52px" height="26px" viewBox="0 0 52 26" version="1.1" xmlns="http://www.w3.org/2000/svg" xmlns:xlink="http://www.w3.org/1999/xlink">
    <!-- Generator: Sketch 50.2 (55047) - http://www.bohemiancoding.com/sketch -->
    <title>Page 1</title>
    <desc>Created with Sketch.</desc>
    <defs>
        <polygon id="path-1" points="0.949873128 2.42857143 0 2.42857143 0 0.19771 0.949873128 0.19771"></polygon>
        <polygon id="path-3" points="0.11048928 1.94285714 1.5811442 1.94285714 1.5811442 0.00800888889 0.11048928 0.00800888889 0.11048928 1.94285714"></polygon>
        <polygon id="path-5" points="0 25 52 25 52 0 0 0"></polygon>
    </defs>
    <g id="Page-1" stroke="none" stroke-width="1" fill="none" fill-rule="evenodd">
        <g id="RGV-Soluciones" transform="translate(-152.000000, -90.000000)">
            <g id="Page-1" transform="translate(152.000000, 90.000000)">
                <path d="M11.3743824,1.62033705 C10.8958441,1.00571851 10.0859226,0.698409237 8.94507272,0.698409237 L6.23942078,0.698409237 L6.23942078,8.35420831 L8.58594155,8.35420831 C9.78205987,8.35420831 10.6568024,8.04712924 11.2088045,7.43251069 C11.7605792,6.81743176 12.0369214,5.85844268 12.0369214,4.55439247 C12.0369214,3.19486546 11.8158477,2.21723064 11.3743824,1.62033705 Z M15.5154218,19 C14.7423459,19 14.0702544,18.8697101 13.5005117,18.6089 C12.4324434,18.1059257 11.7605792,17.1934358 11.4846919,15.8705097 L11.4021304,14.6691261 C11.3468619,13.775282 11.264073,12.9836441 11.1533087,12.2942124 C11.0429992,11.6052412 10.8499008,11.0184761 10.5735586,10.5339173 C9.98448339,9.54707472 9.01830909,9.05284774 7.67480825,9.05284774 L6.23942078,9.05284774 L6.23942078,17.966428 L8.97213834,17.966428 L8.97213834,18.6648372 L0,18.6648372 L0,17.966428 L2.73317244,17.966428 L2.73317244,0.698409237 L0,0.698409237 L0,0 L9.71792118,0 C11.7605792,0 13.2792105,0.335162772 14.2731328,1.00571851 C15.3034457,1.65785871 15.8190571,2.73792995 15.8190571,4.246853 C15.8190571,5.47655048 15.3402914,6.46408365 14.3834422,7.20853172 C13.4074879,7.97277651 11.9445799,8.50360436 9.99403596,8.80147567 C12.2946134,9.28626467 13.7484237,10.1333794 14.3559217,11.3439707 C14.6686547,11.9588195 14.8942773,12.629145 15.0323347,13.3558681 C15.1703921,14.0825913 15.2486322,14.864561 15.2668276,15.7031585 L15.2948029,17.0721235 C15.4051124,17.5007451 15.6259587,17.7983862 15.957342,17.966428 C16.1229199,18.0598868 16.41723,18.1059257 16.8404999,18.1059257 C17.13481,18.1059257 17.5210068,18.0780722 18,18.022135 L18,18.6648372 C17.079769,18.8883558 16.2511972,19 15.5154218,19 Z" id="Fill-1" fill="#FEFEFE"></path>
                <path d="M33.0495065,12.6576963 C32.9753615,14.6906153 32.2784452,16.251018 30.9599051,17.3400257 C29.640906,18.44675 27.9690872,19 25.9444487,19 C23.3622312,19 21.2356722,18.1112567 19.5638534,16.3326487 C17.8546178,14.5544893 17,12.3219787 17,9.63623809 C17,6.98705192 17.8640294,4.71865963 19.591629,2.83106122 C21.3189992,0.943911335 23.3902364,0 25.8051113,0 C26.7708317,0 27.6346316,0.136125963 28.3962813,0.40837789 C29.1765246,0.680405557 29.8174306,1.01657165 30.3187696,1.41530635 L31.4614737,0.272251927 L32.1023797,0.272251927 L32.1023797,5.52577222 L31.2943607,5.52577222 C30.7551458,3.67495249 30.0029076,2.41371292 29.0371872,1.74205352 C28.0524141,1.03451247 27.0400949,0.680405557 26.0002296,0.680405557 C24.2352131,0.680405557 22.9814064,1.22513367 22.2385798,2.31369286 C21.4767006,3.42086564 21.0963348,5.07254228 21.0963348,7.26805 L21.0963348,10.9699137 C21.0963348,13.5112307 21.4209197,15.3712451 22.0712373,16.5504054 C22.7215548,17.7302385 23.9567679,18.3198187 25.7773357,18.3198187 C26.7614202,18.3198187 27.5508455,18.0657319 28.1458413,17.5575582 C28.7771061,17.049833 29.0931976,16.1604169 29.0931976,14.8897584 L29.0931976,12.6576963 L26.2789043,12.6576963 L26.2789043,11.9772907 L35,11.9772907 L35,12.6576963 L33.0495065,12.6576963 Z" id="Fill-3" fill="#FEFEFE"></path>
                <polygon id="Fill-5" fill="#FEFEFE" points="49.632051 0.695351137 43.0137803 19 42.1575581 19 35.367949 0.695351137 33 0.695351137 33 0 42.0435675 0 42.0435675 0.695351137 39.1051954 0.695351137 43.9553191 13.7149647 48.7765339 0.695351137 45.8094879 0.695351137 45.8094879 0 52 0 52 0.695351137"></polygon>
                <g id="Group-9" transform="translate(0.000000, 23.000000)">
                    <mask id="mask-2" fill="white">
                        <use xlink:href="#path-1"></use>
                    </mask>
                    <g id="Clip-8"></g>
                    <path d="M0.159018502,1.93098143 C0.193899559,2.00893857 0.238234361,2.06649571 0.29267489,2.10341 C0.347115419,2.14032429 0.403185903,2.15878143 0.460886344,2.15878143 C0.492996476,2.15878143 0.52575859,2.15125286 0.559498678,2.13619571 C0.592912775,2.12138143 0.623555947,2.09879571 0.651102203,2.06892429 C0.678648458,2.03881 0.700815859,2.00189571 0.718419383,1.95769571 C0.735859912,1.91422429 0.744661674,1.86298143 0.744661674,1.80469571 C0.744661674,1.72309571 0.72705815,1.66043857 0.692177093,1.61769571 C0.657459031,1.57446714 0.614102203,1.53852429 0.562595595,1.50986714 C0.510762996,1.48072429 0.45436652,1.45255286 0.393243172,1.42559571 C0.332119824,1.39888143 0.276049339,1.36099571 0.22421674,1.31315286 C0.172710132,1.26555286 0.129353304,1.20071 0.0944722467,1.11983857 C0.059754185,1.03872429 0.0421506608,0.929438571 0.0421506608,0.791495714 C0.0421506608,0.72981 0.0512784141,0.66351 0.0693709251,0.593567143 C0.0876264317,0.523381429 0.115987665,0.459752857 0.154943612,0.40171 C0.193899559,0.343667143 0.243776211,0.295338571 0.304899559,0.256238571 C0.366022907,0.217138571 0.439533921,0.19771 0.525269604,0.19771 C0.603181498,0.19771 0.677507489,0.213738571 0.748573568,0.245795714 C0.819802643,0.27761 0.88206696,0.342695714 0.935855507,0.440567143 L0.778890749,0.653552857 C0.754604405,0.597452857 0.720538326,0.552524286 0.676040529,0.518767143 C0.631705727,0.484524286 0.581503084,0.467767143 0.525269604,0.467767143 C0.471644053,0.467767143 0.427146256,0.47821 0.39145022,0.499095714 C0.355754185,0.519981429 0.327392952,0.547181429 0.305714537,0.58021 C0.28452511,0.613238571 0.269203524,0.648695714 0.260564758,0.686581429 C0.251925991,0.724467143 0.24752511,0.759681429 0.24752511,0.791495714 C0.24752511,0.881352857 0.264802643,0.950324286 0.299846696,0.99841 C0.334727753,1.04625286 0.377921586,1.08559571 0.429591189,1.11546714 C0.481260793,1.14558143 0.537494273,1.17229571 0.598617621,1.19658143 C0.659740969,1.22013857 0.716137445,1.25365286 0.767644053,1.29688143 C0.819313656,1.33962429 0.862507489,1.39766714 0.897551542,1.47052429 C0.932269604,1.54362429 0.949873128,1.64416714 0.949873128,1.77215286 C0.949873128,1.87391 0.936670485,1.96595286 0.910591189,2.04755286 C0.884511894,2.12963857 0.84914185,2.19885286 0.804970044,2.25471 C0.760635242,2.31056714 0.708313656,2.35355286 0.648005286,2.38366714 C0.587533921,2.41353857 0.523150661,2.42859571 0.454692511,2.42859571 C0.363577974,2.42859571 0.277027313,2.40455286 0.19536652,2.35671 C0.113379736,2.30862429 0.0481814978,2.23503857 -6.51982379e-05,2.13473857 L0.159018502,1.93098143 Z" id="Fill-7" fill="#FEFEFE" mask="url(#mask-2)"></path>
                </g>
                <path d="M2.99978051,24.7583016 C3.11018437,24.7583016 3.20939421,24.7378334 3.29806848,24.6977681 C3.38652327,24.6572673 3.46224759,24.6032662 3.52568042,24.5353293 C3.58889377,24.466957 3.63762072,24.3868263 3.67208077,24.2945019 C3.70632133,24.2019597 3.72344162,24.1041916 3.72344162,24.0001089 C3.72344162,23.8960261 3.70632133,23.7980403 3.67208077,23.7057158 C3.63762072,23.6133914 3.58889377,23.5332608 3.52568042,23.4651062 C3.46224759,23.3969516 3.38652327,23.3427327 3.29806848,23.3024496 C3.20939421,23.2619488 3.11018437,23.2419162 2.99978051,23.2419162 C2.88981563,23.2419162 2.7903863,23.2619488 2.70193152,23.3024496 C2.61325724,23.3427327 2.53753292,23.3969516 2.47410009,23.4651062 C2.41088674,23.5332608 2.36237928,23.6133914 2.32769974,23.7057158 C2.29345917,23.7980403 2.27633889,23.8960261 2.27633889,24.0001089 C2.27633889,24.1041916 2.29345917,24.2019597 2.32769974,24.2945019 C2.36237928,24.3868263 2.41088674,24.466957 2.47410009,24.5353293 C2.53753292,24.6032662 2.61325724,24.6572673 2.70193152,24.6977681 C2.7903863,24.7378334 2.88981563,24.7583016 2.99978051,24.7583016 M2.99978051,25 C2.85359965,25 2.7190518,24.9747414 2.59613696,24.923571 C2.47344162,24.8724007 2.36808604,24.8020686 2.28050922,24.7123571 C2.1929324,24.6228634 2.12423178,24.5172564 2.07440737,24.3951007 C2.02502195,24.2731628 2,24.141644 2,24.0001089 C2,23.858356 2.02502195,23.7268372 2.07440737,23.6046815 C2.12423178,23.4831791 2.1929324,23.3773544 2.28050922,23.2876429 C2.36808604,23.1981492 2.47344162,23.1275993 2.59613696,23.0766467 C2.7190518,23.0254763 2.85359965,23 2.99978051,23 C3.14640035,23 3.28072871,23.0254763 3.40364355,23.0766467 C3.52655838,23.1275993 3.63191396,23.1981492 3.71949078,23.2876429 C3.8070676,23.3773544 3.87576822,23.4831791 3.92537313,23.6046815 C3.97497805,23.7268372 4,23.858356 4,24.0001089 C4,24.141644 3.97497805,24.2731628 3.92537313,24.3951007 C3.87576822,24.5172564 3.8070676,24.6228634 3.71949078,24.7123571 C3.63191396,24.8020686 3.52655838,24.8724007 3.40364355,24.923571 C3.28072871,24.9747414 3.14640035,25 2.99978051,25" id="Fill-10" fill="#FEFEFE"></path>
                <polygon id="Fill-12" fill="#FEFEFE" points="5 23 5.22820858 23 5.22820858 24.7457957 6 24.7457957 6 25 5 25"></polygon>
                <g id="Group-16" transform="translate(7.000000, 23.000000)">
                    <mask id="mask-4" fill="white">
                        <use xlink:href="#path-3"></use>
                    </mask>
                    <g id="Clip-15"></g>
                    <path d="M0.36802232,0.00800888889 L0.36802232,1.16444063 C0.36802232,1.22337397 0.376280764,1.28425016 0.392145668,1.34728508 C0.408445228,1.41010413 0.435176505,1.46860571 0.472556828,1.52192635 C0.510154479,1.57503111 0.559487812,1.61863746 0.620122173,1.65252952 C0.680973862,1.68598984 0.756169163,1.70325968 0.845708076,1.70325968 C0.935029662,1.70325968 1.01022496,1.68598984 1.07085932,1.65252952 C1.13192834,1.61863746 1.18104435,1.57503111 1.218642,1.52192635 C1.25645698,1.46860571 1.28297093,1.41010413 1.29905316,1.34728508 C1.31513539,1.28425016 1.32339383,1.22337397 1.32339383,1.16444063 L1.32339383,0.00800888889 L1.5811442,0.00800888889 L1.5811442,1.20480889 C1.5811442,1.31490413 1.56223671,1.41506921 1.52463906,1.50444063 C1.48682408,1.59424381 1.43510015,1.6719581 1.36881527,1.73758349 C1.30296505,1.80320889 1.22494449,1.85415492 1.13540558,1.8895581 C1.04586667,1.92539302 0.949590602,1.94287873 0.845708076,1.94287873 C0.742260206,1.94287873 0.645114831,1.92539302 0.556010573,1.8895581 C0.466471659,1.85415492 0.388885756,1.80320889 0.322600881,1.73758349 C0.256316006,1.6719581 0.204374743,1.59424381 0.166777093,1.50444063 C0.129179442,1.41506921 0.11048928,1.31490413 0.11048928,1.20480889 L0.11048928,0.00800888889 L0.36802232,0.00800888889 Z" id="Fill-14" fill="#FEFEFE" mask="url(#mask-4)"></path>
                </g>
                <path d="M11.6991287,23.4596625 C11.6358278,23.3899837 11.5556125,23.3362003 11.4589954,23.2983125 C11.3618657,23.2606424 11.2616607,23.2419162 11.158124,23.2419162 C11.0317786,23.2419162 10.9172219,23.2619488 10.8149667,23.3024496 C10.7124552,23.3427327 10.6250641,23.3978225 10.5520246,23.4677191 C10.4792414,23.5376157 10.4231164,23.6194883 10.3828806,23.7135547 C10.3429011,23.8078389 10.322655,23.9086554 10.322655,24.0162221 C10.322655,24.1168209 10.3416197,24.2117583 10.3800615,24.301252 C10.4177345,24.3907458 10.4725782,24.46957 10.5443362,24.5377246 C10.6160943,24.6058792 10.7037417,24.6596625 10.807022,24.6990746 C10.9103024,24.7384867 11.0276781,24.7583016 11.158124,24.7583016 C11.2870323,24.7583016 11.3995387,24.7358737 11.4966684,24.6908002 C11.5937981,24.6459445 11.6760636,24.5834513 11.7437212,24.5026674 L12,24.6666304 C11.9830856,24.686663 11.9536135,24.7147523 11.9110712,24.7515514 C11.8690415,24.7883506 11.8131727,24.824932 11.7437212,24.8615133 C11.6740133,24.8983125 11.5899539,24.9305389 11.4920554,24.9586282 C11.3941568,24.986282 11.280369,25 11.1519733,25 C10.9746284,25 10.8149667,24.9712575 10.6722194,24.9142079 C10.5299846,24.8567229 10.4087647,24.7813827 10.3085597,24.688405 C10.208611,24.5952096 10.1319836,24.4896026 10.0791902,24.3724551 C10.026653,24.2548721 10,24.1362003 10,24.0162221 C10,23.8692433 10.0287032,23.7333696 10.0855971,23.6090365 C10.142491,23.4842678 10.2221937,23.3769189 10.3247053,23.2863364 C10.4269605,23.1957539 10.5494618,23.1254219 10.692978,23.0753402 C10.8364941,23.0250408 10.9946181,23 11.1676064,23 C11.3154792,23 11.4602768,23.0241698 11.6027678,23.0725095 C11.7452588,23.1208492 11.8618657,23.1953185 11.9523321,23.2956995 L11.6991287,23.4596625 Z" id="Fill-17" fill="#FEFEFE"></path>
                <mask id="mask-6" fill="white">
                    <use xlink:href="#path-5"></use>
                </mask>
                <g id="Clip-20"></g>
                <polygon id="Fill-19" fill="#FEFEFE" mask="url(#mask-6)" points="12 25 12.5285714 25 12.5285714 23 12 23"></polygon>
                <path d="M15,24.7583016 C15.1104039,24.7583016 15.2098332,24.7378334 15.2980685,24.6977681 C15.3867428,24.6572673 15.4626866,24.6032662 15.5258999,24.5353293 C15.5891133,24.466957 15.6378402,24.3868263 15.6723003,24.2945019 C15.7067603,24.2019597 15.7236611,24.1041916 15.7236611,24.0001089 C15.7236611,23.8960261 15.7067603,23.7980403 15.6723003,23.7057158 C15.6378402,23.6133914 15.5891133,23.5332608 15.5258999,23.4651062 C15.4626866,23.3969516 15.3867428,23.3427327 15.2980685,23.3024496 C15.2098332,23.2619488 15.1104039,23.2419162 15,23.2419162 C14.8898156,23.2419162 14.7906058,23.2619488 14.7019315,23.3024496 C14.6134767,23.3427327 14.5377524,23.3969516 14.4743196,23.4651062 C14.4111062,23.5332608 14.3625988,23.6133914 14.3279192,23.7057158 C14.2936787,23.7980403 14.2763389,23.8960261 14.2763389,24.0001089 C14.2763389,24.1041916 14.2936787,24.2019597 14.3279192,24.2945019 C14.3625988,24.3868263 14.4111062,24.466957 14.4743196,24.5353293 C14.5377524,24.6032662 14.6134767,24.6572673 14.7019315,24.6977681 C14.7906058,24.7378334 14.8898156,24.7583016 15,24.7583016 M15,25 C14.8538191,25 14.7194908,24.9747414 14.5963565,24.923571 C14.4736611,24.8724007 14.3683055,24.8020686 14.2807287,24.7123571 C14.1929324,24.6228634 14.1244513,24.5172564 14.0746269,24.3951007 C14.0250219,24.2731628 14,24.141644 14,24.0001089 C14,23.858356 14.0250219,23.7268372 14.0746269,23.6046815 C14.1244513,23.4831791 14.1929324,23.3773544 14.2807287,23.2876429 C14.3683055,23.1981492 14.4736611,23.1275993 14.5963565,23.0766467 C14.7194908,23.0254763 14.8538191,23 15,23 C15.1464004,23 15.2811677,23.0254763 15.4040825,23.0766467 C15.5267779,23.1275993 15.631914,23.1981492 15.7194908,23.2876429 C15.8072871,23.3773544 15.8757682,23.4831791 15.9255926,23.6046815 C15.9751975,23.7268372 16,23.858356 16,24.0001089 C16,24.141644 15.9751975,24.2731628 15.9255926,24.3951007 C15.8757682,24.5172564 15.8072871,24.6228634 15.7194908,24.7123571 C15.631914,24.8020686 15.5267779,24.8724007 15.4040825,24.923571 C15.2811677,24.9747414 15.1464004,25 15,25" id="Fill-21" fill="#FEFEFE" mask="url(#mask-6)"></path>
                <polygon id="Fill-22" fill="#FEFEFE" mask="url(#mask-6)" points="17 23 17.4104458 23 18.6805592 24.6439767 18.6871538 24.6439767 18.6871538 23 19 23 19 25 18.6022158 25 17.319177 23.3557945 17.3128462 23.3557945 17.3128462 25 17 25"></polygon>
                <polygon id="Fill-23" fill="#FEFEFE" mask="url(#mask-6)" points="19 23 19.9623124 23 19.9623124 23.2539755 19.202251 23.2539755 19.202251 23.850246 19.909618 23.850246 19.909618 24.1044503 19.202251 24.1044503 19.202251 24.7457957 20 24.7457957 20 25 19 25"></polygon>
                <path d="M22.1672671,24.5538863 C22.2041517,24.6237753 22.2509864,24.6753756 22.3081146,24.7084694 C22.3652428,24.7415632 22.4244296,24.7581102 22.4851604,24.7581102 C22.5191285,24.7581102 22.5536113,24.7513608 22.5889518,24.737862 C22.6241208,24.7245809 22.6565449,24.7043327 22.6851947,24.6775528 C22.7141877,24.6505552 22.7378624,24.6174614 22.7562189,24.5778358 C22.7745754,24.5388635 22.7838394,24.492924 22.7838394,24.4406706 C22.7838394,24.3675158 22.7653114,24.3113433 22.7287699,24.2730242 C22.692057,24.2342695 22.6465946,24.2020466 22.5920398,24.1763553 C22.5376565,24.1502286 22.4784697,24.1249728 22.4139647,24.1008056 C22.3498027,24.0768561 22.2906159,24.0428914 22.2362326,24 C22.1818494,23.9573264 22.1362155,23.8991944 22.0995025,23.8266928 C22.0629611,23.7539734 22.044433,23.6559983 22.044433,23.5323318 C22.044433,23.4770303 22.0540401,23.417592 22.0730829,23.3548879 C22.0922971,23.291966 22.1221479,23.2349227 22.1633213,23.182887 C22.2041517,23.1308513 22.2566478,23.0875245 22.3209813,23.0524712 C22.3851432,23.0174178 22.462515,23 22.552925,23 C22.6349288,23 22.7131583,23.0143697 22.7879568,23.0431091 C22.8629267,23.0716307 22.9284611,23.1299804 22.9850746,23.2177226 L22.8196946,23.4086654 C22.7943043,23.3583714 22.7582776,23.3180927 22.7117859,23.2878293 C22.6651227,23.2571304 22.6122834,23.2421076 22.552925,23.2421076 C22.4963115,23.2421076 22.4496483,23.2514696 22.4120775,23.2701938 C22.3746783,23.2889179 22.3444845,23.3133029 22.3218391,23.3429131 C22.2993652,23.3725234 22.2835821,23.4043109 22.2744896,23.4382756 C22.2652256,23.4722404 22.2607651,23.5038101 22.2607651,23.5323318 C22.2607651,23.6128892 22.2789501,23.6747224 22.3154915,23.7178315 C22.3523761,23.7607228 22.3978384,23.7959939 22.4523932,23.8227738 C22.5067765,23.8497714 22.5657917,23.8737209 22.6302968,23.8954931 C22.6944587,23.9166122 22.7536456,23.946658 22.8082004,23.9854126 C22.8625836,24.0237318 22.9078744,24.0757675 22.944759,24.1410843 C22.9813004,24.2066188 23,24.2967559 23,24.4114958 C23,24.5027215 22.986104,24.5852384 22.9584834,24.6583932 C22.9308629,24.7319835 22.8939784,24.7940344 22.8473151,24.8441106 C22.8006519,24.8941868 22.7455824,24.9327237 22.6821067,24.9597213 C22.618631,24.9865012 22.5506948,25 22.4786413,25 C22.3827415,25 22.2918168,24.9784455 22.2056957,24.9355541 C22.119403,24.892445 22.0507806,24.8264751 22,24.7365556 L22.1672671,24.5538863 Z" id="Fill-24" fill="#FEFEFE" mask="url(#mask-6)"></path>
                <polygon id="Fill-25" fill="#FEFEFE" mask="url(#mask-6)" points="25 23 25.9623188 23 25.9623188 23.2539755 25.2022165 23.2539755 25.2022165 23.850246 25.9094629 23.850246 25.9094629 24.1044503 25.2022165 24.1044503 25.2022165 24.7457957 26 24.7457957 26 25 25 25"></polygon>
                <path d="M27.1672958,24.5538863 C27.2040151,24.6237753 27.2508579,24.6753756 27.3081675,24.7084694 C27.3653054,24.7415632 27.4243308,24.7581102 27.4850721,24.7581102 C27.519046,24.7581102 27.5535347,24.7513608 27.5888813,24.737862 C27.6240563,24.7245809 27.6564859,24.7043327 27.6853123,24.6775528 C27.7143102,24.6505552 27.7378174,24.6174614 27.7561771,24.5778358 C27.7747083,24.5388635 27.7838023,24.492924 27.7838023,24.4406706 C27.7838023,24.3675158 27.7654427,24.3113433 27.7287234,24.2730242 C27.6920041,24.2342695 27.646534,24.2020466 27.5921414,24.1763553 C27.5377488,24.1502286 27.4783802,24.1249728 27.4140357,24.1008056 C27.3498627,24.0768561 27.2904942,24.0428914 27.2361016,24 C27.1818806,23.9573264 27.1360673,23.8991944 27.0995196,23.8266928 C27.0628003,23.7539734 27.0444406,23.6559983 27.0444406,23.5323318 C27.0444406,23.4770303 27.0538778,23.417592 27.0729238,23.3548879 C27.092313,23.291966 27.1221688,23.2349227 27.1631778,23.182887 C27.2040151,23.1308513 27.2566918,23.0875245 27.3210364,23.0524712 C27.3852093,23.0174178 27.4624228,23 27.5528483,23 C27.6348662,23 27.7132807,23.0143697 27.788092,23.0431091 C27.8630748,23.0716307 27.9286205,23.1299804 27.9852437,23.2177226 L27.8198353,23.4086654 C27.7944406,23.3583714 27.7584077,23.3180927 27.7117364,23.2878293 C27.6652368,23.2571304 27.6122169,23.2421076 27.5528483,23.2421076 C27.4963967,23.2421076 27.4495539,23.2514696 27.4119767,23.2701938 C27.374571,23.2889179 27.3445436,23.3133029 27.3218943,23.3429131 C27.2994166,23.3725234 27.2834592,23.4043109 27.2743651,23.4382756 C27.2650995,23.4722404 27.2606383,23.5038101 27.2606383,23.5323318 C27.2606383,23.6128892 27.2788264,23.6747224 27.3155456,23.7178315 C27.3522649,23.7607228 27.3979067,23.7959939 27.4522992,23.8227738 C27.5066918,23.8497714 27.5658888,23.8737209 27.6302334,23.8954931 C27.6944063,23.9166122 27.7537749,23.946658 27.8081675,23.9854126 C27.8625601,24.0237318 27.9078586,24.0757675 27.9447495,24.1410843 C27.9814688,24.2066188 28,24.2967559 28,24.4114958 C28,24.5027215 27.9861016,24.5852384 27.9584763,24.6583932 C27.9310226,24.7319835 27.8939602,24.7940344 27.8472889,24.8441106 C27.8007893,24.8941868 27.7457104,24.9327237 27.6820522,24.9597213 C27.6185655,24.9865012 27.5506177,25 27.4785518,25 C27.3826356,25 27.2916953,24.9784455 27.2055594,24.9355541 C27.1194235,24.892445 27.0507893,24.8264751 27,24.7365556 L27.1672958,24.5538863 Z" id="Fill-26" fill="#FEFEFE" mask="url(#mask-6)"></path>
                <polygon id="Fill-27" fill="#FEFEFE" mask="url(#mask-6)" points="29.8261189 23.2539755 29 23.2539755 29 23 31 23 31 23.2539755 30.1741746 23.2539755 30.1741746 25 29.8261189 25"></polygon>
                <path d="M32.1909515,23.8814916 L32.4414748,23.8814916 C32.4786669,23.8814916 32.5153759,23.876916 32.551763,23.8684512 C32.5883111,23.8602151 32.620673,23.844658 32.6493318,23.8217799 C32.6775076,23.7993594 32.7006923,23.7671013 32.7177588,23.7243194 C32.7349863,23.6822237 32.7436806,23.6273164 32.7436806,23.5593686 C32.7436806,23.4916495 32.7349863,23.4365134 32.7177588,23.3939602 C32.7006923,23.3518646 32.6775076,23.3191489 32.6493318,23.2964997 C32.620673,23.2743079 32.5883111,23.2585221 32.551763,23.2500572 C32.5153759,23.2413635 32.4786669,23.2374743 32.4414748,23.2374743 L32.1909515,23.2374743 L32.1909515,23.8814916 Z M32,23 L32.4952504,23 C32.585091,23 32.6594751,23.0173873 32.7177588,23.052162 C32.7762035,23.0869366 32.8222508,23.1313201 32.8560618,23.1850835 C32.8898728,23.2386182 32.9132185,23.2990162 32.9264209,23.3658202 C32.9397843,23.4326241 32.9462244,23.4971402 32.9462244,23.5593686 C32.9462244,23.6231984 32.9384962,23.6851979 32.9225568,23.7442233 C32.9064563,23.8037062 32.8837546,23.8574697 32.8538078,23.9052848 C32.8241829,23.9531 32.7876348,23.9938229 32.7444856,24.0267673 C32.7016583,24.0597117 32.653518,24.0798444 32.6003864,24.087623 L33,25 L32.7615521,25 L32.4036387,24.1185084 L32.1909515,24.1185084 L32.1909515,25 L32,25 L32,23 Z" id="Fill-28" fill="#FEFEFE" mask="url(#mask-6)"></path>
                <path d="M35.3788648,24.2685047 L35.0027688,23.3503032 L34.9972312,23.3503032 L34.6153669,24.2685047 L35.3788648,24.2685047 Z M34.8887863,23 L35.1365944,23 L36,25 L35.6808952,25 L35.4785418,24.5057774 L34.5184587,24.5057774 L34.3191048,25 L34,25 L34.8887863,23 Z" id="Fill-29" fill="#FEFEFE" mask="url(#mask-6)"></path>
                <polygon id="Fill-30" fill="#FEFEFE" mask="url(#mask-6)" points="36.8258254 23.2539755 36 23.2539755 36 23 38 23 38 23.2539755 37.1738811 23.2539755 37.1738811 25 36.8258254 25"></polygon>
                <path d="M39.5327422,23 L39.8021828,23 L39.4884038,23.4840643 L39.313779,23.4840643 L39.5327422,23 Z M39,23.6186325 L39.9623124,23.6186325 L39.9623124,23.9212749 L39.202251,23.9212749 L39.202251,24.6308908 L39.9094475,24.6308908 L39.9094475,24.9338055 L39.202251,24.9338055 L39.202251,25.6970853 L40,25.6970853 L40,26 L39,26 L39,23.6186325 Z" id="Fill-31" fill="#FEFEFE" mask="url(#mask-6)"></path>
                <path d="M43,23.8873163 L43,24.8255852 C42.9464196,24.85411 42.8855784,24.8793685 42.8174762,24.9004899 C42.7496244,24.9222646 42.6790185,24.9405553 42.6059089,24.9555797 C42.5325488,24.9712575 42.4584377,24.9823625 42.383325,24.9895482 C42.3079619,24.9967338 42.237356,25 42.1712569,25 C41.985979,25 41.8204807,24.9729995 41.6752629,24.9194339 C41.5300451,24.8656505 41.4076114,24.7929232 41.3074612,24.7016875 C41.2075613,24.6102341 41.1314472,24.5039739 41.0788683,24.3831247 C41.0262894,24.2620577 41,24.1344584 41,24.0001089 C41,23.858356 41.0280421,23.7268372 41.0848773,23.6046815 C41.1414622,23.4831791 41.2200801,23.3773544 41.3197296,23.2876429 C41.4196294,23.1981492 41.5398097,23.1275993 41.6802704,23.0766467 C41.8202303,23.0254763 41.9734602,23 42.1404607,23 C42.3425138,23 42.5072609,23.0217746 42.6352028,23.0659771 C42.7631447,23.1099619 42.8700551,23.1702776 42.956685,23.2475776 L42.7466199,23.4435493 C42.655984,23.368209 42.5598398,23.3157322 42.4589384,23.2863364 C42.3582874,23.2567229 42.2518778,23.2419162 42.1404607,23.2419162 C42.0145218,23.2419162 41.9016024,23.2619488 41.8004507,23.3024496 C41.6997997,23.3427327 41.6131698,23.3969516 41.5408112,23.4651062 C41.4687031,23.5332608 41.4131197,23.6133914 41.3740611,23.7057158 C41.3350025,23.7980403 41.3152228,23.8960261 41.3152228,24.0001089 C41.3152228,24.1076756 41.3367551,24.2076211 41.3800701,24.2999456 C41.4233851,24.3920523 41.4829745,24.4724007 41.559339,24.5403375 C41.6357036,24.6087099 41.725338,24.6620577 41.8282424,24.7003811 C41.9311467,24.7389222 42.0435653,24.7583016 42.1654982,24.7583016 C42.2704056,24.7583016 42.3698047,24.7498095 42.4634452,24.7328253 C42.557336,24.7156233 42.6374562,24.6908002 42.703305,24.6585738 L42.703305,24.1292324 L42.2180771,24.1292324 L42.2180771,23.8873163 L43,23.8873163 Z" id="Fill-32" fill="#FEFEFE" mask="url(#mask-6)"></path>
                <polygon id="Fill-33" fill="#FEFEFE" mask="url(#mask-6)" points="44 25 44.5285714 25 44.5285714 23 44 23"></polygon>
                <path d="M46.6991287,23.4596625 C46.6358278,23.3899837 46.5556125,23.3362003 46.4589954,23.2983125 C46.3618657,23.2606424 46.2616607,23.2419162 46.158124,23.2419162 C46.0317786,23.2419162 45.9172219,23.2619488 45.8149667,23.3024496 C45.7124552,23.3427327 45.6250641,23.3978225 45.5520246,23.4677191 C45.4794977,23.5376157 45.4231164,23.6194883 45.3828806,23.7135547 C45.3429011,23.8078389 45.322655,23.9086554 45.322655,24.0162221 C45.322655,24.1168209 45.341876,24.2117583 45.3800615,24.301252 C45.4177345,24.3907458 45.4725782,24.46957 45.54408,24.5377246 C45.6160943,24.6058792 45.7037417,24.6596625 45.807022,24.6990746 C45.9103024,24.7384867 46.0276781,24.7583016 46.158124,24.7583016 C46.2870323,24.7583016 46.3995387,24.7358737 46.4966684,24.6908002 C46.5937981,24.6459445 46.6760636,24.5834513 46.7437212,24.5026674 L47,24.6666304 C46.9830856,24.686663 46.9536135,24.7147523 46.9110712,24.7515514 C46.8690415,24.7883506 46.8131727,24.824932 46.7437212,24.8615133 C46.6740133,24.8983125 46.5899539,24.9305389 46.4920554,24.9586282 C46.3941568,24.986282 46.280369,25 46.1519733,25 C45.9746284,25 45.8149667,24.9712575 45.6722194,24.9142079 C45.5299846,24.8567229 45.4087647,24.7813827 45.3085597,24.688405 C45.208611,24.5952096 45.1319836,24.4896026 45.0791902,24.3724551 C45.026653,24.2548721 45,24.1362003 45,24.0162221 C45,23.8692433 45.028447,23.7333696 45.0855971,23.6090365 C45.142491,23.4842678 45.2221937,23.3769189 45.3247053,23.2863364 C45.4269605,23.1957539 45.5494618,23.1254219 45.692978,23.0753402 C45.8364941,23.0250408 45.9946181,23 46.1676064,23 C46.3154792,23 46.4602768,23.0241698 46.6027678,23.0725095 C46.7452588,23.1208492 46.8618657,23.1953185 46.9523321,23.2956995 L46.6991287,23.4596625 Z" id="Fill-34" fill="#FEFEFE" mask="url(#mask-6)"></path>
                <path d="M48.3790955,24.2685047 L48.0027688,23.3503032 L47.9972312,23.3503032 L47.6153669,24.2685047 L48.3790955,24.2685047 Z M47.8887863,23 L48.1365944,23 L49,25 L48.6808952,25 L48.4787725,24.5057774 L47.5186894,24.5057774 L47.3191048,25 L47,25 L47.8887863,23 Z" id="Fill-35" fill="#FEFEFE" mask="url(#mask-6)"></path>
                <path d="M50.1672671,24.5538863 C50.2041517,24.6237753 50.2509864,24.6753756 50.3081146,24.7084694 C50.3654143,24.7415632 50.4244296,24.7581102 50.4851604,24.7581102 C50.5191285,24.7581102 50.5536113,24.7513608 50.5889518,24.737862 C50.6241208,24.7245809 50.6565449,24.7043327 50.6853663,24.6775528 C50.7141877,24.6505552 50.7378624,24.6174614 50.7562189,24.5778358 C50.774747,24.5388635 50.7838394,24.492924 50.7838394,24.4406706 C50.7838394,24.3675158 50.7653114,24.3113433 50.7287699,24.2730242 C50.692057,24.2342695 50.6465946,24.2020466 50.5920398,24.1763553 C50.5376565,24.1502286 50.4784697,24.1249728 50.4141362,24.1008056 C50.3498027,24.0768561 50.2906159,24.0428914 50.2362326,24 C50.1820209,23.9573264 50.1362155,23.8991944 50.0995025,23.8266928 C50.0629611,23.7539734 50.044433,23.6559983 50.044433,23.5323318 C50.044433,23.4770303 50.0540401,23.417592 50.0730829,23.3548879 C50.0922971,23.291966 50.1223194,23.2349227 50.1633213,23.182887 C50.2041517,23.1308513 50.2566478,23.0875245 50.3209813,23.0524712 C50.3851432,23.0174178 50.462515,23 50.552925,23 C50.6349288,23 50.7131583,23.0143697 50.7879568,23.0431091 C50.8629267,23.0716307 50.9284611,23.1299804 50.9850746,23.2177226 L50.8196946,23.4086654 C50.7943043,23.3583714 50.7584491,23.3180927 50.7117859,23.2878293 C50.6651227,23.2571304 50.6122834,23.2421076 50.552925,23.2421076 C50.4964831,23.2421076 50.4496483,23.2514696 50.4120775,23.2701938 C50.3746783,23.2889179 50.344656,23.3133029 50.3220106,23.3429131 C50.2993652,23.3725234 50.2835821,23.4043109 50.2744896,23.4382756 C50.2652256,23.4722404 50.2607651,23.5038101 50.2607651,23.5323318 C50.2607651,23.6128892 50.2789501,23.6747224 50.3154915,23.7178315 C50.3523761,23.7607228 50.3978384,23.7959939 50.4523932,23.8227738 C50.5067765,23.8497714 50.5659633,23.8737209 50.6302968,23.8954931 C50.6944587,23.9166122 50.7536456,23.946658 50.8082004,23.9854126 C50.8625836,24.0237318 50.9078744,24.0757675 50.944759,24.1410843 C50.9813004,24.2066188 51,24.2967559 51,24.4114958 C51,24.5027215 50.986104,24.5852384 50.9584834,24.6583932 C50.9310345,24.7319835 50.8939784,24.7940344 50.8473151,24.8441106 C50.8006519,24.8941868 50.7455824,24.9327237 50.6821067,24.9597213 C50.618631,24.9865012 50.5506948,25 50.4786413,25 C50.3827415,25 50.2918168,24.9784455 50.2056957,24.9355541 C50.119403,24.892445 50.0509521,24.8264751 50,24.7365556 L50.1672671,24.5538863 Z" id="Fill-36" fill="#FEFEFE" mask="url(#mask-6)"></path>
                <polygon id="Fill-37" fill="#FEFEFE" mask="url(#mask-6)" points="0 21.8095238 52 21.8095238 52 21 0 21"></polygon>
            </g>
        </g>
    </g>
</svg>