<?xml version="1.0" encoding="UTF-8"?>
<svg width="114px" height="28px" viewBox="0 0 114 28" version="1.1" xmlns="http://www.w3.org/2000/svg" xmlns:xlink="http://www.w3.org/1999/xlink">
    <!-- Generator: Sketch 50.2 (55047) - http://www.bohemiancoding.com/sketch -->
    <title>Neulift</title>
    <desc>Created with Sketch.</desc>
    <defs>
        <polygon id="path-1" points="0.0314737879 0.115040831 7.6238556 0.115040831 7.6238556 16.2588208 0.0314737879 16.2588208"></polygon>
        <polygon id="path-3" points="0 0.101642242 13.6963958 0.101642242 13.6963958 22.1186838 0 22.1186838"></polygon>
    </defs>
    <g id="Page-1" stroke="none" stroke-width="1" fill="none" fill-rule="evenodd">
        <g id="Portafolio-|-Es-|-Hoovers-Copy" transform="translate(-645.000000, -792.000000)">
            <g id="Neulift" transform="translate(645.000000, 792.000000)">
                <g id="Group-13" transform="translate(38.000000, 4.000000)">
                    <path d="M12.8990934,0.75215342 L12.8990934,18.0099797 C12.4584232,18.0858856 11.578112,18.1363636 11.2414013,18.1363636 C10.904562,18.1363636 10.1275671,18.1110617 9.58358059,18.0351558 L4.06664651,7.41714338 C3.44494765,6.14990531 2.90096114,4.95920253 2.43455833,3.8947578 L2.33124207,3.91993389 C2.43455833,5.66853863 2.56412182,8.22806497 2.56412182,10.1286074 L2.56412182,18.0351558 C2.09784767,18.1110617 1.65769208,18.1363636 1.29512019,18.1363636 C0.932676956,18.1363636 0.440155589,18.1110617 0,18.0351558 L0,0.75215342 C0.440155589,0.676121654 1.29512019,0.62539185 1.63195951,0.62539185 C1.99440274,0.62539185 2.74566509,0.651071453 3.28965159,0.726977339 L8.75486321,11.3449897 C9.40216598,12.6629576 9.97188506,13.9805478 10.4644064,15.019313 L10.5678513,14.9942628 C10.4382879,12.9668329 10.3605755,10.3565768 10.3605755,8.60834968 L10.3605755,2.29809071 C10.3605755,1.10675853 10.7231474,0.62539185 11.837239,0.62539185 L12.7437974,0.62539185 L12.8990934,0.75215342 Z" id="Fill-1" fill="#FFFFFF"></path>
                    <path d="M18.8114928,10.5090719 L23.9330953,10.5090719 L23.9330953,10.1807506 C23.9330953,8.4128087 23.2234059,6.94784578 21.3974827,6.94784578 C19.7748316,6.94784578 18.9383175,8.28647337 18.8114928,10.5090719 Z M18.8114928,12.4032237 C18.9131288,14.4994869 19.5976297,16.0146326 21.7527682,16.0146326 C23.0201337,16.0146326 24.2119334,15.6105352 25.2769083,15.0548856 C25.7077597,15.4591085 26.0122901,16.1915272 26.1134224,16.7219599 C24.8964342,17.5808395 23.1217698,18.1363636 21.3471054,18.1363636 C17.3408551,18.1363636 16.1238668,15.0043264 16.1238668,11.5950288 C16.1238668,7.83181673 17.898909,5.0031348 21.4230491,5.0031348 C24.6936658,5.0031348 26.4431415,7.40212605 26.4431415,10.4077025 C26.4431415,11.2160228 26.3922605,11.6957709 26.2654358,12.4032237 L18.8114928,12.4032237 Z" id="Fill-3" fill="#FFFFFF"></path>
                    <path d="M30.1176857,8.38082451 C30.1176857,7.52035759 30.0116795,6.73398677 29.6679149,6.16904977 C30.0647483,5.84947219 30.7256119,5.62852665 31.387001,5.62852665 C32.4448294,5.62852665 32.8411374,6.16904977 32.8411374,7.22568215 L32.8411374,13.4923569 C32.8411374,15.1387064 33.1850334,15.8513473 34.4810144,15.8513473 C35.5120457,15.8513473 36.8344298,15.2860441 37.7866461,14.3522135 L37.7866461,5.77586436 C38.1568138,5.72654834 38.659128,5.67735439 39.1614421,5.67735439 C39.637616,5.67735439 40.1399301,5.72654834 40.5363695,5.77586436 L40.5363695,14.4747711 C40.5363695,15.4333818 40.6954444,16.3182626 41.2770989,16.8094697 C41.1185495,17.276385 40.6954444,17.8416882 40.2455422,18.0875359 C39.0822331,17.8910042 38.3683007,17.227069 38.0244046,16.3182626 C36.8607014,17.3499928 35.3005589,18.1363636 33.6081385,18.1363636 C31.148717,18.1363636 30.1176857,16.3669683 30.1176857,14.1064878 L30.1176857,8.38082451 Z" id="Fill-5" fill="#FFFFFF"></path>
                    <path d="M48.1541885,16.148533 C48.2749462,16.4920696 48.3716003,16.9583674 48.3716003,17.4250309 C48.3716003,17.5965554 48.3472569,17.7928271 48.2992896,17.9647173 C47.7439481,18.0627313 46.8990041,18.1363636 46.2473682,18.1363636 C44.677878,18.1363636 43.8569176,17.3022696 43.8569176,15.6087248 L43.8569176,0.147630495 L44.0261223,0 L44.9678404,0 C46.0057329,0 46.3196789,0.491045114 46.3196789,1.61991248 L46.3196789,15.0440473 C46.3196789,15.7802492 46.6091616,16.148533 47.2609174,16.148533 L48.1541885,16.148533 Z" id="Fill-7" fill="#FFFFFF"></path>
                    <path d="M52.4984139,0.92921017 C52.7834488,0.751972341 53.3293429,0.62539185 53.8042437,0.62539185 C54.231737,0.62539185 54.8487425,0.751972341 55.1098377,0.92921017 C55.252532,1.23265139 55.3237612,1.71345614 55.3237612,2.06755469 C55.3237612,2.42215605 55.252532,2.87731788 55.1098377,3.1812619 C54.8726821,3.38363985 54.231737,3.51022034 53.8042437,3.51022034 C53.3293429,3.51022034 52.7595091,3.38363985 52.4984139,3.1812619 C52.3560734,2.87731788 52.2848442,2.42215605 52.2848442,2.06755469 C52.2848442,1.68831602 52.3560734,1.23265139 52.4984139,0.92921017 Z M55.4661017,18.0353004 C55.1337773,18.1112235 54.6826982,18.1363636 54.2553228,18.1363636 C53.8042437,18.1363636 53.3532826,18.1112235 53.0210761,18.0353004 L53.0210761,8.77380675 C53.0210761,7.86260319 52.7595091,7.4577216 51.9762235,7.4577216 L51.7150104,7.4577216 C51.6438991,7.12863746 51.5963737,6.85033636 51.5963737,6.52125222 C51.5963737,6.217811 51.6438991,5.91399268 51.7150104,5.55976842 C52.308548,5.48397097 52.8782638,5.45883085 53.2104703,5.45883085 L53.5431485,5.45883085 C54.7299878,5.45883085 55.4661017,6.31887427 55.4661017,7.71088258 L55.4661017,18.0353004 Z" id="Fill-9" fill="#FFFFFF"></path>
                    <path d="M60.9420973,7.7869658 L58.791142,7.83546685 C58.7160971,7.51802744 58.690875,7.20070928 58.690875,6.88375488 C58.690875,6.56631547 58.7160971,6.27324784 58.791142,5.95580843 L60.816981,5.98054397 C60.7420604,5.22368499 60.6670155,4.49144029 60.6670155,3.80781791 C60.6670155,1.63545561 62.0677705,0 64.5185326,0 C65.6442058,0 66.9450666,0.268574598 67.7202404,0.561157218 C67.7202404,1.14753499 67.49523,1.87965843 67.1203784,2.27021318 C66.4698237,2.07499643 65.6695521,1.90390895 64.9689261,1.90390895 C63.8184036,1.90390895 63.1183988,2.63615365 63.1183988,3.9545336 C63.1183988,4.58892742 63.1933195,5.29680033 63.2932136,6.00479449 L66.8199504,5.95580843 C66.894871,6.27324784 66.9197203,6.56631547 66.9197203,6.88375488 C66.9197203,7.20070928 66.894871,7.51802744 66.8199504,7.83546685 L63.4684012,7.7869658 L63.4684012,18.0388765 C63.0682032,18.1119919 62.6178097,18.1363636 62.1927625,18.1363636 C61.7926887,18.1363636 61.3170732,18.1119919 60.9420973,18.0388765 L60.9420973,7.7869658 Z" id="Fill-11" fill="#FFFFFF"></path>
                    <g id="Group-15" transform="translate(68.365195, 1.876176)">
                        <mask id="mask-2" fill="white">
                            <use xlink:href="#path-1"></use>
                        </mask>
                        <g id="Clip-14"></g>
                        <path d="M7.62388017,4.82704625 C7.62388017,5.17405344 7.59931047,5.47141779 7.50017173,5.79391152 L4.45819695,5.74463822 L4.45819695,13.1594072 C4.45819695,13.8287849 4.7303064,14.2501948 5.47255709,14.2501948 L7.17867718,14.2501948 C7.30238563,14.5973252 7.37683182,15.0935073 7.37683182,15.5400465 C7.37683182,15.7133654 7.37683182,15.9116904 7.32732387,16.0855019 C6.51087268,16.1844181 5.54675759,16.2588208 4.55745855,16.2588208 C2.87553961,16.2588208 1.96031822,15.416001 1.96031822,13.7047394 L1.96031822,5.76927487 L0.130612534,5.79391152 C0.0560434897,5.47141779 0.0314737879,5.17405344 0.0314737879,4.82704625 C0.0314737879,4.50455251 0.0560434897,4.23182481 0.130612534,3.88444807 L1.96031822,3.93409092 L1.96031822,1.75177658 C1.96031822,0.611222934 2.25736592,0.115040831 3.32086546,0.115040831 L4.28547195,0.115040831 L4.45819695,0.288729203 L4.45819695,3.95872756 L7.50017173,3.88444807 C7.59931047,4.23182481 7.62388017,4.50455251 7.62388017,4.82704625" id="Fill-13" fill="#FFFFFF" mask="url(#mask-2)"></path>
                    </g>
                </g>
                <g id="Group-7">
                    <path d="M28.7871122,13.8261203 C28.4865716,12.7526414 27.9222949,11.8101151 27.2542624,10.9340809 C26.6923901,10.1625872 26.0178844,9.43874621 25.4101449,8.69698927 C24.9633103,8.15193829 24.4489697,7.71493707 23.956268,7.21255189 C23.5972837,6.84666034 23.2336757,6.48464749 22.8573064,6.13648717 C21.7688868,5.12950041 20.6754737,4.12768527 19.5791014,3.12901003 C19.0775221,2.67224586 18.564846,2.22785662 18.0573484,1.77811106 C18.0449569,1.78660728 18.0327503,1.7951035 18.0203588,1.80378442 C18.0519849,1.86418147 18.0804669,1.92642551 18.1156071,1.98460615 C18.8474467,3.2006738 19.3839811,4.50650586 19.8570783,5.83764187 C20.4015655,7.36991666 20.8661552,8.92878831 21.1622571,10.5290329 C21.404909,11.8394824 21.6188939,13.1569506 21.7894161,14.4784822 C21.9481015,15.7102494 21.9505058,16.9529139 21.8728276,18.1941008 C21.7886763,19.5342872 21.5497233,20.8395651 21.009305,22.0772427 C20.5534079,23.1211696 19.8949927,24.0027447 18.9079247,24.6039446 C18.069555,25.1146413 17.1647889,25.4415611 16.1897425,25.5978177 C15.2074832,25.7555518 14.2448283,25.6992182 13.308806,25.3892909 C11.4012514,24.7579848 10.2797261,23.4364532 9.96069064,21.4527705 C9.90687074,21.1179087 9.9163031,20.7728883 9.89540396,20.4147541 C10.4498784,20.5577123 10.9433199,20.6954988 11.441755,20.8114906 C12.1948636,20.9871408 12.9599939,21.0730265 13.7225349,20.9038409 C14.5572057,20.718771 14.7256934,20.3384728 14.6781617,19.7077209 C14.64857,19.3150477 14.6426517,18.9175724 14.6642906,18.5245299 C14.6837102,18.1750767 14.8435053,17.8917462 15.1934271,17.7473105 C15.3018067,17.702613 15.4061174,17.6401842 15.500256,17.5698134 C15.7602931,17.3749544 15.7823019,17.1189596 15.5869967,16.8651812 C15.5093185,16.7641501 15.4638213,16.6383691 15.3952055,16.5072318 C15.5494522,16.4512675 15.6765116,16.4097099 15.8002418,16.3594714 C16.0571347,16.254931 16.2221084,16.0977509 16.2579884,15.7898553 C16.2853607,15.555101 16.1540475,15.4426185 16.0530659,15.2767575 C15.6848342,14.6726024 15.9149097,14.0612439 16.5664818,13.7995234 C16.9321242,13.6528713 17.292588,13.489042 17.6439894,13.3108061 C18.0138856,13.1231504 18.0549441,12.9633846 17.8119223,12.6211347 C17.5977524,12.3198883 17.3612038,12.0319403 17.1142981,11.7561825 C16.4555129,11.020336 16.1579315,10.1391302 16.0371604,9.1807197 C16.0142268,8.99952858 16.0759995,8.93783864 16.2587282,8.95797098 C16.6687581,9.00377669 17.0214541,8.86432786 17.3223647,8.59134062 C17.3787738,8.5401786 17.4128043,8.46445143 17.5010245,8.33626933 C16.9901979,8.43379115 16.5439181,8.64878246 16.1377721,8.32167799 C17.1052356,5.43850424 17.128909,2.65950153 15.4834258,0 C15.4834258,0.410958463 15.4898989,0.802153979 15.4823161,1.19316479 C15.4525394,2.73799921 15.1932422,4.23832083 14.595305,5.67159618 C13.9896,7.12315688 13.1101718,8.38133623 11.9067145,9.39922032 C10.3152361,10.7451324 9.23162524,12.3922908 8.86949687,14.4651838 C8.65625171,15.6862383 8.67955517,16.9026754 9.05684929,18.0971331 C9.06591175,18.1261311 9.05795898,18.1604853 9.05795898,18.2593001 C7.89389566,16.6976579 7.49551746,15.0811597 8.22846677,13.2723884 C8.17372213,13.3228116 8.127855,13.3730501 8.10085258,13.4317849 C7.81270344,14.0612439 7.47961192,14.6753729 7.25064618,15.3255184 C6.60166331,17.1682746 6.42374324,19.0642246 6.75128632,20.9965605 C6.94529687,22.138748 7.34404497,23.2081635 8.02853787,24.1490275 C8.96252576,25.4328802 10.1713465,26.4117925 11.5438463,27.1960305 C12.9734951,28.0131452 14.4889598,28.2070807 16.0754446,27.7793145 C17.4035569,27.4209956 18.5907387,26.7603222 19.7094898,25.9807017 C21.871533,24.4733614 23.856396,22.7504758 25.7526688,20.9256355 C26.7965159,19.9208652 27.754732,18.8399982 28.4368205,17.5494963 C29.0645344,16.3622419 29.1464664,15.109973 28.7871122,13.8261203" id="Fill-16" fill="#FFFFFF"></path>
                    <g id="Group-20" transform="translate(0.000000, 0.651163)">
                        <mask id="mask-4" fill="white">
                            <use xlink:href="#path-3"></use>
                        </mask>
                        <g id="Clip-19"></g>
                        <path d="M5.37499283,13.7178191 C5.85942465,12.5896102 6.57578042,11.6212778 7.39132937,10.7260784 C8.70266678,9.28682714 10.1053897,7.93377491 11.2939334,6.37947068 C12.4492944,4.86835669 13.3354675,3.22803492 13.5975575,1.29518094 C13.650082,0.907194663 13.6642778,0.513764239 13.6963958,0.122874419 C13.6731502,0.115797026 13.6499045,0.108719634 13.6264815,0.101642242 C13.2311283,0.412503088 12.8334684,0.720460389 12.4407769,1.03495067 C11.8225497,1.53000518 11.2030802,2.02397087 10.584853,2.51902539 C10.5784649,2.51467007 10.5720767,2.51031475 10.5656886,2.50595944 C10.246283,2.77998155 9.92119913,3.04638185 9.59788969,3.3156857 C9.28824371,3.56575356 8.97717815,3.81418818 8.6687743,4.06607076 C7.77656801,4.79504217 6.88773322,5.52891331 6.01682063,6.28437957 C5.07155752,7.07359954 3.99533811,8.00218971 3.01565017,9.03040778 C2.83749283,9.19953931 2.6582708,9.36685612 2.48046836,9.53598765 C2.22228217,9.78224461 2.01981451,10.0511855 1.87413007,10.3468027 C0.252081993,12.424834 -0.686438112,14.7895904 0.606977098,17.159065 C0.892845105,17.6826106 2.3686764,19.2000761 3.6045986,20.4417048 C3.90146836,20.7714387 4.20543601,21.0950025 4.52288969,21.4071337 C4.75463619,21.635062 4.99454528,21.8540982 5.27473497,22.1186838 C5.2610715,22.0201447 5.26036171,21.9902019 5.25255402,21.9624368 C4.94503741,20.8645336 4.74611871,19.7414059 4.6669771,18.6079343 C4.61143601,17.8089148 4.67993077,16.9990071 4.72251818,16.1956323 C4.76865455,15.3260204 5.03535822,14.5090353 5.37499283,13.7178191" id="Fill-18" fill="#FFFFFF" mask="url(#mask-4)"></path>
                    </g>
                </g>
            </g>
        </g>
    </g>
</svg>