<?xml version="1.0" encoding="UTF-8"?>
<svg width="97px" height="51px" viewBox="0 0 97 51" version="1.1" xmlns="http://www.w3.org/2000/svg" xmlns:xlink="http://www.w3.org/1999/xlink">
    <!-- Generator: Sketch 50.2 (55047) - http://www.bohemiancoding.com/sketch -->
    <title>Alianza</title>
    <desc>Created with Sketch.</desc>
    <defs>
        <polygon id="path-1" points="9.91889773 14 3.40909091e-05 14 3.40909091e-05 0.115203846 9.91889773 0.115203846 9.91889773 14"></polygon>
        <polygon id="path-3" points="0 51 97 51 97 0 0 0"></polygon>
    </defs>
    <g id="Page-1" stroke="none" stroke-width="1" fill="none" fill-rule="evenodd">
        <g id="Portafolio-|-Es-|-Hoovers-Copy" transform="translate(-278.000000, -1280.000000)">
            <g id="Alianza" transform="translate(278.000000, 1280.000000)">
                <path d="M6.67037862,17.6776194 L6.67037862,12.9707047 C6.67037862,12.5497493 6.29148951,11.1435735 6.00006749,10.1435735 C5.70851049,11.1435735 5.32962138,12.5497493 5.32962138,12.9707047 L5.32962138,17.6776194 L6.67037862,17.6776194 Z M7,12.9707047 L7,18 L5,18 L5,12.9707047 C5,12.2945368 5.80731592,9.63288467 5.84160086,9.51979414 L6.00006749,9 L6.15839914,9.51979414 C6.1925491,9.63288467 7,12.2945368 7,12.9707047 Z" id="Fill-1" fill="#FEFEFE"></path>
                <g id="Group-5" transform="translate(0.000000, 37.000000)">
                    <mask id="mask-2" fill="white">
                        <use xlink:href="#path-1"></use>
                    </mask>
                    <g id="Clip-4"></g>
                    <path d="M3.86957955,3.94097308 C3.86957955,3.31958846 4.34480682,3.00889615 5.06560227,3.00889615 C6.01730682,3.00889615 7.55764773,3.65006923 8.77094318,4.4653 L9.901625,1.64981923 C8.70560227,0.736588462 7.00105682,0.115203846 5.31253409,0.115203846 C2.54139773,0.115203846 0.722079545,1.72735769 0.722079545,4.27145385 C0.722079545,9.08718462 6.77151136,7.68933846 6.77151136,9.99947308 C6.77151136,10.7181846 6.21344318,11.1070885 5.32855682,11.1070885 C4.13117045,11.1070885 2.34526136,10.25255 1.16389773,9.04828077 L3.40909091e-05,11.8249923 C1.37753409,13.1650885 3.37707955,14.0001077 5.29514773,14.0001077 C7.85264773,14.0001077 9.91889773,12.5823385 9.91889773,9.80576154 C9.91889773,4.91195385 3.86957955,6.19335769 3.86957955,3.94097308" id="Fill-3" fill="#FEFEFE" mask="url(#mask-2)"></path>
                </g>
                <polygon id="Fill-6" fill="#FEFEFE" points="26.8575303 46.4023516 24.3051646 37 20.8682131 37 18.3347421 46.4023516 15.7823765 37 12 37 16.415345 50 20.0243437 50 22.5202917 41.2282171 24.9382663 50 28.5658934 50 33 37 29.3911344 37"></polygon>
                <polygon id="Fill-8" fill="#FEFEFE" points="37.2514099 44.8446348 43.1842539 44.8258655 43.1842539 42.1364675 37.2514099 42.1364675 37.2514099 39.7075245 43.8235526 39.7075245 43.8235526 37 34 37 34 50 44 50 44 47.2924755 37.2514099 47.2924755"></polygon>
                <mask id="mask-4" fill="white">
                    <use xlink:href="#path-3"></use>
                </mask>
                <g id="Clip-11"></g>
                <polygon id="Fill-10" fill="#FEFEFE" mask="url(#mask-4)" points="46 47 52 47 52 44 46 44"></polygon>
                <polygon id="Fill-12" fill="#FEFEFE" mask="url(#mask-4)" points="61.5006735 44.584951 57.8855665 37 54 37 54 50 57.1672593 50 57.1672593 41.7657111 60.3346533 48.7020955 62.6666936 48.7020955 65.8324713 41.7657111 65.853079 50 69 50 69 37 65.1141641 37"></polygon>
                <polygon id="Fill-13" fill="#FEFEFE" mask="url(#mask-4)" points="75.2513268 44.8446348 81.184367 44.8258655 81.184367 42.1364675 75.2513268 42.1364675 75.2513268 39.7075245 81.8235504 39.7075245 81.8235504 37 72 37 72 50 82 50 82 47.2924755 75.2513268 47.2924755"></polygon>
                <polygon id="Fill-14" fill="#FEFEFE" mask="url(#mask-4)" points="96.6147547 37 92.4606376 37 89.922551 40.6905946 87.4045932 37 83.3085961 37 87.7882389 43.3792213 83 50 87.1149261 50 89.922551 45.9756732 92.7878961 50 97 50 92.1725701 43.2123553"></polygon>
                <path d="M11.5862132,14.596921 L12.3499146,14.596921 L13.6403516,14.596921 L14.2751654,14.596921 L14.2751654,17.9535629 L11.5862132,17.9535629 L11.5862132,14.596921 Z M12.6675166,14.1787112 L12.9951331,13.8352667 L13.3227496,14.1787112 L13.3227496,14.2743473 L12.6675166,14.2743473 L12.6675166,14.1787112 Z M13.019454,13.1387348 L13.003847,13.1532651 L12.9558555,13.1090136 C12.9558555,13.0881428 12.9739336,13.0697817 12.9951331,13.0697817 C13.0163326,13.0697817 13.0337604,13.0874823 13.019454,13.1387348 Z M74.8656157,21.2170786 L76.6452014,21.2170786 L76.6453314,33 L77,33 L76.9998699,20.8568581 L74.5109471,20.8568581 L74.5113373,27.9591589 L69.1065108,21.171374 C69.028736,21.0734923 68.9030998,21.0371665 68.7863076,21.0793045 C68.6695154,21.1211783 68.5940817,21.2294954 68.5940817,21.3552489 L68.5940817,32.4259193 L67.438515,32.4259193 L63.1031566,20.8568581 L61.6108694,20.8568581 L57.7797465,32.4259193 L56.8234289,32.4259193 L56.8234289,25.7603213 L56.8045705,25.7603213 L56.8045705,25.6298124 L56.7500762,25.6060355 L56.7483854,25.5847684 C56.7479952,25.5262507 56.7381108,25.4428993 56.6950616,25.3787016 C56.6768534,25.3473953 56.6511019,25.3163532 56.6150758,25.2826693 L56.5535583,25.1483296 L56.4912604,25.0666955 L56.479035,24.98876 L56.391766,24.9528304 L56.385133,24.7779379 L56.2401181,24.7709369 C56.2393378,24.7709369 56.2373869,24.7708048 56.2345256,24.7706727 L56.0078343,24.5083339 L55.9845539,24.4874631 C55.9706377,24.4635541 55.9615336,24.4462497 55.955811,24.4342292 C55.9568515,24.4329082 55.957892,24.4318515 55.9589324,24.4305305 C55.9833834,24.3998847 56.0290338,24.3429522 56.0290338,24.255638 L56.0289037,24.2407114 C56.0278632,23.9086269 56.0542651,23.8321445 56.0553055,23.8275212 C56.123456,23.733206 56.2154071,23.5108918 56.2042221,23.3754954 C56.2042221,23.3752312 56.2042221,23.374967 56.2042221,23.3747028 L56.3632832,23.3889689 L56.4189481,23.3908183 L56.4764338,23.3542282 C56.7258853,23.2072075 56.8546429,23.0077455 56.859325,22.7607296 C56.8646574,22.3923193 56.6309429,22.2195403 56.4601765,22.0933905 L56.4069828,22.0537623 C56.2838177,21.9591829 56.2237308,21.8968345 56.2280227,21.8716046 C56.2533841,21.7389822 56.1717076,21.602529 56.0995253,21.4820592 C56.078846,21.4475827 56.0530945,21.4046521 56.0482824,21.3919711 C56.0303344,21.33702 56.0065337,21.1433701 55.9949585,21.0194659 C55.9767504,20.8667651 56.0368373,20.7927925 56.0472419,20.7813003 C56.0791062,20.7535605 56.1728781,20.6600379 56.1728781,20.5226601 C56.1728781,20.4674448 56.1670255,20.3291423 56.1631237,20.2394505 C56.3017657,20.1242645 56.3167224,20.0528016 56.3214045,20.0302135 C56.3236155,20.0208348 56.3255664,20.0117203 56.3272571,20.0031342 C56.3938469,19.9645628 56.4698008,19.8987799 56.4870986,19.7957466 L56.4930812,19.7518913 C56.4959425,19.7310205 56.5002344,19.6973365 56.5055668,19.6732954 C56.6261307,19.6374979 56.7179518,19.5581094 56.7672438,19.4449048 C56.7970271,19.3742345 56.8041803,19.3043567 56.8036601,19.2504623 C56.8473596,19.2034368 56.8983424,19.1335591 56.9147298,19.0521892 C56.9200622,19.0269592 56.9247442,19.0045032 56.9285159,18.9852175 C57.2254387,18.8422917 57.2420861,18.734503 57.248589,18.6924971 C57.2571729,18.6384706 57.2498896,18.5888032 57.2336324,18.5456085 C57.3860605,18.3458823 57.3683726,18.2575113 57.3616096,18.2239595 C57.3515951,18.1688762 57.3169996,18.123568 57.2669272,18.0999231 C57.1570281,18.0482744 57.0365943,18.105339 56.6090931,18.3528833 C56.5583704,18.3822081 56.5089483,18.4108725 56.463558,18.4364988 C56.4082833,18.467673 56.356,18.4947523 56.3073582,18.5199822 C56.1101901,18.6224872 55.9396838,18.7108581 55.8635998,18.9174532 C55.8266633,19.0152028 55.7585128,19.193794 55.6998566,19.3472873 C55.6877612,19.3357951 55.6748854,19.3249634 55.6612293,19.3154526 C55.5869661,19.2631434 55.4983965,19.2475563 55.4102171,19.2718616 C55.2743063,19.3109614 55.2255345,19.4279967 55.2021241,19.4844009 C55.2004333,19.4884958 55.1988726,19.4925907 55.1971818,19.4964215 C55.0906642,19.5718472 54.96932,19.7591565 55.0496959,19.9447487 C55.0653029,19.9823955 55.0776584,20.018193 55.0887133,20.0497634 C55.0948261,20.0669357 55.1005486,20.0833153 55.1064013,20.0989024 C54.9703604,19.9913779 54.743409,19.7971996 54.7066025,19.7476643 C54.6133508,19.5910008 54.3916017,19.2426688 54.1070344,18.9601196 C53.9421207,18.7955304 53.6490997,18.5559118 53.3234341,18.3190672 C52.7545597,17.9054807 52.7065683,17.9299181 52.6219004,17.9745659 C52.5502384,18.0164397 52.4872902,18.0991306 52.5512788,18.3880203 C52.5256574,18.4559166 52.5078394,18.5652905 52.551669,18.7182554 C52.6051229,18.9054327 52.8129558,19.0630209 52.9253261,19.1365973 C52.9428839,19.2155895 52.980991,19.3363235 53.0588958,19.4229772 C53.130948,19.5011768 53.2573645,19.5816221 53.3337087,19.6266662 C53.3640122,19.7431731 53.4312523,19.9343132 53.5590994,20.008418 C53.6256892,20.0472536 53.7028137,20.0813339 53.76173,20.1051108 C53.7778573,20.2052381 53.8211666,20.3405024 53.9376987,20.3986238 C53.9748954,20.4179096 54.0154735,20.4313831 54.0555314,20.4408939 C54.0334215,20.5436631 54.0361527,20.6622835 54.1206905,20.7501261 C54.1770057,20.8089079 54.2391735,20.8439129 54.2940581,20.8647837 C54.3058933,20.9589668 54.3451709,21.0675481 54.457281,21.1104787 C54.4713273,21.1153661 54.4852435,21.1189327 54.4986395,21.1214425 C54.5161974,21.1950189 54.5541744,21.2685952 54.6327295,21.309016 C54.6900851,21.3392656 54.7482211,21.3436247 54.801545,21.3318683 C54.846415,21.3782333 54.9072822,21.4063693 54.9810252,21.3995004 C54.9958518,21.3985758 55.0100282,21.3969907 55.023164,21.3948772 C54.9994935,21.4430915 54.9611263,21.5129692 54.9277014,21.5717511 C54.8850423,21.585621 54.83523,21.6105867 54.7946519,21.6556308 C54.7458801,21.7096573 54.7218193,21.7792708 54.7253309,21.8589236 C54.7331344,21.994452 54.7951721,22.0675001 54.8336693,22.1085813 C54.8295075,22.1421332 54.817412,22.1907438 54.8058369,22.2168984 C54.7447095,22.2496578 54.609319,22.3331412 54.569131,22.4477988 C54.5614576,22.4537431 54.5523535,22.4598194 54.5433795,22.4664241 C54.4763996,22.5149026 54.3644195,22.5962725 54.3758646,22.7348392 C54.383408,22.8294185 54.4451856,22.9028628 54.5050124,22.9739294 C54.5289431,23.0021976 54.5686108,23.0494872 54.5742033,23.064546 C54.6072381,23.2389101 54.7129754,23.3632106 54.8630625,23.4053486 C54.9036406,23.417105 54.891025,23.4983428 54.8906348,23.5008526 C54.8573399,23.7000504 55.0001437,23.9839206 55.2073264,24.0318707 C55.2090171,24.0450801 55.2075865,24.0664793 55.2001732,24.0803492 C55.1914593,24.0954079 55.1524418,24.1260538 55.1265603,24.1462641 C55.0522971,24.2045176 54.9596957,24.2771693 54.9310829,24.4021303 C54.9150857,24.4766314 54.9196378,24.5458486 54.9303025,24.6014602 C54.8711261,24.6560151 54.8028455,24.7381776 54.7738426,24.8435886 C54.7551142,24.9051445 54.7518627,24.9665682 54.7634379,25.0241612 L54.6886545,25.1126642 L54.6056774,25.2783102 C54.5762842,25.3151644 54.5559952,25.3528112 54.5402581,25.403139 C54.5367466,25.4174052 54.5342755,25.4314072 54.5325847,25.445277 L54.4696366,25.581466 L54.4696366,25.606696 L54.4363417,25.6203017 L54.4363417,25.7603213 L54.4317896,25.7603213 L54.4317896,32.4259193 L53.0350952,32.4259193 L53.0350952,30.8495089 L47.6081588,30.8495089 L47.6081588,20.8568581 L44.9255794,20.8568581 L44.9166053,32.3828566 L42.4055726,32.3828566 L37.0724082,18.6457358 L37.0281884,18.5317386 L34.9687176,18.5317386 L30.0250773,32.3828566 L25.9744162,32.3828566 L25.9744162,23.6787833 L26.128275,23.6787833 L26.128275,23.1904316 L25.9744162,23.1904316 L25.9744162,23.0468454 C25.9744162,22.7804117 25.8087221,22.5514927 25.5701955,22.4660278 L25.5701955,21.710714 L25.2749635,21.4210318 L25.2749635,20.4562168 L24.8520144,20.4562168 L24.8520144,21.4210318 L24.5561321,21.710714 L24.5561321,22.4660278 C24.3176054,22.5514927 24.1519113,22.7804117 24.1519113,23.0468454 L24.1519113,23.1904316 L23.9980526,23.1904316 L23.9980526,23.6787833 L24.1519113,23.6787833 L24.1519113,26.3921272 L15.7562676,26.3921272 L15.7562676,17.9535629 L15.3794891,17.9535629 L15.3794891,15.5812859 L15.0618871,15.5812859 L15.0618871,17.9535629 L14.5927674,17.9535629 L14.5927674,14.596921 L15.2206881,14.596921 L15.2206881,14.2743473 L14.5927674,14.2743473 L14.5927674,14.1838629 L14.2912926,14.1838629 L14.2912926,13.6721306 L13.9736906,13.6721306 L13.9736906,14.2743473 L13.6403516,14.2743473 L13.6403516,14.0484665 L13.2860732,13.6764897 L13.2860732,13.3171938 C13.3283421,13.2564306 13.3513624,13.1836468 13.3513624,13.1090136 C13.3513624,12.9712395 13.2747581,12.8528833 13.1632983,12.7918558 L13.1632983,12.265461 L14.0236329,11.7823931 L14.3225066,11.7823931 L14.3225066,11.4598194 L13.6429527,11.4598194 L13.6429527,11.6273146 L13.1632983,11.8966544 L13.1632983,11.4654994 L13.343949,11.4654994 L13.343949,11.1422653 L12.6650455,11.1422653 L12.6650455,11.4654994 L12.8456963,11.4654994 L12.8456963,11.8970507 L12.4008974,11.6473929 L12.4008974,11.4598194 L11.7213436,11.4598194 L11.7213436,11.7823931 L11.9853616,11.7823931 L12.8456963,12.2651968 L12.8456963,12.7814204 C12.7235717,12.8388813 12.6382535,12.963446 12.6382535,13.1090136 C12.6382535,13.1836468 12.6612738,13.2564306 12.7036728,13.3171938 L12.7036728,13.6771501 L12.3499146,14.0484665 L12.3499146,14.2743473 L11.8982227,14.2743473 L11.8982227,13.6721306 L11.5806207,13.6721306 L11.5806207,14.1838629 L11.2686112,14.1838629 L11.2686112,14.2743473 L10.9035379,14.2743473 L10.9035379,14.596921 L11.2686112,14.596921 L11.2686112,17.9535629 L10.7958498,17.9535629 L10.7958498,15.5812859 L10.4781177,15.5812859 L10.4781177,17.9535629 L10.1728712,17.9535629 L10.1728712,22.7683911 L9.45911211,22.7683911 L9.45911211,16.7548094 L8.90662509,16.7548094 L8.90662509,8.54793813 L8.48679739,2.66354444 L8.16919538,2.66354444 L7.87760501,6.78448255 L7.81725803,6.20775993 C7.78487355,5.89430074 7.60110139,5.59959891 7.33019026,5.42047938 L7.20806566,4.19451449 C7.18751647,3.98514542 7.08099885,3.78740063 6.91972674,3.65147585 L6.8312872,2.76803084 C6.8169808,2.61836828 6.74414824,2.47597089 6.63255835,2.37346591 L6.57468247,1.56254053 C6.55725468,1.32278983 6.42953757,1.12412037 6.2495371,1.05133655 L6.22144454,0.423229339 C6.20778843,0.111223191 6.04274464,0 5.89265753,0 L5.71824955,0 C5.56816245,0 5.4029886,0.111223191 5.38933249,0.423229339 L5.36123993,1.04605279 C5.18813254,1.11434541 5.05417264,1.3167135 5.03622462,1.56254053 L4.97821868,2.37346591 C4.86675885,2.47597089 4.79379623,2.61836828 4.77961989,2.76737037 L4.69105029,3.65147585 C4.52977818,3.78740063 4.42326056,3.98514542 4.40271137,4.19451449 L4.28058677,5.42047938 C4.00967564,5.59959891 3.82590348,5.89430074 3.793519,6.20749574 L3.74682812,6.65278478 L3.46473199,2.66354444 L3.14699993,2.66354444 L2.74147862,8.38625501 L2.72717223,16.7548094 L2.15166492,16.7548094 L2.15166492,22.7683911 L1,22.7683911 L1,32.6780868 L1.317602,32.6780868 L1.317602,23.0910969 L2.46926692,23.0910969 L2.46926692,17.0773831 L3.04490429,17.0773831 L3.04490429,8.6063237 L3.30580094,4.92578716 L3.56305596,8.55956241 L3.60168323,8.70948916 L3.90875052,8.70948916 L3.90875052,8.175565 L4.10995048,6.24131181 C4.13427135,6.0040709 4.28630933,5.78109614 4.50675789,5.65904124 L4.58024074,5.61822418 L4.71914285,4.22674544 C4.73279895,4.08606528 4.8125246,3.95344285 4.93152781,3.87194082 L4.99317537,3.82980282 L5.09592131,2.79960132 C5.10411497,2.71704253 5.15080585,2.63831448 5.22168754,2.5889113 L5.28528597,2.54492399 L5.35382662,1.58592118 C5.36436133,1.43625862 5.44785866,1.34458534 5.51444843,1.34458534 L5.66648641,1.34458534 L5.7069345,0.437759685 C5.71070618,0.359560007 5.72566287,0.327989529 5.72254147,0.322837861 L5.87757079,0.31662944 C5.87757079,0.31662944 5.89942056,0.343180344 5.90384253,0.437759685 L5.93739754,1.1901674 L5.96926178,1.34458534 L6.1211697,1.34458534 C6.16291837,1.34458534 6.2464157,1.43625862 6.25695041,1.58592118 L6.32549106,2.54492399 L6.38908949,2.5889113 C6.45997118,2.63831448 6.50679212,2.71704253 6.51485572,2.80026179 L6.61760166,3.82980282 L6.67924922,3.87194082 C6.79825243,3.95344285 6.87797807,4.08606528 6.89163418,4.22674544 L7.03053628,5.61822418 L7.1041492,5.65904124 C7.32459776,5.78109614 7.47650568,6.0040709 7.50082655,6.2417081 L7.70137622,8.16037419 L7.70137622,8.70948916 L8.06020666,8.70948916 L8.32799639,4.92578716 L8.58525141,8.55956241 L8.58902309,17.0773831 L9.14151011,17.0773831 L9.14151011,23.0910969 L10.1286515,23.0910969 L10.1286515,23.0951918 L10.4906033,23.0951918 L10.4906033,23.0823787 L10.4906033,18.2762687 L15.4386656,18.2762687 L15.4386656,26.7147009 L24.4696434,26.7147009 L24.4696434,23.0468454 C24.4696434,22.8987679 24.5847449,22.7703725 24.7311903,22.7551817 L24.8738641,22.7406513 L24.8738641,21.8472993 L25.0632288,21.6619713 L25.2525935,21.8472993 L25.2525935,22.7406513 L25.3951372,22.7551817 C25.5415827,22.7703725 25.6568142,22.8981075 25.6568142,23.0468454 L25.6568142,32.6780868 L25.6907594,32.6780868 L25.6907594,32.742945 L30.2738785,32.742945 L35.2173888,18.891827 L36.7869305,18.891827 L42.120095,32.6289478 L42.1641847,32.742945 L45.0937445,32.742945 L45.0937445,32.7066191 L45.2710138,32.7067512 L45.2798578,21.2170786 L47.2534902,21.2170786 L47.2534902,31.2097293 L52.6805566,31.2097293 L52.6805566,32.7860076 L54.7863282,32.7860076 L54.7863282,25.7603213 L54.7741027,25.7603213 L54.7741027,25.6505512 L54.8327589,25.5221558 L54.8327589,25.4876792 C54.8332791,25.4860941 54.8358803,25.4797536 54.8482358,25.4657516 L54.9331638,25.2982564 L55.1290314,25.0662992 L55.0646526,24.9686817 C55.0623115,24.9652473 55.0576295,24.9582463 55.0659532,24.9307707 C55.0837711,24.8660446 55.1603754,24.8063381 55.1850864,24.7910152 L55.3042197,24.7161179 L55.2432224,24.5882508 C55.2428323,24.5877225 55.21552,24.5292048 55.2281357,24.470555 C55.2339883,24.4528544 55.2852312,24.4125657 55.3128035,24.3910344 C55.3648268,24.3500853 55.4238732,24.3038523 55.4644513,24.2338425 C55.521807,24.1284314 55.5281798,23.9938276 55.4805786,23.8909263 C55.4409108,23.8051973 55.3692488,23.7483969 55.2783381,23.7310925 C55.2412716,23.7169585 55.181835,23.6062637 55.1909391,23.5517088 C55.2247542,23.3416793 55.1242192,23.1591253 54.9451292,23.1076086 C54.931343,23.1036458 54.8894643,23.0920215 54.8728168,23.0043111 C54.8544786,22.9130341 54.7916605,22.838533 54.7363858,22.7728823 C54.7261112,22.7607296 54.7134956,22.7455388 54.7021805,22.7314048 C54.7086834,22.7265173 54.7150563,22.721894 54.7203887,22.7179312 C54.7720218,22.6805486 54.8347098,22.6351082 54.8556491,22.5574369 C54.8750278,22.5368302 54.9257505,22.4997118 54.9680194,22.4801619 C55.112514,22.4042078 55.1579043,22.116639 55.1317626,22.0166439 C55.1168059,21.9609002 55.0826006,21.9251027 55.0601006,21.9013257 C55.0438433,21.8842856 55.0361699,21.87636 55.0325282,21.8634148 L55.1140747,21.8598482 L55.1560835,21.787857 C55.1692193,21.765401 55.2849711,21.5662031 55.3216475,21.476115 C55.3860263,21.3195835 55.2571387,21.1481255 55.2160403,21.0993828 L55.1024995,20.9642505 L55.0132796,21.0663592 L54.8738573,21.0750775 L54.7921808,20.9567212 C54.7923108,20.9561928 54.7924409,20.9556644 54.7924409,20.9551361 L54.6445648,20.9180176 L54.5947525,20.7680909 C54.5950126,20.7641281 54.5952727,20.7602973 54.5955328,20.7565987 L54.443885,20.7492014 L54.4472666,20.5861974 C54.4449255,20.5860653 54.3926421,20.5832913 54.3479021,20.5431347 C54.3471218,20.5109038 54.3000407,20.4354781 54.3293038,20.3823763 L54.3179888,20.2892499 L54.2032775,20.2077479 C54.1675115,20.209201 54.1357773,20.1493623 54.0827136,20.1262459 C54.0697077,20.1040541 54.0574823,20.0418378 54.0570921,19.9940197 L54.056962,19.8829286 L53.9531756,19.8475274 C53.951745,19.8469991 53.8106319,19.7985205 53.7126981,19.741588 C53.683435,19.7179432 53.636354,19.5978697 53.6160649,19.4948363 L53.6017585,19.4228451 L53.53803,19.3885006 C53.4657177,19.3494008 53.332148,19.2669741 53.2825958,19.2130797 C53.2461795,19.1726589 53.2205581,19.077287 53.2140552,19.0231285 L53.2052112,18.9450609 L53.1379712,18.9062252 C53.0296327,18.8437447 52.8673202,18.7137642 52.8440397,18.631998 C52.8206293,18.550496 52.8318143,18.5087542 52.835716,18.4979225 L52.8794156,18.4453491 L52.8605571,18.3713764 C53.1401821,18.5565723 53.6360939,18.9237937 53.8939992,19.1809809 C54.2326706,19.5174244 54.4857638,19.9763191 54.4882349,19.9808103 L54.5003303,19.9740735 C54.6469058,20.1308692 54.9952015,20.4054927 55.0515167,20.4379878 C55.1041903,20.4658597 55.2438727,20.5399645 55.3700291,20.422797 C55.4519658,20.3490886 55.4598993,20.2279583 55.4602895,20.1925571 C55.4611999,20.1213584 55.4420813,20.0621803 55.4029338,20.0184571 C55.3961708,20.0045873 55.3844656,19.9711675 55.3756216,19.9460696 C55.3628759,19.9092154 55.3480493,19.8676057 55.3291909,19.8222975 C55.3260695,19.8080313 55.3511707,19.7644403 55.369769,19.7510988 C55.4372692,19.7137162 55.4645814,19.6480654 55.4826595,19.6046065 C55.4863011,19.5960204 55.4909832,19.5846603 55.4952751,19.57581 C55.4955352,19.5759421 55.4957954,19.5764704 55.4963156,19.5756779 C55.5088012,19.7252083 55.6361281,19.8036722 55.6616195,19.8178063 L55.8139176,19.9030069 L55.8768657,19.7384178 C55.8768657,19.7384178 56.0741639,19.2229868 56.1484272,19.0270913 C56.1821122,18.9356822 56.255465,18.8555011 56.4327343,18.7634316 C56.4842373,18.7367486 56.5475756,18.6959315 56.6062318,18.662908 C56.6526626,18.6367534 56.7096281,18.6096741 56.7548883,18.5705742 C56.8022295,18.5296251 56.9874323,18.3495809 57.0165653,18.332805 L57.1487044,18.316029 C57.1349182,18.6181281 56.9798889,18.7741312 56.9123887,18.803324 L56.8093827,18.8528592 L56.7849317,18.9244542 C56.7845416,18.9263035 56.7270559,18.9309268 56.7091078,19.0152028 C56.7048159,19.0321109 56.6667089,19.0753056 56.6386163,19.0977616 L56.6461597,19.1886423 L56.5817809,19.2739751 C56.581911,19.2743714 56.559541,19.3402863 56.5410727,19.3840094 C56.53496,19.3978793 56.5324889,19.4538872 56.46798,19.4665682 C56.2946125,19.4989312 56.2046123,19.6073805 56.1912163,19.7117348 L56.1893955,19.7258688 C56.17717,19.734587 56.1557104,19.745815 56.1395832,19.751363 L56.1157826,19.8628503 L56.0352766,19.8958739 C56.0351465,19.896006 56.0346263,19.9127819 56.0283835,19.9440882 C56.0099152,19.9661479 55.9616636,20.0086822 55.9188745,20.0397243 L55.8512443,20.0888633 L55.8552761,20.1731393 C55.8552761,20.1731393 55.8682819,20.4443284 55.868542,20.5204145 C55.8672414,20.5263588 55.8574871,20.539304 55.8448714,20.5501357 C55.8251026,20.5677042 55.653816,20.730312 55.6923132,21.0524894 C55.6972554,21.1065158 55.7240474,21.3816677 55.7613741,21.4954007 C55.7781516,21.5405769 55.8065043,21.5879987 55.839409,21.6428177 C55.8675015,21.689579 55.9257676,21.7869323 55.9284988,21.815993 C55.8928629,22.0270793 56.0476321,22.1656459 56.2238609,22.3007782 L56.2809564,22.3434445 C56.4526332,22.4702548 56.5575901,22.5580974 56.5548589,22.755578 C56.5517375,22.9204313 56.4475609,23.0110479 56.3406531,23.0764344 L55.8933831,23.0364099 L55.8933831,23.2052261 C55.8933831,23.2102457 55.8935132,23.3267526 55.9009265,23.40165 C55.9009265,23.4420708 55.8526749,23.5851286 55.8119667,23.6416649 C55.758903,23.7115426 55.7235272,23.8391455 55.7244376,24.2333141 L55.7224867,24.2355597 C55.6975155,24.266866 55.6510848,24.3251195 55.6451021,24.4136225 C55.6405501,24.4643466 55.6504345,24.5335639 55.7527903,24.6943224 L55.8105361,24.7649927 L55.8244523,24.7649927 L56.286679,25.2989168 L56.3665347,25.4731489 L56.3921561,25.4952086 C56.4241504,25.5226842 56.4319539,25.5347047 56.4370262,25.5424983 C56.4397574,25.5479141 56.4453499,25.5703701 56.4435291,25.6008838 L56.4462603,25.8099887 L56.4688904,25.8198958 L56.4688904,32.7860076 L58.0345304,32.7860076 L61.8656534,21.2170786 L62.8589074,21.2170786 L67.1941357,32.7860076 L68.9487502,32.7860076 L68.9487502,21.5458607 L74.8660059,28.9770757 L74.8656157,21.2170786 Z" id="Fill-15" fill="#FEFEFE" mask="url(#mask-4)"></path>
                <polygon id="Fill-16" fill="#FEFEFE" mask="url(#mask-4)" points="78 33 86.252145 33 90.3109584 21.3623118 92.3968392 21.3623118 96.4888572 32.6376882 93.8562759 32.6376882 93.8562759 33 97 33 92.6452206 21 90.0591781 21 86.0003647 32.6376882 78.6227837 32.6376882 85.353135 21 78.1328187 21 78.1332109 23.6003543 78.4895728 23.6003543 78.4891806 21.3623118 84.7303514 21.3623118"></polygon>
            </g>
        </g>
    </g>
</svg>