<?xml version="1.0" encoding="UTF-8"?>
<svg width="121px" height="14px" viewBox="0 0 121 14" version="1.1" xmlns="http://www.w3.org/2000/svg" xmlns:xlink="http://www.w3.org/1999/xlink">
    <!-- Generator: Sketch 50.2 (55047) - http://www.bohemiancoding.com/sketch -->
    <title>Aromaria</title>
    <desc>Created with Sketch.</desc>
    <defs>
        <polygon id="path-1" points="0 0 14 0 14 14 0 14"></polygon>
        <polygon id="path-3" points="67 0 81 0 81 14 67 14"></polygon>
        <polygon id="path-5" points="107 0 121 0 121 14 107 14"></polygon>
    </defs>
    <g id="Page-1" stroke="none" stroke-width="1" fill="none" fill-rule="evenodd">
        <g id="Portafolio-|-Es-|-Hoovers-Copy" transform="translate(-644.000000, -1291.000000)">
            <g id="Aromaria" transform="translate(644.000000, 1291.000000)">
                <path d="M19.4357277,7.55737872 C20.5497802,7.69158647 21.3115308,7.69158647 21.5344669,7.69158647 C22.5555771,7.69158647 23.6884692,6.67562715 23.6884692,4.43234751 C23.6884692,2.91716124 22.7226221,1.57508354 20.8097676,1.57508354 C20.1415873,1.57508354 20.2156901,1.57508354 19.4357277,1.63278639 L19.4357277,7.55737872 Z M16.8722767,13.4631689 C17.3369886,13.4054661 17.6340273,13.3672136 17.6710787,12.6002195 C17.708758,11.660765 17.708758,9.37923293 17.708758,7.46207175 C17.708758,5.46710887 17.708758,3.2815321 17.6710787,2.3420777 C17.6340273,1.59453394 17.2252065,1.47912823 16.5199749,1.42207371 L16,1.38382126 L16,1 C16,1 16.4829235,1.0194504 17.0770011,1.0194504 C17.652867,1.03825246 18.3216753,1.05770286 18.6928168,1.05770286 C19.0639582,1.05770286 19.5286701,1.03825246 20.0115936,1.0194504 C20.4945172,1.0194504 20.9956524,1 21.4226849,1 C24.5984252,1 25.6013236,2.53398833 25.6013236,4.06797666 C25.6013236,6.36895915 23.3355394,7.59563115 22.9826095,7.7875418 C22.9826095,7.7875418 24.153181,9.26382727 24.9143037,10.1650291 C27.0500942,12.6961748 27.9600502,13.5396738 28.5729675,13.5396738 L29,13.5396738 L29,13.9228467 C29,13.9228467 28.4059224,14 27.5330177,14 C26.2512922,14 26.0101444,13.9422972 25.5454326,13.5208718 C24.5802135,12.6384719 24.2272837,12.1210912 23.4284817,11.0662311 C22.6485194,10.0308214 21.6085696,8.55453592 21.5526786,8.47803105 C21.3674219,8.22841751 21.0885947,8.24786797 20.5868315,8.20961547 C20.2527414,8.19016507 19.4357277,8.13246225 19.4357277,8.13246225 C19.4357277,10.0502718 19.4539394,11.6413146 19.4727791,12.5814174 C19.4909908,13.1759513 19.7509782,13.386664 20.2715811,13.4437185 L21.1444858,13.5396738 L21.1444858,13.9228467 L20.1415873,13.8845943 C19.6027728,13.8845943 18.9528042,13.8657922 18.5816627,13.8657922 C18.2098933,13.8657922 17.596976,13.8845943 17.0952128,13.8845943 L16.1482054,13.9228467 L16.1482054,13.5396738 L16.8722767,13.4631689 Z" id="Fill-4" fill="#FFFFFF" fill-rule="nonzero"></path>
                <path d="M37.4522751,0.585051041 C34.5718995,0.585051041 33.0550921,2.69812525 33.0550921,6.3960051 C33.0550921,9.77360622 34.6874781,12.414949 37.7210928,12.414949 C41.0430049,12.414949 41.9455572,9.64153908 41.9455572,6.52807224 C41.9455572,4.71741265 41.2163728,0.585051041 37.4522751,0.585051041 M37.6444733,13 C33.9381649,13 31,10.3210149 31,6.41514527 C31,2.94375736 33.7271365,0 37.4522751,0 C41.9072474,0 44,2.79255006 44,6.26393797 C44,9.77360622 41.5806403,13 37.6444733,13" id="Fill-6" fill="#FFFFFF" fill-rule="nonzero"></path>
                <path d="M63.1161068,1.46305122 C62.6271041,1.50153013 62.326326,1.75262128 62.3078851,2.35002258 C62.2697314,3.29569056 62.2697314,5.59072895 62.2697314,7.51923945 C62.2697314,9.44840216 62.2888083,11.7049616 62.3078851,12.6499774 C62.326326,13.2480309 62.5895863,13.4599909 63.1161068,13.5173832 L64,13.6139066 L64,14 L63.0035535,13.9615211 C62.4579562,13.9615211 61.8373232,13.9419555 61.4615097,13.9419555 C61.1416548,13.9419555 60.5210219,13.9615211 59.9569836,13.9615211 L58.9414603,14 L58.9414603,13.6139066 L59.6746465,13.5369488 C60.1452083,13.4789043 60.4459864,13.421512 60.4835042,12.6499774 C60.5210219,11.7049616 60.5210219,9.42883662 60.5210219,7.50032609 C60.5210219,5.59072895 60.5210219,3.56569508 60.502581,2.62002709 L57.9825316,7.78924398 C56.7972245,10.2003712 55.2933343,13.2858576 54.9925563,14 L54.8418494,14 C54.6536246,13.6139066 53.2622878,10.6627703 51.9835042,8.05924851 C50.9864218,6.03421462 49.4443779,2.73611599 49.4443779,2.73611599 L49.4443779,7.98229069 C49.4443779,9.67992778 49.4443779,10.7592936 49.4818957,12.4380174 C49.5009725,13.4019465 50.1782,13.5558621 50.9864218,13.5949932 L51.3437944,13.6139066 L51.3437944,14 L50.5349368,13.9615211 C50.0650109,13.9615211 49.5200494,13.9419555 49.1435999,13.9419555 C48.7677863,13.9419555 48.2787836,13.9615211 47.8648163,13.9615211 L47.1500711,14 L47.1500711,13.6139066 L47.5824792,13.5949932 C48.1465175,13.5754277 48.6361562,13.3634676 48.673674,12.4764963 C48.7487095,10.4892891 48.7111917,9.39035771 48.7111917,7.40380274 L48.7111917,2.27306477 C48.7111917,1.57914012 48.0339642,1.44348567 47.3758136,1.40500678 C47.3758136,1.40500678 47.1309942,1.38609341 47,1.38609341 L47,1 C47.4133313,1 47.8832573,1.01956555 48.3163014,1.01956555 C48.7487095,1.03913109 49.1435999,1.05804445 49.3693424,1.05804445 C49.7076382,1.05804445 49.8767861,1.07760999 50.6290492,1 C50.6290492,1 52.1526521,4.29809863 53.1490986,6.40074249 C54.5410713,9.33231326 55.5190769,11.2803893 55.5190769,11.2803893 C55.5190769,11.2803893 57.004526,8.17533741 57.9450138,6.24617469 C58.9414603,4.20222746 60.5210219,1 60.5210219,1 C61.0666193,1.05804445 61.3483205,1.05804445 62.0064711,1.05804445 C62.1946959,1.05804445 62.495474,1.03913109 62.8528466,1.01956555 C63.2102192,1.01956555 63.6241864,1 64,1 L64,1.38609341 L63.1161068,1.46305122 Z" id="Fill-8" fill="#FFFFFF" fill-rule="nonzero"></path>
                <path d="M86.435562,7.55737872 C87.5501882,7.69158647 88.3112745,7.69158647 88.5341999,7.69158647 C89.5558884,7.69158647 90.6887255,6.67562715 90.6887255,4.43234751 C90.6887255,2.91716124 89.7229254,1.57508354 87.8095354,1.57508354 C87.1413874,1.57508354 87.2161142,1.57508354 86.435562,1.63278639 L86.435562,7.55737872 Z M83.8728624,13.4631689 C84.3369241,13.4054661 84.6345762,13.3672136 84.6716262,12.6002195 C84.7086755,11.660765 84.7086755,9.37923293 84.7086755,7.46207175 C84.7086755,5.46710887 84.7086755,3.2815321 84.6716262,2.3420777 C84.6345762,1.59453394 84.2257755,1.47912823 83.5199501,1.42207371 L83,1.38382126 L83,1 C83,1 83.4829001,1.0194504 84.0775768,1.0194504 C84.6527872,1.03825246 85.3215633,1.05770286 85.6926866,1.05770286 C86.064438,1.05770286 86.5284997,1.03825246 87.0113997,1.0194504 C87.4942998,1.0194504 87.9954108,1 88.4230506,1 C91.5986379,1 92.601488,2.53398833 92.601488,4.06797666 C92.601488,6.36895915 90.3358131,7.59563115 89.9829001,7.7875418 C89.9829001,7.7875418 91.1527872,9.26382727 91.9145009,10.1650291 C94.0495607,12.6961748 94.9601006,13.5396738 95.5729883,13.5396738 L96,13.5396738 L96,13.9228467 C96,13.9228467 95.4053232,14 94.5330889,14 C93.2514251,14 93.0096606,13.9422972 92.5455996,13.5208718 C91.5797988,12.6384719 91.2268865,12.1210912 90.4281227,11.0662311 C89.6488261,10.0308214 88.6082985,8.55453592 88.5530383,8.47803105 C88.3671629,8.22841751 88.0883492,8.24786797 87.5872382,8.20961547 C87.2531642,8.19016507 86.435562,8.13246225 86.435562,8.13246225 C86.435562,10.0502718 86.4544004,11.6413146 86.4732394,12.5814174 C86.4914504,13.1759513 86.7514251,13.386664 87.2713744,13.4437185 L88.1442375,13.5396738 L88.1442375,13.9228467 L87.1413874,13.8845943 C86.6032264,13.8845943 85.9526613,13.8657922 85.5815379,13.8657922 C85.2097865,13.8657922 84.5975269,13.8845943 84.0957878,13.8845943 L83.1488261,13.9228467 L83.1488261,13.5396738 L83.8728624,13.4631689 Z" id="Fill-13" fill="#FFFFFF" fill-rule="nonzero"></path>
                <path d="M106,14 C106,14 103.842705,13.9426077 102.943769,13.9426077 C102.493921,13.9426077 101.75304,13.9615211 101.145897,13.9615211 L100,14 L100,13.6145588 L100.876139,13.5376009 C101.43845,13.4795565 101.797872,13.421512 101.842705,12.6499774 C101.887538,11.7049616 101.887538,9.42883662 101.887538,7.50032609 C101.887538,5.59072895 101.887538,3.29569056 101.842705,2.35067476 C101.797872,1.57914012 101.43845,1.52109567 100.876139,1.46305122 L100,1.38609341 L100,1 C100,1 100.516717,1.01956555 101.145897,1.01956555 C101.775076,1.03913109 102.516717,1.05804445 102.965805,1.05804445 C103.415654,1.05804445 104.179332,1.03913109 104.831307,1.01956555 C105.460486,1.01956555 106,1 106,1 L106,1.38609341 L104.943769,1.48261677 C104.314589,1.54066121 104,1.75262128 103.977204,2.35067476 C103.932371,3.29569056 103.932371,5.59072895 103.932371,7.51923945 C103.932371,9.44840216 103.955167,11.7049616 103.977204,12.6499774 C104,13.2480309 104.314589,13.4599909 104.943769,13.5180354 L106,13.6145588 L106,14 Z" id="Fill-15" fill="#FFFFFF" fill-rule="nonzero"></path>
                <mask id="mask-2" fill="white">
                    <use xlink:href="#path-1"></use>
                </mask>
                <g id="path-1"></g>
                <path d="M6.29803315,3.03228976 L4.39221006,7.81432151 L8.28388726,7.81432151 L6.29803315,3.03228976 Z M14,14 C14,14 12.4956884,13.9394505 11.5332817,13.9394505 C11.0117237,13.9394505 10.3294254,13.9594043 9.78819882,13.9594043 L8.82511388,14 L8.82511388,13.5933552 L9.24629395,13.5527596 C9.94826083,13.491522 10.3097568,13.3896888 10.3097568,13.002998 C10.3097568,12.6775446 9.8078675,11.5580675 9.50741209,10.8459232 C9.0658851,9.76772985 8.52465847,8.42463261 8.52465847,8.42463261 C8.52465847,8.42463261 7.8226916,8.40467877 6.21732391,8.40467877 C4.91376805,8.40467877 4.13177019,8.42463261 4.13177019,8.42463261 C4.13177019,8.42463261 3.42980332,10.0931832 3.30907858,10.3986828 C2.94826083,11.3344473 2.54742758,12.3108074 2.54742758,12.7993316 C2.54742758,13.24726 2.92791397,13.491522 3.61021219,13.5527596 L4.07140782,13.5933552 L4.07140782,14 C4.07140782,14 3.7302587,13.9800462 3.26906308,13.9594043 C2.80786746,13.9594043 2.24629397,13.9394505 1.82511385,13.9394505 C1.48396474,13.9394505 1.02276911,13.9594043 0.661273134,13.9594043 C0.280786746,13.9800462 0,14 0,14 L0,13.5933552 L0.421180119,13.5321177 C0.922391243,13.4509264 1.30355586,13.2066643 1.66437361,12.3926868 C2.04553823,11.5381137 2.86822983,9.52346783 3.62988083,7.67189262 C4.85408391,4.6808866 6.67919776,0.224308252 6.75922877,0 L7.22042437,0 C7.5012111,0.752739963 9.36634051,5.31115151 10.0282919,6.93910649 C12.515357,13.0841893 12.6564287,13.4103307 13.5388044,13.5321177 L14,13.5933552 L14,14 Z" id="Fill-1" fill="#FFFFFF" fill-rule="nonzero" mask="url(#mask-2)"></path>
                <mask id="mask-4" fill="white">
                    <use xlink:href="#path-3"></use>
                </mask>
                <g id="path-3"></g>
                <path d="M73.2980331,3.03228976 L71.3928884,7.81432151 L75.2838872,7.81432151 L73.2980331,3.03228976 Z M81,14 C81,14 79.4963668,13.9394505 78.5332822,13.9394505 C78.0117238,13.9394505 77.3301039,13.9594043 76.7881989,13.9594043 L75.8257922,14 L75.8257922,13.5933552 L76.2469725,13.5527596 C76.9482611,13.491522 77.3097573,13.3896888 77.3097573,13.002998 C77.3097573,12.6775446 76.8085455,11.5580675 76.5074121,10.8459232 C76.0665637,9.76772985 75.5246587,8.42463261 75.5246587,8.42463261 C75.5246587,8.42463261 74.8226915,8.40467877 73.2180024,8.40467877 C71.9137682,8.40467877 71.1317702,8.42463261 71.1317702,8.42463261 C71.1317702,8.42463261 70.429803,10.0931832 70.3097569,10.3986828 C69.9489393,11.3344473 69.5474277,12.3108074 69.5474277,12.7993316 C69.5474277,13.24726 69.928592,13.491522 70.6108904,13.5527596 L71.0720861,13.5933552 L71.0720861,14 C71.0720861,14 70.7309372,13.9800462 70.2697416,13.9594043 C69.8078673,13.9594043 69.246294,13.9394505 68.8251139,13.9394505 C68.484643,13.9394505 68.0234474,13.9594043 67.6619514,13.9594043 C67.2807867,13.9800462 67,14 67,14 L67,13.5933552 L67.4211801,13.5321177 C67.9230695,13.4509264 68.3035559,13.2066643 68.6650519,12.3926868 C69.0455383,11.5381137 69.86823,9.52346783 70.6305592,7.67189262 C71.8540841,4.6808866 73.6791981,0.224308252 73.7592288,0 L74.2204245,0 C74.5018892,0.752739963 76.3670186,5.31115151 77.0289704,6.93910649 C79.5160356,13.0841893 79.656429,13.4103307 80.5388043,13.5321177 L81,13.5933552 L81,14 Z" id="Fill-10" fill="#FFFFFF" fill-rule="nonzero" mask="url(#mask-4)"></path>
                <mask id="mask-6" fill="white">
                    <use xlink:href="#path-5"></use>
                </mask>
                <g id="path-5"></g>
                <path d="M113.298033,3.03228976 L111.39221,7.81432151 L115.283887,7.81432151 L113.298033,3.03228976 Z M121,14 C121,14 119.495688,13.9394505 118.533281,13.9394505 C118.011724,13.9394505 117.329425,13.9594043 116.788199,13.9594043 L115.825114,14 L115.825114,13.5933552 L116.246973,13.5527596 C116.948261,13.491522 117.309757,13.3896888 117.309757,13.002998 C117.309757,12.6775446 116.807868,11.5580675 116.507412,10.8459232 C116.065885,9.76772985 115.524659,8.42463261 115.524659,8.42463261 C115.524659,8.42463261 114.822692,8.40467877 113.218002,8.40467877 C111.913768,8.40467877 111.13177,8.42463261 111.13177,8.42463261 C111.13177,8.42463261 110.429803,10.0931832 110.309757,10.3986828 C109.948261,11.3344473 109.547428,12.3108074 109.547428,12.7993316 C109.547428,13.24726 109.928592,13.491522 110.610212,13.5527596 L111.071408,13.5933552 L111.071408,14 C111.071408,14 110.730259,13.9800462 110.269063,13.9594043 C109.807867,13.9594043 109.246294,13.9394505 108.825114,13.9394505 C108.483964,13.9394505 108.022769,13.9594043 107.661951,13.9594043 C107.280787,13.9800462 107,14 107,14 L107,13.5933552 L107.42118,13.5321177 C107.922391,13.4509264 108.303556,13.2066643 108.664373,12.3926868 C109.045538,11.5381137 109.86823,9.52346783 110.630559,7.67189262 C111.854084,4.6808866 113.679198,0.224308252 113.759229,0 L114.220425,0 C114.501211,0.752739963 116.367019,5.31115151 117.02897,6.93910649 C119.516036,13.0841893 119.656429,13.4103307 120.538804,13.5321177 L121,13.5933552 L121,14 Z" id="Fill-17" fill="#FFFFFF" fill-rule="nonzero" mask="url(#mask-6)"></path>
            </g>
        </g>
    </g>
</svg>