<?xml version="1.0" encoding="UTF-8"?>
<svg width="138px" height="15px" viewBox="0 0 138 15" version="1.1" xmlns="http://www.w3.org/2000/svg" xmlns:xlink="http://www.w3.org/1999/xlink">
    <!-- Generator: Sketch 50.2 (55047) - http://www.bohemiancoding.com/sketch -->
    <title>Group</title>
    <desc>Created with Sketch.</desc>
    <defs>
        <polygon id="path-1" points="0 0.0401582278 9.85901887 0.0401582278 9.85901887 14.8381329 0 14.8381329"></polygon>
        <polygon id="path-3" points="0 15 143 15 143 0 0 0"></polygon>
    </defs>
    <g id="Page-1" stroke="none" stroke-width="1" fill="none" fill-rule="evenodd">
        <g id="Finacero" transform="translate(-152.000000, -96.000000)">
            <g id="Group" transform="translate(152.000000, 96.000000)">
                <g id="Group-6">
                    <mask id="mask-2" fill="white">
                        <use xlink:href="#path-1"></use>
                    </mask>
                    <g id="Clip-5"></g>
                    <polygon id="Fill-4" fill="#FEFEFE" mask="url(#mask-2)" points="1.27958491 1.37022152 1.27958491 6.79528481 8.87335849 6.79528481 8.87335849 8.08300633 1.27958491 8.08300633 1.27958491 14.8381329 -3.77358491e-05 14.8381329 -3.77358491e-05 0.0614240506 9.85901887 0.0401582278 9.85901887 1.34933544"></polygon>
                </g>
                <mask id="mask-4" fill="white">
                    <use xlink:href="#path-3"></use>
                </mask>
                <g id="Clip-8"></g>
                <polygon id="Fill-7" fill="#FEFEFE" mask="url(#mask-4)" points="18 15 19 15 19 0 18 0"></polygon>
                <polygon id="Fill-9" fill="#FEFEFE" mask="url(#mask-4)" points="40 0 40 15 38.9734615 15 30.2781319 2.57508493 30.2781319 15 29 15 29 0 30.068565 0 38.7011376 12.339021 38.7011376 0"></polygon>
                <path d="M67,7.51071249 C67,3.36912743 70.3361823,0 74.3696106,0 C77.1990503,0 79.7538462,1.65223322 81,4.20586002 L79.8387464,4.87138574 C78.8252612,2.68256276 76.7133903,1.30924041 74.3696106,1.30924041 C71.0119658,1.30924041 68.2881292,4.07711708 68.2881292,7.48948052 C68.2881292,10.9228829 71.0119658,13.6697206 74.3696106,13.6697206 C76.7133903,13.6697206 78.8252612,12.3176303 79.8387464,10.1286143 L81,10.772329 C79.7538462,13.3473807 77.1777778,15 74.3696106,15 C70.3152896,15 67,11.6308726 67,7.51071249" id="Fill-10" fill="#FEFEFE" mask="url(#mask-4)"></path>
                <polygon id="Fill-11" fill="#FEFEFE" mask="url(#mask-4)" points="90.3062152 1.3071971 90.3062152 6.83551135 98.079178 6.83551135 98.079178 8.14270845 90.3062152 8.14270845 90.3062152 13.6714082 99 13.6714082 99 15 89 15 89 0 99 0 99 1.3071971"></polygon>
                <path d="M108.33933,6.88842279 L112.972083,6.88842279 C114.574855,6.88842279 115.848225,5.64384337 115.848225,4.12035309 C115.848225,2.57505179 114.574855,1.33047238 112.972083,1.33047238 L108.33933,1.33047238 L108.33933,6.88842279 Z M116.418754,15 L112.42308,8.21870215 L108.33933,8.21870215 L108.33933,15 L107,15 L107,0 L112.972083,0 C115.299223,0 117.209476,1.86706214 117.209476,4.12035309 C117.209476,6.05169019 115.804187,7.68249842 113.93817,8.11177023 L118,15 L116.418754,15 Z" id="Fill-12" fill="#FEFEFE" mask="url(#mask-4)"></path>
                <polygon id="Fill-13" fill="#FEFEFE" mask="url(#mask-4)" points="54.4536596 0 53.1207612 0 53.1048263 0.0405342804 54.0309954 2.2396155 57.1758117 9.54949043 51.0089946 9.54949043 51.0088003 9.54968345 49.3785795 9.54968345 47 15 48.4906931 15 50.2406202 10.9012122 57.7591855 10.9012122 59.5306831 15 61 15"></polygon>
                <path d="M136.669458,7.51097649 C136.669458,4.07733815 133.922662,1.33073291 130.489214,1.33073291 C127.077147,1.33073291 124.308971,4.07733815 124.308971,7.51097649 C124.308971,10.944233 127.141479,13.6910292 130.489214,13.6910292 C133.879901,13.6910292 136.669458,10.9014724 136.669458,7.51097649 M123,7.51097649 C123,3.36930654 126.347544,0 130.489214,0 C134.652456,0 138,3.36930654 138,7.51097649 C138,11.6740268 134.566362,15 130.489214,15 C126.390496,15 123,11.6310753 123,7.51097649" id="Fill-14" fill="#FEFEFE" mask="url(#mask-4)"></path>
            </g>
        </g>
    </g>
</svg>