<?xml version="1.0" encoding="UTF-8"?>
<svg width="105px" height="48px" viewBox="0 0 105 48" version="1.1" xmlns="http://www.w3.org/2000/svg" xmlns:xlink="http://www.w3.org/1999/xlink">
    <!-- Generator: Sketch 50.2 (55047) - http://www.bohemiancoding.com/sketch -->
    <title>Group 2</title>
    <desc>Created with Sketch.</desc>
    <defs>
        <polygon id="path-1" points="0.0119416721 0.0205820441 8.62276997 0.0205820441 8.62276997 12.2304448 0.0119416721 12.2304448"></polygon>
        <polygon id="path-3" points="0.00215567097 0.0109810285 12.6950454 0.0109810285 12.6950454 22.127573 0.00215567097 22.127573"></polygon>
    </defs>
    <g id="Page-1" stroke="none" stroke-width="1" fill="none" fill-rule="evenodd">
        <g id="5.-Sal-|-Rancho" transform="translate(-74.000000, -26.000000)">
            <g id="Group-2" transform="translate(74.000000, 26.000000)">
                <g id="Group-Copy">
                    <g id="Page-1">
                        <path d="M21.4557737,15.270751 C21.1539923,15.4265981 20.7239739,15.5977943 20.1667433,15.7849654 C19.3150507,16.0651884 18.680124,16.4358498 18.2624023,16.8944834 C17.844278,17.3538901 17.6351976,18.0508586 17.6351976,18.985021 C17.6351976,19.7329693 17.8670781,20.3245552 18.3323397,20.7607725 C18.7966498,21.1961432 19.3380704,21.4149328 19.9582484,21.4149328 C20.4989005,21.4149328 20.95999,21.235197 21.3394675,20.8773818 C21.7189084,20.5198242 21.9082263,20.0130082 21.9082263,19.3591056 L21.9082263,14.9437076 C21.9082263,15.006098 21.7572258,15.115456 21.4557737,15.270751 M24.9628573,21.204057 C25.0789806,21.5470752 25.2097794,21.796195 25.3577789,21.9518581 C25.5044243,22.1073371 25.5779483,22.1700956 25.5779483,22.1382562 C25.5779483,22.1226862 25.3926561,22.0918039 25.0209373,22.0453148 C24.6491818,21.9986785 24.0685655,21.9751947 23.2786857,21.9751947 C22.7363502,21.9751947 22.2920223,21.9986785 21.9436525,22.0453148 C21.5947337,22.0918039 21.4212625,22.1226862 21.4212625,22.1382562 C21.4516382,22.1226862 21.5061316,22.0644552 21.5837545,21.9636368 C21.6604991,21.8625607 21.7346086,21.7068609 21.8039605,21.4960587 C21.873715,21.2856246 21.9082263,21.0254991 21.9082263,20.713584 C21.8465598,20.9160675 21.645421,21.1303296 21.3049928,21.3557448 C20.9643451,21.5817856 20.5269706,21.7689199 19.9927597,21.9168164 C19.4585121,22.0644552 18.8969264,22.1382562 18.3087711,22.1382562 C17.705501,22.1382562 17.1358273,22.0142485 16.6016163,21.7650919 C16.0675884,21.5159353 15.6337639,21.1576415 15.3010577,20.6906892 C14.967766,20.223111 14.8020534,19.6781615 14.8020534,19.0551412 C14.8020534,18.2768259 15.0529646,17.6458549 15.5564704,17.1631853 C16.0590612,16.6804421 16.6206469,16.3260501 17.240642,16.1004877 C17.8597221,15.8744469 18.5715397,15.6679881 19.3766806,15.4812219 C19.7180603,15.4192364 19.9032061,15.3799617 19.9346797,15.3646126 C20.5069885,15.2087655 20.9792036,15.0417286 21.350959,14.8625818 C21.7227145,14.683214 21.9082263,14.4532347 21.9082263,14.1731957 L21.9082263,13.6593494 C21.9082263,11.4950844 21.0495436,10.4122525 19.3304948,10.4122525 C18.5715397,10.4122525 17.9215715,10.5796943 17.379602,10.9147251 C16.8374494,11.249535 16.5671051,11.7440201 16.5671051,12.3981436 C16.5671051,12.8031473 16.7526168,13.0052627 17.1243723,13.0052627 C17.232554,13.0052627 17.3569848,12.9861223 17.4960912,12.9462587 C17.6351976,12.9077938 17.7355108,12.8878804 17.7980922,12.8878804 C18.4167697,12.8878804 18.7263098,13.2005317 18.7263098,13.8229631 C18.7263098,14.1349149 18.6068196,14.4107577 18.3668144,14.6519268 C18.1262969,14.8936481 17.7671675,15.0138646 17.2868644,15.0138646 C16.9927684,15.0138646 16.6903648,14.9008626 16.3808614,14.6755947 C16.0709188,14.4495906 15.8543359,14.1498224 15.7312591,13.7763267 C15.653563,13.542372 15.6145503,13.2699157 15.6145503,12.9580374 C15.6145503,12.4136768 15.7891195,11.9112411 16.1370867,11.4522393 C16.4853101,10.9930167 16.9691997,10.6308949 17.5888288,10.3654322 C18.2079089,10.1009632 18.9048314,9.96882079 19.6790841,9.96882079 C21.2887802,9.96882079 22.5429334,10.3580705 23.4413974,11.1369379 C24.3390928,11.9158053 24.7888371,13.1223873 24.7888371,14.7571255 L24.7888371,19.8495786 C24.7888371,20.4098405 24.8471,20.8620694 24.9628573,21.204057" id="Fill-1" fill="#FEFEFE"></path>
                        <path d="M39.6615483,20.9534098 C39.8085005,21.3821661 39.9750195,21.6977507 40.1604104,21.8996852 C40.3461671,22.1020246 40.43921,22.1801844 40.43921,22.1329498 C40.43921,22.1173767 40.2031648,22.0790883 39.7308916,22.0170538 C39.2587647,21.9543197 38.682696,21.9233945 38.0020271,21.9233945 C37.3208097,21.9233945 36.7447044,21.9543197 36.2730164,22.0170538 C35.8010723,22.0790883 35.5646248,22.1173767 35.5646248,22.1329498 C35.5646248,22.1801844 35.6578872,22.1020246 35.8441924,21.8996852 C36.0292176,21.6977507 36.1953709,21.3821661 36.3423597,20.9534098 C36.489641,20.5253898 36.5627148,19.960857 36.5627148,19.2597378 L36.5627148,14.1898032 C36.5627148,13.6133421 36.5356139,13.0995783 36.4821069,12.6478858 C36.4271004,12.1959724 36.2302254,11.7406719 35.8902019,11.2808063 C35.549008,10.8218979 35.0000768,10.5914681 34.2419819,10.5914681 C33.7157994,10.5914681 33.2438919,10.7710554 32.8256743,11.1294936 C32.4080053,11.487674 32.0862319,11.9509635 31.8628411,12.5189202 C31.6390115,13.0878341 31.5259995,13.6523668 31.5259995,14.2127763 L31.5259995,19.2597378 C31.5259995,19.960857 31.6000608,20.5253898 31.7469764,20.9534098 C31.8941115,21.3821661 32.060411,21.6977507 32.2456191,21.8996852 C32.4317415,22.1020246 32.5244186,22.1801844 32.5244186,22.1329498 C32.5244186,22.1173767 32.2881906,22.0790883 31.8168683,22.0170538 C31.3447414,21.9543197 30.7682704,21.9233945 30.0876015,21.9233945 C29.4064207,21.9233945 28.8301691,21.9543197 28.3586273,22.0170538 C27.8861347,22.0790883 27.6502358,22.1173767 27.6502358,22.1329498 C27.6502358,22.1801844 27.7429496,22.1020246 27.9288891,21.8996852 C28.1144629,21.6977507 28.2803967,21.3821661 28.4277512,20.9534098 C28.575252,20.5253898 28.6486915,19.960857 28.6486915,19.2597378 L28.6486915,13.7225377 C28.6486915,12.7258247 28.5475293,12.0165692 28.3471067,11.5961333 C28.1453309,11.1759182 27.9139671,10.9269333 27.6502358,10.8488102 C28.5475293,10.8488102 29.3526942,10.739946 30.0649991,10.5214814 C30.7763897,10.3032007 31.2625974,9.9998021 31.5259995,9.61065956 L31.5259995,12.0638038 C31.6812173,11.5961333 32.0137067,11.1564059 32.5244186,10.743554 C33.0349843,10.3312912 33.5995689,10.062168 34.2187943,9.93739939 C34.5443348,9.85982859 34.9305506,9.82076708 35.3796362,9.82076708 C36.5863047,9.82076708 37.5647913,10.1911336 38.3154983,10.9301731 C39.0660591,11.6706852 39.4405714,12.6478858 39.4405714,13.8623271 L39.4405714,19.2597378 C39.4405714,19.960857 39.5142304,20.5253898 39.6615483,20.9534098" id="Fill-3" fill="#FEFEFE"></path>
                        <path d="M51.2976502,21.3211041 C50.6465981,21.9904393 49.631351,22.3253831 48.2515425,22.3253831 C46.9809449,22.3253831 45.8532264,22.072555 44.8683136,21.5659415 C43.8845731,21.0604696 43.1176791,20.3433011 42.567375,19.4162035 C42.0169244,18.4898056 41.7417907,17.4259099 41.7417907,16.226063 C41.7417907,14.9335689 42.0407009,13.7928968 42.6372026,12.8029421 C43.233924,11.8138343 44.0281849,11.054356 45.0202416,10.5243966 C46.0111627,9.9948054 47.0890567,9.73004664 48.2515425,9.73004664 C48.5313656,9.73004664 48.7398957,9.73781633 48.8795508,9.75339254 C49.7936469,9.83167865 50.5494403,10.1547285 51.1463083,10.722984 C51.7424436,11.2916078 52.0417569,11.9581444 52.0417569,12.7210105 C52.0417569,13.0484055 52.0020804,13.3283723 51.9248891,13.5629728 C51.8007309,13.9362495 51.5797813,14.2323448 51.2629196,14.4501172 C50.9441894,14.6688101 50.638465,14.7773281 50.3444639,14.7773281 C49.863621,14.7773281 49.5028331,14.6570267 49.26243,14.4153929 C49.0229427,14.1739064 48.902558,13.8977693 48.902558,13.5853613 C48.902558,12.962497 49.2124223,12.6512306 49.8323341,12.6512306 C49.8943949,12.6512306 50.0031295,12.6665858 50.1580617,12.6976646 C50.3125909,12.7291853 50.4516598,12.7447246 50.5760378,12.7447246 C51.0261068,12.7447246 51.251416,12.5030909 51.251416,12.0197864 C51.251416,11.5217159 51.0026966,11.0892275 50.5067598,10.722984 C50.0104567,10.3571088 49.4296351,10.174613 48.7634891,10.174613 C47.972965,10.174613 47.2600353,10.399971 46.6242603,10.8517916 C45.9890714,11.3033912 45.4891779,11.985099 45.1251661,12.8961048 C44.7607513,13.8076629 44.5784523,14.9172562 44.5784523,16.226063 C44.5784523,17.2701846 44.7413344,18.2124901 45.0670254,19.0539001 C45.3918004,19.895126 45.845826,20.5612575 46.4261347,21.0523316 C47.0083118,21.5422274 47.6708308,21.7878749 48.4151207,21.7878749 C49.4530086,21.7878749 50.2893639,21.5192866 50.9251389,20.9821098 C51.5607308,20.4443807 52.0020804,19.7784701 52.2512029,18.9837151 L52.5768938,19.404236 C52.3742254,20.0121133 51.9485191,20.6509588 51.2976502,21.3211041" id="Fill-5" fill="#FEFEFE"></path>
                        <path d="M76.9699329,21.1431964 C77.4586376,20.6918114 77.8495428,20.0330473 78.1438938,19.1678989 C78.4389775,18.3022346 78.5853838,17.2772775 78.5853838,16.0925486 C78.5853838,14.8294444 78.4389775,13.7621861 78.1438938,12.8883048 C77.8495428,12.0160079 77.4586376,11.3687403 76.9699329,10.9477915 C76.4820339,10.5269902 75.9507296,10.3167001 75.3779245,10.3167001 C74.7884899,10.3167001 74.2511418,10.5269902 73.7621073,10.9477915 C73.2745381,11.3687403 72.88323,12.0116599 72.5892819,12.8773242 C72.2941983,13.7422146 72.1470594,14.8145948 72.1470594,16.0925486 C72.1470594,17.2772775 72.2941983,18.3022346 72.5892819,19.1678989 C72.88323,20.0330473 73.2775417,20.6918114 73.773792,21.1431964 C74.2700057,21.5958342 74.8047166,21.8215267 75.3779245,21.8215267 C75.9507296,21.8215267 76.4820339,21.5958342 76.9699329,21.1431964 M78.2838901,10.5970378 C79.1981877,11.0964354 79.9385341,11.821636 80.5038302,12.7723449 C81.0690896,13.7230538 81.3520856,14.8294444 81.3520856,16.0925486 C81.3520856,17.3555053 81.0690896,18.4540842 80.5038302,19.3899803 C79.9385341,20.3243657 79.1981877,21.0381803 78.2838901,21.5292135 C77.3691529,22.0206151 76.4012669,22.2656895 75.3779245,22.2656895 C74.3552782,22.2656895 73.3907621,22.0206151 72.4843763,21.5292135 C71.5775876,21.0381803 70.8451897,20.3243657 70.2878055,19.3899803 C69.7293591,18.4540842 69.4512347,17.3555053 69.4512347,16.0925486 C69.4512347,14.8145948 69.7293591,13.7035245 70.2878055,12.7605905 C70.8451897,11.817288 71.5775876,11.0964354 72.4843763,10.5970378 C73.3907621,10.0984508 74.3552782,9.84943371 75.3779245,9.84943371 C76.4012669,9.84943371 77.3691529,10.0984508 78.2838901,10.5970378" id="Fill-7" fill="#FEFEFE"></path>
                        <path d="M33.3342243,25.187658 C32.5760148,26.9950497 31.4078278,28.3223132 29.8292976,29.1710316 C28.2510966,30.0197499 26.4398508,30.4437042 24.3968038,30.4437042 C22.3083989,30.4437042 20.1960713,30.0508186 18.0600039,29.2643111 C15.9244487,28.4770674 14.1603166,27.4774232 12.7671688,26.2623601 C11.5442962,25.187658 10.4927597,24.1292264 9.61058388,23.0855929 C8.7287739,22.0421434 7.88884687,20.6907686 7.09182702,19.0324253 C6.29462426,17.3734931 5.61765669,15.3296633 5.06070482,12.9005309 L5.06070482,12.4327346 L6.40677548,12.4327346 C7.22731564,12.4327346 7.98925623,12.2307885 8.69336543,11.8256079 C9.39787699,11.4205746 9.95914518,10.8212519 10.3765116,10.0269405 C10.7944267,9.23281311 11.0030001,8.29085206 11.0030001,7.20002664 C11.0030001,6.21930342 10.809863,5.3159941 10.4228572,4.49020911 C10.0368024,3.66486585 9.49038528,3.00708704 8.78682477,2.51613646 C8.08213032,2.02640064 7.28931704,1.78006028 6.40677548,1.78006028 C5.66455097,1.78006028 5.20032686,1.79640444 5.01472501,1.82673685 C4.54973275,1.88931584 4.24802915,2.0957897 4.10921184,2.4467474 C3.96995558,2.79641671 3.89987021,3.26800462 3.89987021,3.85996506 L3.89987021,4.67739391 L3.87631334,15.3061409 C3.87631334,17.8607994 3.88458019,19.1767251 3.89987021,19.2542862 C3.93132815,19.9554286 4.01988592,20.5195598 4.16718955,20.9473056 C4.31379819,21.3764134 4.47602606,21.6877623 4.65445843,21.8824566 C4.83193974,22.0776294 4.92126566,22.1513622 4.92126566,22.1049065 C4.92126566,22.0885991 4.68141715,22.0538862 4.20172013,21.9990744 C3.72176706,21.9450724 3.12640723,21.9169855 2.41472619,21.9169855 C1.73322281,21.9169855 1.1610175,21.9450724 0.696976289,21.9990744 C0.232861922,22.0538862 0,22.0885991 0,22.1049065 C0,22.1513622 0.0893259209,22.0776294 0.26735592,21.8824566 C0.445020129,21.6877623 0.607430894,21.3764134 0.754990585,20.9473056 C0.901379748,20.5195598 0.975452225,19.9554286 0.975452225,19.2542862 L0.975452225,4.25664223 C0.975452225,3.57154953 0.901379748,3.01522231 0.754990585,2.58633536 C0.607430894,2.15818463 0.445020129,1.8430442 0.26735592,1.64036189 C0.0893259209,1.43878392 0,1.36011845 0,1.4067582 C0,1.42247657 0.177883683,1.45718951 0.533577891,1.51178047 C0.89029631,1.56637144 1.40821839,1.59372214 2.08975834,1.59372214 C2.39852169,1.60925645 3.00222152,1.5701998 3.89987021,1.47710435 C4.72077616,1.36784879 5.43205484,1.31325783 6.03612046,1.31325783 C8.35760677,1.31325783 10.2063461,1.81230687 11.583326,2.80815947 C12.9604522,3.80555815 13.6495275,5.20714347 13.6495275,7.01361487 C13.6495275,8.02614293 13.4017413,8.96412837 12.9073029,9.82860191 C12.4114014,10.6926705 11.7304833,11.3936656 10.8633781,11.930667 C9.99722392,12.4682205 9.03761041,12.7753729 7.98567149,12.8535231 L7.28931704,12.8535231 C7.90786795,14.6910631 8.50780015,16.2564581 9.08812601,17.5485302 C9.66845186,18.842222 10.4268077,20.1226986 11.3638154,21.3918005 C12.2993234,22.6608288 13.4942496,23.8793154 14.9493988,25.04807 C16.3888923,26.2001861 18.0872919,27.1421839 20.0453292,27.8740636 C22.0022326,28.6059801 23.9096081,28.9719568 25.7667971,28.9719568 C27.3917095,28.9719568 28.8506264,28.6568163 30.1428162,28.0265355 C31.4349694,27.3962914 32.4671191,26.4174824 33.2416794,25.0943417 L33.3342243,25.187658 Z" id="Fill-9" fill="#FEFEFE"></path>
                        <path d="M49.2448893,29.1903209 C49.1755363,28.7072699 48.8972489,28.1888943 48.4109027,27.6356362 C47.9253227,27.0823782 47.1494161,26.8061175 46.0846422,26.8061175 L41.8016144,26.8061175 C41.1526664,26.8061175 40.6979504,27.0436648 40.4359706,27.5187964 C40.1732612,27.9942226 40.0415235,28.550538 40.0415235,29.1903209 L40.0415235,36.2958934 C40.087929,36.9504471 40.4041945,37.2779449 40.9912685,37.2779449 L43.376375,37.2779449 C44.0551656,37.2779449 44.6181248,37.1375676 45.066128,36.8571446 C45.513584,36.5766848 45.8450626,36.2533861 46.0615124,35.8872117 C46.2774879,35.5210005 46.408642,35.1741644 46.4552299,34.8467034 C46.4238186,35.1582518 46.4007618,35.5483319 46.3855122,36.0158755 C46.3701166,36.4829771 46.3627472,36.9356395 46.3627472,37.3712842 C46.3627472,38.3377914 46.3855122,39.2644803 46.4315529,40.1527874 C46.3855122,39.841681 46.2537744,39.4948449 46.0380543,39.1130895 C45.8224801,38.7312972 45.4940295,38.3996738 45.0546725,38.1196192 C44.6143671,37.8388278 44.0618784,37.698782 43.3991035,37.698782 L40.9912685,37.698782 C40.4041945,37.698782 40.087929,38.033831 40.0415235,38.7040026 L40.0415235,44.1501691 C40.0415235,44.852166 40.1183918,45.4160693 40.2734418,45.8448628 C40.4275432,46.2740245 40.5979523,46.5897721 40.7826989,46.7919949 C40.9678103,46.9942914 41.060439,47.0720496 41.060439,47.02538 C41.060439,47.0098357 40.8245806,46.9707172 40.354615,46.9089085 C39.8834819,46.8466577 39.3084836,46.8147956 38.6296931,46.8147956 C37.9503552,46.8147956 37.3717452,46.8466577 36.8933156,46.9089085 C36.4147037,46.9707172 36.1762186,47.0098357 36.1762186,47.02538 C36.1762186,47.0720496 36.2684824,46.9942914 36.4535939,46.7919949 C36.6381216,46.5897721 36.8040433,46.2740245 36.9512131,45.8448628 C37.0973979,45.4160693 37.1709098,44.852166 37.1709098,44.1501691 L37.1709098,29.2832919 C37.1709098,28.5824369 37.0973979,28.0173917 36.9512131,27.5882299 C36.8040433,27.1601732 36.6381216,26.8444256 36.4535939,26.6422028 C36.2684824,26.4399431 36.1762186,26.3614114 36.1762186,26.4084126 L50.0901488,26.3845436 L49.3490099,30.5689355 C49.3490099,30.1333276 49.3146435,29.6734088 49.2448893,29.1903209" id="Fill-11" fill="#FEFEFE"></path>
                        <path d="M52.2682416,44.1474836 L52.2682416,29.2433979 C52.2682416,28.2456236 52.1680255,27.535756 51.9678117,27.114938 C51.7672337,26.693309 51.5362375,26.444188 51.2743131,26.3655473 C52.1222707,26.3655473 52.9075704,26.2254098 53.6322158,25.945098 C54.3565698,25.664012 54.857177,25.3126913 55.1352395,24.8922052 L55.1352395,44.1474836 C55.1352395,44.850125 55.208061,45.414546 55.3551613,45.8437331 C55.5011687,46.2733258 55.6663013,46.5893264 55.8516884,46.7917718 C56.0366748,46.9942171 56.1293866,47.0720836 56.1293866,47.0253711 C56.1293866,47.0097757 55.8944561,46.9706212 55.4238664,46.9087558 C54.9532403,46.8464479 54.3797751,46.8145565 53.7020138,46.8145565 C53.0234874,46.8145565 52.4495123,46.8464479 51.9794326,46.9087558 C51.5092436,46.9706212 51.2743131,47.0097757 51.2743131,47.0253711 C51.2743131,47.0720836 51.3668063,46.9942171 51.5521934,46.7917718 C51.7364512,46.5893264 51.9027131,46.2733258 52.0490848,45.8437331 C52.1946915,45.414546 52.2682416,44.850125 52.2682416,44.1474836" id="Fill-13" fill="#FEFEFE"></path>
                        <path d="M65.4839288,46.0351866 C65.9722322,45.5834801 66.3631752,44.925337 66.6582231,44.0591731 C66.952575,43.1948883 67.0997144,42.1696692 67.0997144,40.9854686 C67.0997144,39.7230114 66.952575,38.6549429 66.6582231,37.7819629 C66.3631752,36.9085776 65.9722322,36.2621509 65.4839288,35.8408406 C64.9963947,35.420304 64.4650887,35.2092252 63.8922453,35.2092252 C63.3028455,35.2092252 62.7639572,35.420304 62.2764597,35.8408406 C61.7881564,36.2621509 61.3964808,36.9051511 61.1028981,37.7701728 C60.8070443,38.6351945 60.6613702,39.7070949 60.6613702,40.9854686 C60.6613702,42.1696692 60.8070443,43.1948883 61.1028981,44.0591731 C61.3964808,44.925337 61.7919292,45.5834801 62.2881444,46.0351866 C62.7843597,46.4875932 63.3187059,46.713078 63.8922453,46.713078 C64.4650887,46.713078 64.9963947,46.4875932 65.4839288,46.0351866 M66.7978901,35.4901233 C67.7117876,35.9896164 68.4514403,36.7138206 69.0170678,37.6654255 C69.5830982,38.6158515 69.8656922,39.7230114 69.8656922,40.9854686 C69.8656922,42.247152 69.5830982,43.3463537 69.0170678,44.2823368 C68.4514403,45.2164409 67.7117876,45.9296656 66.7978901,46.4207951 C65.883553,46.9127353 64.9148582,47.1578947 63.8922453,47.1578947 C62.8681306,47.1578947 61.904747,46.9127353 60.9972229,46.4207951 C60.0915669,45.9296656 59.3595332,45.2164409 58.8017809,44.2823368 C58.2425635,43.3463537 57.9648412,42.247152 57.9648412,40.9854686 C57.9648412,39.7070949 58.2425635,38.5956978 58.8017809,37.6536355 C59.3595332,36.7100625 60.0915669,35.9896164 60.9972229,35.4901233 C61.904747,34.9921039 62.8681306,34.7416389 63.8922453,34.7416389 C64.9148582,34.7416389 65.883553,34.9921039 66.7978901,35.4901233" id="Fill-15" fill="#FEFEFE"></path>
                        <path d="M80.0279267,38.5322909 C79.8195714,38.3225507 79.7157406,38.0620047 79.7157406,37.7502108 C79.7157406,37.5006727 79.7766737,37.2829435 79.9008033,37.0959924 C80.1324876,36.7220165 80.2479647,36.3871023 80.2479647,36.0912498 C80.2479647,35.7803027 80.1287272,35.538275 79.888792,35.3672284 C79.6495868,35.1962185 79.3366341,35.1097012 78.9511386,35.1097012 C78.255684,35.1097012 77.6456234,35.4063268 77.1198614,35.9975901 C76.594793,36.5896265 76.1859684,37.4153334 75.8922193,38.474674 C75.5992368,39.5335728 75.451413,40.7400665 75.451413,42.0959592 L75.451413,44.1516483 C75.451413,44.8532857 75.5251606,45.4169002 75.6725828,45.845474 C75.8185082,46.274416 75.9847324,46.5900019 76.1705617,46.7921212 C76.3555879,46.9943141 76.4488677,47.0720324 76.4488677,47.0253867 C76.4488677,47.0098504 76.2126563,46.9707519 75.7418034,46.9089748 C75.2701473,46.846756 74.6946604,46.8149102 74.0154522,46.8149102 C73.3358059,46.8149102 72.7603555,46.846756 72.2898312,46.9089748 C71.8182116,46.9707519 71.5827304,47.0098504 71.5827304,47.0253867 C71.5827304,47.0720324 71.67528,46.9943141 71.8610728,46.7921212 C72.0461355,46.5900019 72.2123597,46.274416 72.3590517,45.845474 C72.5057072,45.4169002 72.5798199,44.8532857 72.5798199,44.1516483 L72.5798199,38.8482449 C72.5798199,37.8511232 72.4786178,37.1426381 72.27855,36.7220165 C72.0769854,36.3013949 71.8459947,36.0529612 71.5827304,35.9741016 C72.4327628,35.9741016 73.2203289,35.8340907 73.9462317,35.5542163 C74.672098,35.2735687 75.1738373,34.9230814 75.451413,34.5028648 L75.451413,37.8203819 C75.5755062,37.3679514 75.8147478,36.8938363 76.1705617,36.3954595 C76.5255725,35.8970459 76.9664152,35.4757248 77.4914106,35.1331897 C78.0157488,34.7903601 78.5719956,34.6196816 79.1591287,34.6196816 C79.7300155,34.6196816 80.25136,34.7516666 80.7229796,35.0167778 C81.193504,35.2819259 81.5650897,35.6285476 81.8351446,36.0559801 C82.1055647,36.484554 82.2402089,36.9173248 82.2402089,37.3534827 C82.2402089,37.7737362 82.1055647,38.1279787 81.8351446,38.4162472 C81.5650897,38.7044788 81.2442511,38.8482449 80.8737971,38.8482449 C80.5176546,38.8482449 80.2370851,38.7431724 80.0279267,38.5322909" id="Fill-17" fill="#FEFEFE"></path>
                        <path d="M87.1664477,36.5559585 C86.6169013,37.4362229 86.3179281,38.5160752 86.2711402,39.7924954 L92.0604847,39.7924954 C92.0604847,38.3282732 91.8204635,37.2021241 91.3410805,36.4147847 C90.8590962,35.6286239 90.1698458,35.2351568 89.2711676,35.2351568 C88.4181048,35.2351568 87.7160307,35.6756573 87.1664477,36.5559585 M92.6074298,46.0223732 C91.8396989,46.699698 90.8126381,47.0385077 89.5270534,47.0385077 C88.4101541,47.0385077 87.3876732,46.827944 86.4576321,46.4071482 C85.527591,45.9863523 84.7794986,45.3288059 84.2144173,44.4325568 C83.6478704,43.5367497 83.3651649,42.4189244 83.3651649,41.077976 C83.3651649,39.7537859 83.6516442,38.6211913 84.2261051,37.6782771 C84.7990637,36.7350315 85.5389124,36.0300834 86.4455413,35.5625856 C87.3529395,35.0943881 88.293899,34.861026 89.2711676,34.861026 C90.6964196,34.861026 91.8597037,35.3171061 92.7584186,36.2280876 C93.6570968,37.1395111 94.1077915,38.5077514 94.1077915,40.3297881 L86.2492668,40.3297881 C86.2326328,40.4864678 86.2247188,40.7357779 86.2247188,41.077976 C86.2247188,42.5896736 86.5002431,43.8797581 87.0505589,44.9467196 C87.600545,46.0144177 88.4724402,46.5475117 89.6667208,46.5475117 C90.7982757,46.5475117 91.7079455,46.2591606 92.3983318,45.68279 C93.0879486,45.1064194 93.5718015,44.3813615 93.851869,43.5094209 L94.200268,43.7196163 C93.9058747,44.577119 93.3747576,45.3443486 92.6074298,46.0223732" id="Fill-19" fill="#FEFEFE"></path>
                        <g id="Group-23" transform="translate(96.331764, 34.801332)">
                            <mask id="mask-2" fill="white">
                                <use xlink:href="#path-1"></use>
                            </mask>
                            <g id="Clip-22"></g>
                            <path d="M2.70837416,3.66969295 C2.97817425,4.02810949 3.31034532,4.3364347 3.70375667,4.59315737 C4.09756923,4.85061722 4.62546117,5.15131263 5.28943857,5.49384295 C6.01505746,5.86748225 6.59744195,6.19936034 7.03706618,6.48792915 C7.47745637,6.77730885 7.85095278,7.13915328 8.15945205,7.5754528 C8.46798781,8.01289496 8.62278456,8.51904222 8.62278456,9.09662215 C8.62278456,9.65669407 8.42965336,10.1803125 8.04371923,10.6633492 C7.65782158,11.1470862 7.10997822,11.5290925 6.39982441,11.8093311 C5.69036362,12.0899015 4.86444051,12.2304448 3.92431651,12.2304448 C3.6308811,12.2304448 3.34568888,12.1992989 3.06720791,12.1366387 C2.78956586,12.0751211 2.52727947,12.0048679 2.28078643,11.9266532 C2.06394697,11.8484385 1.84039624,11.7819449 1.60893059,11.7280571 C1.37742848,11.6733584 1.14672879,11.6460091 0.914533667,11.6460091 C0.729645652,11.6460091 0.540636045,11.6969113 0.347140105,11.7975731 C0.154738393,11.8997093 0.0427624204,12.0360137 0.0119416721,12.2072605 L0.567699945,8.44119609 C0.814557725,9.36163808 1.16890514,10.1567965 1.63220117,10.8265975 C2.0954972,11.4971726 2.81283644,11.8328472 3.78454715,11.8328472 C4.44812333,11.8328472 5.01099408,11.5986085 5.47392537,11.1307577 C5.93762261,10.6633492 6.16908826,10.1104647 6.16908826,9.47103548 C6.16908826,8.87790107 5.95680807,8.40629066 5.53181002,8.0554302 C5.10721318,7.70456975 4.46391668,7.31839841 3.59965914,6.89765336 C2.87447793,6.53883137 2.29205698,6.21528341 1.85239627,5.92675146 C1.41277203,5.63814579 1.03854614,5.25993598 0.729645652,4.79252749 C0.420015673,4.32430811 0.265984881,3.75550061 0.265984881,3.08455694 C0.265984881,2.52326867 0.436538512,2.00879129 0.776223279,1.54134594 C1.11481382,1.07316341 1.57738036,0.703320588 2.16505361,0.429900812 C2.75159616,0.156517894 3.39901424,0.0205820441 4.10883978,0.0205820441 C4.55634245,0.0205820441 4.93775377,0.0596894022 5.25526219,0.137535529 C5.57087395,0.214976207 5.96016371,0.340296676 6.42309499,0.51194886 C6.65569134,0.589389538 6.84769183,0.628902345 7.00212384,0.628902345 C7.23395423,0.628902345 7.43091522,0.578737298 7.59245971,0.476637975 C7.75473369,0.375607561 7.85095278,0.262819139 7.88253949,0.137535529 L7.23395423,3.55273947 C7.23395423,3.42778759 7.1407625,3.10464507 6.95667692,2.58176384 C6.77032993,2.05965665 6.4621954,1.57249176 6.0304496,1.11949512 C5.59793785,0.667235665 5.04185131,0.441290231 4.36321126,0.441290231 C3.77666871,0.441290231 3.28703827,0.605349468 2.89326218,0.932657046 C2.50021557,1.26000148 2.30405701,1.76651733 2.30405701,2.45342094 C2.30405701,2.90604899 2.43784459,3.31042865 2.70837416,3.66969295" id="Fill-21" fill="#FEFEFE" mask="url(#mask-2)"></path>
                        </g>
                        <path d="M14.0839566,45.0207214 L14.0839566,34.615618 C14.0839566,33.9188337 14.0135892,33.4233386 13.8720071,33.1291694 C13.7298723,32.8345954 13.5668483,32.6617149 13.3810563,32.6063696 C13.9803581,32.6063696 14.5367763,32.5090001 15.0493163,32.3126052 C15.5611193,32.1166151 15.9152405,31.8717194 16.1122324,31.5778814 L16.1122324,45.0207214 C16.1122324,45.5101448 16.1644369,45.9044065 16.2674828,46.2039115 C16.370897,46.5041525 16.4879796,46.724393 16.619504,46.8650378 C16.7498494,47.0075962 16.8151327,47.0621687 16.8151327,47.029197 C16.8151327,47.018967 16.6488667,46.9916623 16.3166294,46.9469518 C15.9841342,46.9040813 15.577256,46.8824804 15.0984998,46.8824804 C14.6181594,46.8824804 14.212239,46.9040813 13.8799648,46.9469518 C13.5471013,46.9916623 13.3810563,47.018967 13.3810563,47.029197 C13.3810563,47.0621687 13.4461554,47.0075962 13.5776798,46.8650378 C13.7083936,46.724393 13.825513,46.5041525 13.928522,46.2039115 C14.0319732,45.9044065 14.0839566,45.5101448 14.0839566,45.0207214" id="Fill-24" fill="#FEFEFE"></path>
                        <path d="M22.8794684,42.2193015 C22.6681072,42.3280122 22.3687183,42.4488592 21.9795858,42.5795925 C21.3850799,42.7760612 20.9418383,43.0356094 20.6508835,43.3571305 C20.3595635,43.6789836 20.2128995,44.1677207 20.2128995,44.8228992 C20.2128995,45.3469388 20.3754092,45.7611609 20.6992238,46.067447 C21.0234766,46.3729953 21.4014732,46.5257879 21.8334695,46.5257879 C22.2115026,46.5257879 22.5336378,46.4007724 22.7978667,46.149561 C23.0630449,45.8979807 23.1954332,45.5430386 23.1954332,45.0846977 L23.1954332,41.9905552 C23.1954332,42.0331247 23.0890041,42.1098898 22.8794684,42.2193015 M25.326242,46.3783073 C25.4067119,46.6184521 25.4990478,46.793673 25.6015338,46.901609 C25.7048229,47.0114264 25.755573,47.0547336 25.755573,47.0331169 C25.755573,47.022825 25.6256309,47.0008025 25.366623,46.9681192 C25.107104,46.9354359 24.7022354,46.9179507 24.1513964,46.9179507 C23.7728155,46.9179507 23.4626925,46.9354359 23.2194938,46.9681192 C22.9755649,47.0008025 22.8548601,47.022825 22.8548601,47.0331169 C22.8760729,47.022825 22.9138981,46.9810302 22.9676786,46.9103148 C23.0220067,46.8396362 23.0733774,46.7309624 23.1220829,46.5831497 C23.171336,46.4349682 23.1954332,46.2525171 23.1954332,46.0347637 C23.1514376,46.1768955 23.011309,46.3266263 22.7737695,46.4847309 C22.5357189,46.6427986 22.2310359,46.7739376 21.8575301,46.8776683 C21.4857403,46.9810302 21.0936139,47.0331169 20.6826844,47.0331169 C20.2621526,47.0331169 19.8645861,46.9460598 19.4914454,46.7712447 C19.1190714,46.5968354 18.8165061,46.3452551 18.5840781,46.0180532 C18.3525264,45.6912201 18.2361298,45.3089066 18.2361298,44.8719242 C18.2361298,44.3261942 18.4110532,43.883826 18.7627256,43.5456313 C19.1130836,43.2073996 19.5055751,42.9588442 19.9377173,42.8000019 C20.3689833,42.6423031 20.8664435,42.4982531 21.4283817,42.3664132 C21.6666514,42.3230691 21.7956807,42.2961035 21.8174777,42.2846681 C22.2171253,42.1759942 22.5466356,42.0582089 22.805753,41.9327877 C23.065126,41.8074033 23.1954332,41.646237 23.1954332,41.4497682 L23.1954332,41.089883 C23.1954332,39.5720645 22.5957062,38.8135609 21.395449,38.8135609 C20.8664435,38.8135609 20.4129789,38.9313463 20.0349822,39.1654414 C19.6562188,39.4003111 19.4668371,39.7468796 19.4668371,40.2052205 C19.4668371,40.4891152 19.5971808,40.6308043 19.8562982,40.6308043 C19.9323137,40.6308043 20.019027,40.6175244 20.1154886,40.5897842 C20.2128995,40.5624128 20.2832194,40.5495018 20.3266673,40.5495018 C20.7586635,40.5495018 20.9753188,40.7680299 20.9753188,41.2046435 C20.9753188,41.4228027 20.8910518,41.6158776 20.7242338,41.7853439 C20.5557362,41.9540724 20.3046877,42.0395433 19.9706866,42.0395433 C19.7643274,42.0395433 19.554098,41.960159 19.3385745,41.8016855 C19.1221383,41.6439499 18.9703262,41.4334266 18.8838321,41.1712224 C18.829869,41.0078428 18.8035082,40.8162802 18.8035082,40.5985268 C18.8035082,40.2166191 18.9242495,39.8643329 19.1679959,39.5424429 C19.4106104,39.2209587 19.7487372,38.9663167 20.1799667,38.7808776 C20.6129122,38.5954017 21.0988714,38.5023318 21.6395604,38.5023318 C22.7627067,38.5023318 23.6381636,38.7751968 24.26458,39.3212588 C24.8914345,39.86662 25.2045514,40.7132872 25.2045514,41.8590842 L25.2045514,45.4282412 C25.2045514,45.8219902 25.2455531,46.1381625 25.326242,46.3783073" id="Fill-26" fill="#FEFEFE"></path>
                        <path d="M29.1267549,41.0535947 C29.3166572,41.3048159 29.5495363,41.5189009 29.8249897,41.6995708 C30.1017599,41.8794671 30.4717622,42.0897575 30.9373009,42.328821 C31.4462187,42.5906892 31.8540771,42.8229739 32.1630707,43.0237592 C32.4718448,43.2264603 32.7335458,43.4795603 32.9501851,43.7847171 C33.1672268,44.0891372 33.2750161,44.4443982 33.2750161,44.8474425 C33.2750161,45.2391028 33.1393193,45.6057479 32.8691694,45.9431409 C32.5986537,46.2813076 32.2143136,46.5481126 31.7163686,46.7443664 C31.2182042,46.9409518 30.6390972,47.0385077 29.9793037,47.0385077 C29.7741492,47.0385077 29.5736398,47.0168818 29.3788363,46.9735932 C29.184618,46.9295678 28.9997632,46.8806057 28.8264663,46.82597 C28.6749687,46.7720711 28.5182408,46.7253931 28.3558436,46.6874097 C28.1938121,46.6487263 28.0315612,46.6297161 27.8690177,46.6297161 C27.7399412,46.6297161 27.6063658,46.6650101 27.4714737,46.7367771 C27.3353015,46.8073651 27.2570655,46.9022684 27.2357783,47.0218185 L27.6253853,44.388952 C27.7981701,45.0326439 28.0474352,45.5890587 28.3718639,46.0574227 C28.697024,46.5265235 29.2002725,46.7602818 29.8822311,46.7602818 C30.3472211,46.7602818 30.7428997,46.5971115 31.067109,46.2703288 C31.3911719,45.9431409 31.5544835,45.5556436 31.5544835,45.1089424 C31.5544835,44.6948457 31.4052902,44.3646736 31.1080009,44.1198628 C30.8103092,43.8743153 30.3585231,43.6048209 29.7520573,43.3103112 C29.2428104,43.0590532 28.8351348,42.8335842 28.5265435,42.63092 C28.2180986,42.4301347 27.9554833,42.1660191 27.7399412,41.838868 C27.5221314,41.5113116 27.4142324,41.113904 27.4142324,40.6444348 C27.4142324,40.2523692 27.5329213,39.8925398 27.7713965,39.5650571 C28.0093596,39.2382744 28.3347393,38.9793903 28.745414,38.789289 C29.15693,38.5979719 29.6117154,38.5023318 30.1088922,38.5023318 C30.4231528,38.5023318 30.6906693,38.5296681 30.9129779,38.5843038 C31.134555,38.6382026 31.4081065,38.7262903 31.7323889,38.8458036 C31.8951153,38.9008446 32.0302268,38.9274072 32.1387477,38.9274072 C32.3011815,38.9274072 32.4394386,38.8921132 32.5534458,38.8211568 C32.6660997,38.7505687 32.7335458,38.6719862 32.7555645,38.5843038 L32.3011815,40.9715859 C32.3011815,40.8843088 32.2356008,40.6588398 32.1059756,40.2933736 C31.9765699,39.9278707 31.7597111,39.5870514 31.4573012,39.2712843 C31.1536111,38.9547435 30.7636017,38.7968415 30.288663,38.7968415 C29.8760498,38.7968415 29.5326016,38.9114549 29.257331,39.1407186 C28.9807437,39.3692086 28.8420843,39.7241012 28.8420843,40.2034439 C28.8420843,40.5199479 28.9376206,40.8023368 29.1267549,41.0535947" id="Fill-28" fill="#FEFEFE"></path>
                        <g id="Group-32" transform="translate(54.589973, 0.000000)">
                            <mask id="mask-4" fill="white">
                                <use xlink:href="#path-3"></use>
                            </mask>
                            <g id="Clip-31"></g>
                            <path d="M12.4895089,21.8835648 C12.3162893,21.685243 12.1573314,21.3773688 12.0134011,20.9620428 C11.9081708,20.0834131 11.8533489,19.1514628 11.8533489,18.0868189 L11.8533489,14.0885085 C11.8533489,12.871641 11.4674072,11.893961 10.6956332,11.1531101 C10.4002589,10.8697406 10.0718382,10.6413868 9.71299744,10.4662062 C9.13279003,10.1741035 8.46580865,10.0273704 7.70979187,10.0273704 C7.26187918,10.0273704 6.87597396,10.0666515 6.55207619,10.1442926 C5.9346643,10.2695795 5.37553943,10.5347455 4.87389911,10.9392011 C4.37302476,11.3444674 4.03709025,11.7812396 3.86726277,12.2479334 L3.86726277,0.0109773436 C3.58994355,0.431020109 3.08830323,0.782191926 2.36267009,1.06312938 C1.63747466,1.3434404 0.850600043,1.48390913 0.00215567097,1.48390913 C0.264045985,1.56213974 0.495917395,1.81112904 0.696201477,2.23249837 C0.89685031,2.65331497 0.997156489,3.36243883 0.997156489,4.35986997 L0.997156489,5.0181421 L0.985520972,5.0181421 C0.980633325,5.21329487 0.97384898,5.40800546 0.97384898,5.60787492 L0.97384898,19.2408587 C0.97384898,19.9422074 0.900607232,20.5082094 0.754087261,20.9364326 C0.607129591,21.365356 0.445545456,21.6812264 0.268204132,21.8835648 C0.173879849,21.991201 0.105854022,22.06103 0.0622664282,22.0982476 C0.0743396446,22.0957787 0.0942185055,22.0927202 0.111142893,22.0887774 C0.102863074,22.0965525 0.0923218069,22.1081231 0.0852091869,22.1137979 C0.180226494,22.0931255 0.392182569,22.06103 0.731144503,22.0162215 C1.20156224,21.9534306 1.77575128,21.9224774 2.45513415,21.9224774 C3.13451702,21.9224774 3.70943556,21.9534306 4.17988978,22.0162215 C4.51469356,22.0602562 4.72548244,22.0927202 4.82166694,22.1130609 L4.82133867,22.1124713 C4.84646993,22.1286112 4.86302956,22.1341386 4.86302956,22.1174091 C4.86302956,22.1130609 4.84048803,22.1075335 4.80740523,22.099353 C4.76119144,22.0602562 4.69768851,21.996323 4.60788712,21.8987466 C4.42336023,21.6966293 4.25276677,21.380759 4.09869648,20.9516145 C3.94462619,20.523207 3.86726277,19.958163 3.86726277,19.256409 L3.86726277,14.2048779 C3.86726277,13.6439611 3.98332614,13.1022795 4.21443158,12.580091 C4.44593824,12.0577552 4.76644383,11.6323693 5.17529182,11.305002 C5.58450455,10.9778927 6.05831446,10.8142827 6.59865473,10.8142827 C6.97555064,10.8142827 7.30021438,10.8709197 7.57527216,10.9828673 C7.84132062,11.0977259 8.06075407,11.2650945 8.23058155,11.4891001 C8.57745855,11.9489767 8.77770616,12.4087059 8.83219977,12.8684352 C8.88629215,13.3289014 8.91299184,13.8387085 8.91299184,14.4003623 L8.91299184,19.2408587 C8.91299184,19.9422074 8.83559194,20.5082094 8.6818864,20.9364326 C8.52785258,21.365356 8.35762388,21.6812264 8.17273224,21.8835648 C8.07581823,21.9900586 8.00553096,22.0595192 7.95895241,22.0974737 C8.05550167,22.0771699 8.2659258,22.0454797 8.60109433,22.0006712 C9.05728683,21.9401281 9.61415026,21.9097645 10.2664687,21.9080694 L10.8410225,21.9142969 C11.2994764,21.9260886 11.7026708,21.9551257 12.0502408,22.0006712 C12.3880356,22.0458482 12.5999916,22.0775752 12.6950454,22.0982476 C12.6510931,22.06103 12.583432,21.991201 12.4895089,21.8835648" id="Fill-30" fill="#FEFEFE" mask="url(#mask-4)"></path>
                        </g>
                        <path d="M54.710521,22.1463025 C54.6366698,22.1729226 54.589973,22.1947246 54.589973,22.208938 C54.589973,22.2808485 54.6320587,22.2560352 54.710521,22.1463025" id="Fill-33" fill="#FEFEFE"></path>
                        <path d="M84.9815763,20.2079737 L85.2785073,20.2079737 C85.6170356,20.2079737 85.9042497,20.0840854 85.9042497,19.7641903 C85.9042497,19.5366157 85.7404081,19.3094077 85.2785073,19.3094077 C85.1461457,19.3094077 85.0539621,19.319967 84.9815763,19.3303796 L84.9815763,20.2079737 Z M84.9815763,21.6425336 L84.5729185,21.6425336 L84.5729185,19.052025 C84.7873829,19.0202738 84.9924578,18.9895126 85.3002704,18.9895126 C85.6886936,18.9895126 85.9454831,19.0725936 86.0984795,19.1859227 C86.2529317,19.2993983 86.3346706,19.4752398 86.3346706,19.7226498 C86.3346706,20.0637001 86.1089607,20.2695696 85.8322642,20.3524673 L85.8322642,20.3730359 C86.0572098,20.4146131 86.2116984,20.6212158 86.263049,21.0028901 C86.324153,21.4057196 86.3856572,21.5600025 86.4272545,21.6425336 L85.9964698,21.6425336 C85.9353658,21.5600025 85.8734976,21.3226385 85.8225109,20.9825048 C85.7610066,20.6512072 85.5968011,20.5277222 85.2691179,20.5277222 L84.9815763,20.5277222 L84.9815763,21.6425336 Z M85.4130889,18.3296304 C84.3981954,18.3296304 83.5685062,19.2068946 83.5685062,20.2907248 C83.5685062,21.3943904 84.3981954,22.2619752 85.422078,22.2619752 C86.4474891,22.2722045 87.266697,21.3943904 87.266697,20.3005141 C87.266697,19.2068946 86.4474891,18.3296304 85.422078,18.3296304 L85.4130889,18.3296304 Z M85.422078,17.9677548 C86.6829522,17.9677548 87.6873645,19.0002918 87.6873645,20.2907248 C87.6873645,21.601763 86.6829522,22.6238508 85.4130889,22.6238508 C84.152251,22.6238508 83.1283321,21.601763 83.1283321,20.2907248 C83.1283321,19.0002918 84.152251,17.9677548 85.4130889,17.9677548 L85.422078,17.9677548 Z" id="Fill-35" fill="#FEFEFE"></path>
                    </g>
                </g>
            </g>
        </g>
    </g>
</svg>