<?xml version="1.0" encoding="UTF-8"?>
<svg width="80px" height="43px" viewBox="0 0 80 43" version="1.1" xmlns="http://www.w3.org/2000/svg" xmlns:xlink="http://www.w3.org/1999/xlink">
    <!-- Generator: Sketch 50.2 (55047) - http://www.bohemiancoding.com/sketch -->
    <title>DW</title>
    <desc>Created with Sketch.</desc>
    <defs>
        <polygon id="path-1" points="4.0302267e-05 0.1274 15.8238583 0.1274 15.8238583 19.52748 4.0302267e-05 19.52748"></polygon>
        <polygon id="path-3" points="0.198166247 0.1274 9.27605038 0.1274 9.27605038 19.45118 0.198166247 19.45118"></polygon>
    </defs>
    <g id="Page-1" stroke="none" stroke-width="1" fill="none" fill-rule="evenodd">
        <g id="Portafolio-|-Es-|-Hoovers-Copy" transform="translate(-282.000000, -272.000000)">
            <g id="DW" transform="translate(282.000000, 272.000000)">
                <g id="Page-1">
                    <g id="Group-3" transform="translate(0.000000, 0.072600)">
                        <mask id="mask-2" fill="white">
                            <use xlink:href="#path-1"></use>
                        </mask>
                        <g id="Clip-2"></g>
                        <path d="M12.5018035,9.79288 C12.4828615,8.00268 11.8603929,6.49828 10.6178741,5.26868 C9.37636272,4.04048 7.85636272,3.42728 6.05303778,3.42728 L3.31873048,3.42728 L3.31873048,16.17668 L6.07762217,16.17668 C7.88376826,16.16068 9.40679093,15.53908 10.6545491,14.31568 C11.9027103,13.08628 12.5179244,11.57708 12.5018035,9.79288 M15.8229118,9.76668 C15.8577733,12.46808 14.9296121,14.75408 13.0410479,16.63328 C11.1563123,18.51348 8.84336524,19.45948 6.09998992,19.47388 L4.0302267e-05,19.52748 L4.0302267e-05,0.12728 L6.05303778,0.12728 C8.75973804,0.12728 11.0589824,1.06328 12.9402922,2.93708 C14.8334912,4.80468 15.7892594,7.08168 15.8229118,9.76668" id="Fill-1" fill="#FFFFFF" mask="url(#mask-2)"></path>
                    </g>
                    <path d="M26.2089068,6.73784 C26.2248262,5.82984 25.919335,5.06404 25.2882015,4.43824 C24.6524332,3.80944 23.8784282,3.49924 22.9625592,3.49924 L20.8446751,3.49924 L20.8446751,9.94904 L22.9353552,9.94904 C23.8552544,9.94904 24.6266398,9.64404 25.2515264,9.02604 C25.8737935,8.40684 26.1905693,7.64684 26.2089068,6.73784 Z M29.5304181,19.52004 L26.2089068,19.52004 L26.2089068,16.49524 C26.2089068,15.56744 25.8947506,14.79624 25.2680504,14.17544 C24.6421562,13.55804 23.8673451,13.24904 22.9450277,13.24904 L20.8446751,13.24904 L20.8446751,19.52004 L17.5219547,19.52004 L17.5219547,0.20004 L22.9625592,0.20004 C24.8132393,0.20004 26.372534,0.83284 27.6370176,2.09204 C28.8998892,3.35564 29.5304181,4.90164 29.5304181,6.74024 C29.5304181,8.68964 28.7926851,10.31764 27.3196373,11.62104 C28.7926851,12.92084 29.5304181,14.54644 29.5304181,16.50004 L29.5304181,19.52004 Z" id="Fill-4" fill="#FFFFFF"></path>
                    <g id="Group-8" transform="translate(31.032746, 0.072600)">
                        <mask id="mask-4" fill="white">
                            <use xlink:href="#path-3"></use>
                        </mask>
                        <g id="Clip-7"></g>
                        <polygon id="Fill-6" fill="#FFFFFF" mask="url(#mask-4)" points="9.27605038 19.45118 0.198166247 19.45118 0.198166247 0.12738 9.27605038 0.12738 9.27605038 2.98878 3.5200806 2.98878 3.5200806 6.77738 9.27605038 6.77738 9.27605038 10.22058 3.5200806 10.22058 3.5200806 16.59258 9.27605038 16.59258"></polygon>
                    </g>
                    <path d="M51.8299647,8.99624 L51.8299647,6.71864 C51.8299647,5.83464 51.513995,5.07544 50.8862872,4.44604 C50.2563627,3.81844 49.4930378,3.50004 48.5916776,3.50004 C47.6959597,3.50004 46.9255819,3.81844 46.2898136,4.44604 C45.6490076,5.07544 45.3316272,5.83464 45.3316272,6.71864 L45.3316272,8.99624 L51.8299647,8.99624 Z M55.2006448,19.52384 L51.8299647,19.52384 L51.8299647,11.85604 L45.3316272,11.85604 L45.3316272,19.52384 L42.0078992,19.52384 L42.0078992,6.74024 C42.0078992,4.90424 42.6402418,3.35564 43.9168161,2.09204 C45.1873451,0.83344 46.7488564,0.20004 48.6059849,0.20004 C50.4403426,0.20004 52.0020554,0.84004 53.2820554,2.10464 C54.5612494,3.37464 55.2006448,4.91844 55.2006448,6.74024 L55.2006448,19.52384 Z" id="Fill-9" fill="#FFFFFF"></path>
                    <polygon id="Fill-11" fill="#FFFFFF" points="78.6360907 19.52378 74.4708514 19.52378 72.6052594 9.63458 67.2849572 19.96278 62.1389622 9.51058 60.1748312 19.52378 56.0396171 19.52378 61.0882821 0.23698 67.2958388 12.85578 73.7411788 0.27378"></polygon>
                    <polygon id="Fill-13" fill="#FFFFFF" points="25.0041713 23.531 18.0651285 42.8702 12.4334912 31.4754 6.69001511 42.8726 0.0737934509 23.531 3.81182872 23.531 7.23449874 34.9352 12.5501662 24.3374 17.7173199 34.791 21.3586297 23.531"></polygon>
                    <path d="M35.8336322,32.32554 L35.8336322,30.05034 C35.8336322,29.16374 35.5214912,28.40514 34.8931788,27.77634 C34.2596272,27.14754 33.4961008,26.82794 32.5995768,26.82794 C31.6984181,26.82794 30.9324736,27.14754 30.2934811,27.77634 C29.6558992,28.40514 29.3383174,29.16374 29.3383174,30.05034 L29.3383174,32.32554 L35.8336322,32.32554 Z M39.2071335,42.85434 L35.8336322,42.85434 L35.8336322,35.18394 L29.3383174,35.18394 L29.3383174,42.85434 L26.0143879,42.85434 L26.0143879,30.07294 C26.0143879,28.22974 26.647335,26.68354 27.9214912,25.42354 C29.1916171,24.16274 30.7589723,23.53514 32.6108615,23.53514 C34.4478388,23.53514 36.0087456,24.16374 37.2853199,25.43454 C38.5667305,26.70394 39.2071335,28.24874 39.2071335,30.07294 L39.2071335,42.85434 Z" id="Fill-15" fill="#FFFFFF"></path>
                    <polygon id="Fill-17" fill="#FFFFFF" points="53.653602 26.38824 48.631335 26.38824 48.631335 42.85104 45.3100252 42.85104 45.3100252 26.38824 40.311738 26.38824 40.311738 23.53224 53.653602 23.53224"></polygon>
                    <polygon id="Fill-19" fill="#FFFFFF" points="64.4096725 42.85112 55.3243325 42.85112 55.3243325 23.53212 64.4096725 23.53212 64.4096725 26.38832 58.6480605 26.38832 58.6480605 30.17492 64.4096725 30.17492 64.4096725 33.61812 58.6480605 33.61812 58.6480605 39.99372 64.4096725 39.99372"></polygon>
                    <path d="M74.7882922,30.06518 C74.811063,29.15358 74.5057733,28.39018 73.8675869,27.76378 C73.2410882,27.14098 72.4634559,26.82498 71.5427506,26.82498 L69.424665,26.82498 L69.424665,33.27578 L71.5209874,33.27578 C72.438267,33.27578 73.211063,32.96798 73.8313149,32.34998 C74.4566045,31.73558 74.7725743,30.97318 74.7882922,30.06518 Z M78.1132292,42.85118 L74.7882922,42.85118 L74.7882922,39.82318 C74.7882922,38.89858 74.4805844,38.12178 73.8494509,37.50158 C73.2267809,36.88478 72.4525743,36.57458 71.5294509,36.57458 L69.424665,36.57458 L69.424665,42.85118 L66.1057733,42.85118 L66.1057733,23.53098 L71.5427506,23.53098 C73.3998791,23.53098 74.9553451,24.15978 76.215194,25.42058 C77.4820957,26.68058 78.1132292,28.22678 78.1132292,30.07118 C78.1132292,32.01938 77.3775113,33.64678 75.9012393,34.94958 C77.3775113,36.24758 78.1132292,37.87838 78.1132292,39.82438 L78.1132292,42.85118 Z" id="Fill-21" fill="#FFFFFF"></path>
                    <path d="M78.5939748,1.03746 L78.1601209,1.03746 L78.1601209,1.58386 L78.5818841,1.58386 C78.7731184,1.58386 78.988131,1.53026 78.988131,1.29466 C78.988131,1.07086 78.7731184,1.03746 78.5939748,1.03746 Z M79.0111033,2.43446 C78.9629421,2.35826 78.9667708,2.22826 78.9629421,2.14166 C78.9570982,1.83806 78.8680302,1.76526 78.5544786,1.76526 L78.1601209,1.76526 L78.1601209,2.43446 L77.956796,2.43446 L77.956796,0.85326 L78.6443526,0.85326 C78.9234458,0.85326 79.1890378,0.96226 79.1890378,1.28326 C79.1890378,1.47766 79.0892897,1.62086 78.8932191,1.66626 L78.8932191,1.67466 C79.1132695,1.73546 79.148131,1.86426 79.1612292,2.06946 C79.1624383,2.17446 79.1565945,2.34026 79.210801,2.43446 L79.0111033,2.43446 Z M78.5518589,0.43426 C77.8836474,0.43426 77.3595164,0.97306 77.3595164,1.63106 C77.3595164,2.28546 77.8836474,2.82826 78.5518589,2.82826 C79.2178539,2.82826 79.743194,2.28546 79.743194,1.63106 C79.743194,0.97726 79.2178539,0.43426 78.5518589,0.43426 Z M78.5544786,3.01366 C77.7861159,3.01366 77.1600202,2.39886 77.1600202,1.63106 C77.1600202,0.86326 77.7861159,0.24946 78.5544786,0.24946 C79.3236474,0.24946 79.9438992,0.87226 79.9438992,1.63106 C79.9438992,2.39046 79.3202217,3.01366 78.5544786,3.01366 Z" id="Fill-23" fill="#FFFFFF"></path>
                </g>
            </g>
        </g>
    </g>
</svg>