<?xml version="1.0" encoding="UTF-8"?>
<svg width="74px" height="18px" viewBox="0 0 74 18" version="1.1" xmlns="http://www.w3.org/2000/svg" xmlns:xlink="http://www.w3.org/1999/xlink">
    <!-- Generator: Sketch 50.2 (55047) - http://www.bohemiancoding.com/sketch -->
    <title>logo</title>
    <desc>Created with Sketch.</desc>
    <defs>
        <polygon id="path-1" points="17.9403744 17.8875831 0.0949876525 17.8875831 0.0949876525 0.0423951009 17.9403744 0.0423951009"></polygon>
        <polygon id="path-3" points="17.8800918 0.0421351957 17.8800918 17.8875219 0.0345979492 17.8875219 0.0345979492 0.0421351957"></polygon>
    </defs>
    <g id="Page-1" stroke="none" stroke-width="1" fill="none" fill-rule="evenodd">
        <g id="iiDEA" transform="translate(-152.000000, -98.000000)">
            <g id="logo" transform="translate(152.000000, 98.000000)">
                <g id="Group-3" transform="translate(15.000000, 0.000000)">
                    <g id="Fill-1-Clipped">
                        <mask id="mask-2" fill="white">
                            <use xlink:href="#path-1"></use>
                        </mask>
                        <g id="path-1"></g>
                        <path d="M9.01783392,0.0423951009 L2.25204671,0.0423951009 C1.06091714,0.0423951009 0.0949876525,1.00786593 0.0949876525,2.19930128 L0.0949876525,8.91249591 C0.0949876525,10.1001091 1.05801232,11.062828 2.24547265,11.062828 C3.43308585,11.062828 4.39580475,10.1001091 4.39580475,8.91249591 L4.39580475,4.35651322 L9.01783392,4.35651322 C11.5589409,4.35651322 13.6265621,6.42367571 13.6265621,8.96493558 C13.6265621,11.5060426 11.5589409,13.5735108 9.01783392,13.5735108 L4.40941155,13.5735108 L2.25204671,13.5735108 L0.0949876525,13.5735108 L0.0949876525,17.887629 L2.25204671,17.887629 L4.40941155,17.887629 L9.01783392,17.887629 C11.4013162,17.887629 13.6416977,16.959615 15.3271055,15.2742072 C17.0123605,13.5887994 17.9403744,11.3482649 17.9403744,8.96493558 C17.9403744,6.58160625 17.0123605,4.34091892 15.3271055,2.65581686 C13.6416977,0.970256139 11.4013162,0.0423951009 9.01783392,0.0423951009" id="Fill-1" fill="#FEFEFE" fill-rule="nonzero" mask="url(#mask-2)"></path>
                    </g>
                </g>
                <g id="Group-6" transform="translate(35.000000, 0.000000)" fill="#FEFEFE" fill-rule="nonzero">
                    <path d="M8.94736904,4.35648264 L15.7128505,4.35648264 C16.9039801,4.35648264 17.8699096,3.39055316 17.8699096,2.19942359 C17.8699096,1.00798824 16.9039801,0.0420587531 15.7128505,0.0420587531 L8.94706332,0.0420587531 C6.56358108,0.0420587531 4.32289374,0.970378449 2.63779168,2.65548051 C0.952536732,4.34088834 0.0245228062,6.58172856 0.0245228062,8.96505792 C0.0245228062,11.3482344 0.952536732,13.5889217 2.63779168,15.2741766 C4.32289374,16.9597374 6.56358108,17.8875984 8.94736904,17.8875984 L13.5554857,17.8875984 L15.7128505,17.8875984 L17.8699096,17.8875984 L17.8699096,13.5734803 L15.7128505,13.5734803 L13.5554857,13.5734803 L8.94736904,13.5734803 C7.18230801,13.5734803 5.64596335,12.5759035 4.87205783,11.1150843 L5.7965554,11.1150843 L5.7965554,11.1219641 L10.1106735,11.1219641 L10.1106735,6.80784596 L5.7965554,6.80784596 L5.7965554,6.8147258 L4.87205783,6.8147258 C5.64596335,5.35375362 7.18230801,4.35648264 8.94736904,4.35648264" id="Fill-4"></path>
                </g>
                <g id="Group-9" transform="translate(56.000000, 0.000000)">
                    <g id="Fill-7-Clipped">
                        <mask id="mask-4" fill="white">
                            <use xlink:href="#path-3"></use>
                        </mask>
                        <g id="path-3"></g>
                        <path d="M17.8792203,8.88257624 C17.8579692,6.52997688 16.9324014,4.32154835 15.2667159,2.65555695 C13.5814609,0.970302012 11.3406207,0.0421351957 8.95729133,0.0421351957 C6.57411487,0.0421351957 4.33327465,0.970302012 2.6480197,2.65555695 C0.963070532,4.3408119 0.0345979492,6.58165212 0.0345979492,8.96498148 L0.0345979492,15.5430255 L0.0345979492,15.7306158 L0.0345979492,17.8875219 L4.34886895,17.8875219 L4.34886895,15.5430255 L4.34886895,8.96498148 C4.34886895,6.42372157 6.41633721,4.35655909 8.95729133,4.35655909 C10.7023245,4.35655909 12.2239921,5.33135593 13.0060005,6.76496162 L10.1623335,6.76496162 C8.97487311,6.76496162 8.01184846,7.72783338 8.01184846,8.91544659 C8.01184846,10.1030598 8.97487311,11.0656259 10.1623335,11.0656259 L13.5658666,11.0656259 L13.5658666,15.5430255 L13.5658666,15.6879608 L13.5658666,15.7306158 L13.5658666,17.8875219 L17.8801376,17.8875219 L17.8801376,15.7306158 L17.8801376,15.6879608 L17.8801376,15.5430255 L17.8801376,8.96467569 L17.8801376,8.92232647 C17.8801376,8.90887258 17.8792203,8.89572441 17.8792203,8.88257624" id="Fill-7" fill="#FEFEFE" fill-rule="nonzero" mask="url(#mask-4)"></path>
                    </g>
                </g>
                <path d="M9.99985779,6 C8.89527194,6 8,6.89165464 8,7.99142812 L8,14.8289101 L8,14.829618 L8,17 L12,17 L12,14.829618 L12,14.8289101 L12,7.99142812 C12,6.89165464 11.1044436,6 9.99985779,6" id="Fill-10" fill="#FEFEFE" fill-rule="nonzero"></path>
                <path d="M9.99985779,0 C8.89527194,0 8,0.895271955 8,1.9997156 C8,3.10444365 8.89527194,4 9.99985779,4 C11.1044436,4 12,3.10444365 12,1.9997156 C12,0.895271955 11.1044436,0 9.99985779,0" id="Fill-12" fill="#FEFEFE" fill-rule="nonzero"></path>
                <path d="M2,6 C0.895335609,6 0,6.89165464 0,7.99142812 L0,14.8289101 L0,14.829618 L0,17 L4,17 L4,14.829618 L4,14.8289101 L4,7.99142812 C4,6.89165464 3.1046644,6 2,6" id="Fill-14" fill="#FEFEFE" fill-rule="nonzero"></path>
                <path d="M2,0 C0.895335609,0 0,0.895271955 0,1.9997156 C0,3.10444365 0.895335609,4 2,4 C3.1046644,4 4,3.10444365 4,1.9997156 C4,0.895271955 3.1046644,0 2,0" id="Fill-16" fill="#FEFEFE" fill-rule="nonzero"></path>
            </g>
        </g>
    </g>
</svg>